%TF.GenerationSoftware,KiCad,Pcbnew,9.0.3*%
%TF.CreationDate,2025-10-29T20:31:05+11:00*%
%TF.ProjectId,Drivetrain_Pololu_G2_24v21_BLFR,44726976-6574-4726-9169-6e5f506f6c6f,rev?*%
%TF.SameCoordinates,Original*%
%TF.FileFunction,Legend,Top*%
%TF.FilePolarity,Positive*%
%FSLAX46Y46*%
G04 Gerber Fmt 4.6, Leading zero omitted, Abs format (unit mm)*
G04 Created by KiCad (PCBNEW 9.0.3) date 2025-10-29 20:31:05*
%MOMM*%
%LPD*%
G01*
G04 APERTURE LIST*
%ADD10C,0.100000*%
%ADD11C,0.500000*%
%ADD12C,0.150000*%
%ADD13C,0.120000*%
%ADD14C,0.050000*%
G04 APERTURE END LIST*
D10*
G36*
X182107599Y-71461130D02*
G01*
X182143743Y-71497275D01*
X182185279Y-71580347D01*
X182230074Y-71759526D01*
X182230074Y-71985311D01*
X182185279Y-72164489D01*
X182143743Y-72247561D01*
X182107597Y-72283708D01*
X182030176Y-72322419D01*
X181958545Y-72322419D01*
X181881122Y-72283708D01*
X181844976Y-72247561D01*
X181803441Y-72164491D01*
X181758646Y-71985311D01*
X181758646Y-71759526D01*
X181803441Y-71580346D01*
X181844976Y-71497274D01*
X181881121Y-71461130D01*
X181958545Y-71422419D01*
X182030176Y-71422419D01*
X182107599Y-71461130D01*
G37*
G36*
X184012361Y-71461130D02*
G01*
X184048505Y-71497275D01*
X184090041Y-71580347D01*
X184134836Y-71759526D01*
X184134836Y-71985311D01*
X184090041Y-72164489D01*
X184048505Y-72247561D01*
X184012359Y-72283708D01*
X183934938Y-72322419D01*
X183863307Y-72322419D01*
X183785884Y-72283708D01*
X183749738Y-72247561D01*
X183708203Y-72164491D01*
X183663408Y-71985311D01*
X183663408Y-71759526D01*
X183708203Y-71580346D01*
X183749738Y-71497274D01*
X183785883Y-71461130D01*
X183863307Y-71422419D01*
X183934938Y-71422419D01*
X184012361Y-71461130D01*
G37*
G36*
X185821886Y-71461131D02*
G01*
X185901592Y-71540837D01*
X185944360Y-71711907D01*
X185944360Y-72032930D01*
X185901592Y-72203999D01*
X185821884Y-72283708D01*
X185744462Y-72322419D01*
X185577593Y-72322419D01*
X185500170Y-72283707D01*
X185420461Y-72203998D01*
X185377694Y-72032930D01*
X185377694Y-71711907D01*
X185420461Y-71540837D01*
X185500167Y-71461131D01*
X185577593Y-71422419D01*
X185744462Y-71422419D01*
X185821886Y-71461131D01*
G37*
G36*
X179250456Y-71461130D02*
G01*
X179286600Y-71497275D01*
X179325312Y-71574698D01*
X179325312Y-71693948D01*
X179286600Y-71771371D01*
X179250456Y-71807516D01*
X179173033Y-71846228D01*
X178853884Y-71846228D01*
X178853884Y-71422419D01*
X179173033Y-71422419D01*
X179250456Y-71461130D01*
G37*
G36*
X180250456Y-71461130D02*
G01*
X180286600Y-71497275D01*
X180325312Y-71574698D01*
X180325312Y-71693948D01*
X180286600Y-71771371D01*
X180250456Y-71807516D01*
X180173033Y-71846228D01*
X179853884Y-71846228D01*
X179853884Y-71422419D01*
X180173033Y-71422419D01*
X180250456Y-71461130D01*
G37*
G36*
X187155471Y-72533530D02*
G01*
X178642773Y-72533530D01*
X178642773Y-71372419D01*
X178753884Y-71372419D01*
X178753884Y-72372419D01*
X178757690Y-72391553D01*
X178784750Y-72418613D01*
X178823018Y-72418613D01*
X178850078Y-72391553D01*
X178853884Y-72372419D01*
X178853884Y-71946228D01*
X179015946Y-71946228D01*
X179334350Y-72401092D01*
X179348441Y-72414585D01*
X179386127Y-72421235D01*
X179417478Y-72399290D01*
X179424128Y-72361604D01*
X179416274Y-72343746D01*
X179138012Y-71946228D01*
X179184836Y-71946228D01*
X179187292Y-71945739D01*
X179188381Y-71946102D01*
X179196108Y-71943985D01*
X179203970Y-71942422D01*
X179204781Y-71941610D01*
X179207197Y-71940949D01*
X179302434Y-71893331D01*
X179308767Y-71888415D01*
X179315429Y-71883964D01*
X179363048Y-71836346D01*
X179367502Y-71829679D01*
X179372414Y-71823351D01*
X179420033Y-71728113D01*
X179420694Y-71725697D01*
X179421506Y-71724886D01*
X179423069Y-71717024D01*
X179425186Y-71709297D01*
X179424823Y-71708208D01*
X179425312Y-71705752D01*
X179425312Y-71562895D01*
X179424823Y-71560438D01*
X179425186Y-71559350D01*
X179423069Y-71551622D01*
X179421506Y-71543761D01*
X179420694Y-71542949D01*
X179420033Y-71540534D01*
X179372414Y-71445296D01*
X179367502Y-71438967D01*
X179363048Y-71432301D01*
X179315429Y-71384683D01*
X179308767Y-71380231D01*
X179302434Y-71375316D01*
X179296640Y-71372419D01*
X179753884Y-71372419D01*
X179753884Y-72372419D01*
X179757690Y-72391553D01*
X179784750Y-72418613D01*
X179823018Y-72418613D01*
X179850078Y-72391553D01*
X179853884Y-72372419D01*
X179853884Y-72353285D01*
X180662452Y-72353285D01*
X180662452Y-72391553D01*
X180689512Y-72418613D01*
X180708646Y-72422419D01*
X181327693Y-72422419D01*
X181346827Y-72418613D01*
X181373887Y-72391553D01*
X181373887Y-72353285D01*
X181346827Y-72326225D01*
X181327693Y-72322419D01*
X180829356Y-72322419D01*
X181315429Y-71836345D01*
X181316819Y-71834263D01*
X181317847Y-71833750D01*
X181321817Y-71826784D01*
X181326268Y-71820124D01*
X181326268Y-71818976D01*
X181327508Y-71816801D01*
X181348651Y-71753371D01*
X181658646Y-71753371D01*
X181658646Y-71991466D01*
X181659841Y-71997475D01*
X181660139Y-72003593D01*
X181707758Y-72194069D01*
X181710097Y-72199021D01*
X181711544Y-72204303D01*
X181759162Y-72299540D01*
X181764073Y-72305868D01*
X181768528Y-72312535D01*
X181816147Y-72360155D01*
X181822813Y-72364609D01*
X181829142Y-72369521D01*
X181924380Y-72417140D01*
X181926795Y-72417801D01*
X181927607Y-72418613D01*
X181935468Y-72420176D01*
X181943196Y-72422293D01*
X181944284Y-72421930D01*
X181946741Y-72422419D01*
X182041979Y-72422419D01*
X182044435Y-72421930D01*
X182045524Y-72422293D01*
X182053251Y-72420176D01*
X182061113Y-72418613D01*
X182061924Y-72417801D01*
X182064340Y-72417140D01*
X182159577Y-72369522D01*
X182165904Y-72364611D01*
X182172573Y-72360155D01*
X182220192Y-72312535D01*
X182224645Y-72305869D01*
X182229557Y-72299541D01*
X182277176Y-72204303D01*
X182278622Y-72199021D01*
X182280962Y-72194069D01*
X182318822Y-72042629D01*
X182611153Y-72042629D01*
X182614833Y-72049989D01*
X182614833Y-72058219D01*
X182623062Y-72066448D01*
X182628267Y-72076858D01*
X182636074Y-72079460D01*
X182641893Y-72085279D01*
X182661027Y-72089085D01*
X183087217Y-72089085D01*
X183087217Y-72372419D01*
X183091023Y-72391553D01*
X183118083Y-72418613D01*
X183156351Y-72418613D01*
X183183411Y-72391553D01*
X183187217Y-72372419D01*
X183187217Y-72089085D01*
X183280074Y-72089085D01*
X183299208Y-72085279D01*
X183326268Y-72058219D01*
X183326268Y-72019951D01*
X183299208Y-71992891D01*
X183280074Y-71989085D01*
X183187217Y-71989085D01*
X183187217Y-71753371D01*
X183563408Y-71753371D01*
X183563408Y-71991466D01*
X183564603Y-71997475D01*
X183564901Y-72003593D01*
X183612520Y-72194069D01*
X183614859Y-72199021D01*
X183616306Y-72204303D01*
X183663924Y-72299540D01*
X183668835Y-72305868D01*
X183673290Y-72312535D01*
X183720909Y-72360155D01*
X183727575Y-72364609D01*
X183733904Y-72369521D01*
X183829142Y-72417140D01*
X183831557Y-72417801D01*
X183832369Y-72418613D01*
X183840230Y-72420176D01*
X183847958Y-72422293D01*
X183849046Y-72421930D01*
X183851503Y-72422419D01*
X183946741Y-72422419D01*
X183949197Y-72421930D01*
X183950286Y-72422293D01*
X183958013Y-72420176D01*
X183965875Y-72418613D01*
X183966686Y-72417801D01*
X183969102Y-72417140D01*
X184064339Y-72369522D01*
X184070666Y-72364611D01*
X184077335Y-72360155D01*
X184124954Y-72312535D01*
X184129407Y-72305869D01*
X184134319Y-72299541D01*
X184181938Y-72204303D01*
X184183384Y-72199021D01*
X184185724Y-72194069D01*
X184233343Y-72003593D01*
X184233640Y-71997475D01*
X184234836Y-71991466D01*
X184234836Y-71753371D01*
X184233640Y-71747361D01*
X184233343Y-71741244D01*
X184224470Y-71705752D01*
X185277694Y-71705752D01*
X185277694Y-72039085D01*
X185278889Y-72045094D01*
X185279187Y-72051212D01*
X185326806Y-72241688D01*
X185329119Y-72246584D01*
X185329119Y-72248695D01*
X185332523Y-72253790D01*
X185335139Y-72259327D01*
X185336947Y-72260412D01*
X185339957Y-72264916D01*
X185435196Y-72360155D01*
X185441855Y-72364605D01*
X185448190Y-72369521D01*
X185543428Y-72417140D01*
X185545843Y-72417801D01*
X185546655Y-72418613D01*
X185554516Y-72420176D01*
X185562244Y-72422293D01*
X185563332Y-72421930D01*
X185565789Y-72422419D01*
X185756265Y-72422419D01*
X185758721Y-72421930D01*
X185759810Y-72422293D01*
X185767537Y-72420176D01*
X185775399Y-72418613D01*
X185776210Y-72417801D01*
X185778626Y-72417140D01*
X185873863Y-72369522D01*
X185880190Y-72364611D01*
X185886859Y-72360155D01*
X185982097Y-72264916D01*
X185985106Y-72260412D01*
X185986915Y-72259327D01*
X185989530Y-72253790D01*
X185992935Y-72248695D01*
X185992935Y-72246584D01*
X185995248Y-72241688D01*
X186042867Y-72051212D01*
X186043164Y-72045094D01*
X186044360Y-72039085D01*
X186044360Y-71705752D01*
X186043164Y-71699742D01*
X186042867Y-71693625D01*
X185995248Y-71503149D01*
X185992935Y-71498252D01*
X185992935Y-71496142D01*
X185989531Y-71491048D01*
X185986915Y-71485510D01*
X185985104Y-71484423D01*
X185982096Y-71479921D01*
X185886858Y-71384683D01*
X185880196Y-71380231D01*
X185873863Y-71375316D01*
X185868069Y-71372419D01*
X186372932Y-71372419D01*
X186372932Y-72372419D01*
X186376738Y-72391553D01*
X186403798Y-72418613D01*
X186442066Y-72418613D01*
X186469126Y-72391553D01*
X186472932Y-72372419D01*
X186472932Y-71560697D01*
X186950948Y-72397226D01*
X186963746Y-72411951D01*
X186970370Y-72413757D01*
X186975226Y-72418613D01*
X186988174Y-72418613D01*
X187000666Y-72422020D01*
X187006628Y-72418613D01*
X187013494Y-72418613D01*
X187022647Y-72409459D01*
X187033892Y-72403034D01*
X187035699Y-72396407D01*
X187040554Y-72391553D01*
X187044360Y-72372419D01*
X187044360Y-71372419D01*
X187040554Y-71353285D01*
X187013494Y-71326225D01*
X186975226Y-71326225D01*
X186948166Y-71353285D01*
X186944360Y-71372419D01*
X186944360Y-72184140D01*
X186466344Y-71347612D01*
X186453547Y-71332887D01*
X186446920Y-71331079D01*
X186442066Y-71326225D01*
X186429119Y-71326225D01*
X186416626Y-71322818D01*
X186410664Y-71326225D01*
X186403798Y-71326225D01*
X186394644Y-71335378D01*
X186383400Y-71341804D01*
X186381592Y-71348430D01*
X186376738Y-71353285D01*
X186372932Y-71372419D01*
X185868069Y-71372419D01*
X185778626Y-71327698D01*
X185776210Y-71327036D01*
X185775399Y-71326225D01*
X185767537Y-71324661D01*
X185759810Y-71322545D01*
X185758721Y-71322907D01*
X185756265Y-71322419D01*
X185565789Y-71322419D01*
X185563332Y-71322907D01*
X185562244Y-71322545D01*
X185554516Y-71324661D01*
X185546655Y-71326225D01*
X185545843Y-71327036D01*
X185543428Y-71327698D01*
X185448190Y-71375317D01*
X185441855Y-71380232D01*
X185435196Y-71384683D01*
X185339958Y-71479921D01*
X185336949Y-71484423D01*
X185335139Y-71485510D01*
X185332522Y-71491048D01*
X185329119Y-71496142D01*
X185329119Y-71498252D01*
X185326806Y-71503149D01*
X185279187Y-71693625D01*
X185278889Y-71699742D01*
X185277694Y-71705752D01*
X184224470Y-71705752D01*
X184185724Y-71550768D01*
X184183384Y-71545815D01*
X184181938Y-71540534D01*
X184134319Y-71445296D01*
X184129407Y-71438967D01*
X184124953Y-71432301D01*
X184077334Y-71384683D01*
X184070672Y-71380231D01*
X184064339Y-71375316D01*
X183969102Y-71327698D01*
X183966686Y-71327036D01*
X183965875Y-71326225D01*
X183958013Y-71324661D01*
X183950286Y-71322545D01*
X183949197Y-71322907D01*
X183946741Y-71322419D01*
X183851503Y-71322419D01*
X183849046Y-71322907D01*
X183847958Y-71322545D01*
X183840230Y-71324661D01*
X183832369Y-71326225D01*
X183831557Y-71327036D01*
X183829142Y-71327698D01*
X183733904Y-71375317D01*
X183727575Y-71380228D01*
X183720909Y-71384683D01*
X183673291Y-71432302D01*
X183668839Y-71438963D01*
X183663924Y-71445297D01*
X183616306Y-71540534D01*
X183614859Y-71545815D01*
X183612520Y-71550768D01*
X183564901Y-71741244D01*
X183564603Y-71747361D01*
X183563408Y-71753371D01*
X183187217Y-71753371D01*
X183187217Y-71705752D01*
X183183411Y-71686618D01*
X183156351Y-71659558D01*
X183118083Y-71659558D01*
X183091023Y-71686618D01*
X183087217Y-71705752D01*
X183087217Y-71989085D01*
X182730398Y-71989085D01*
X182946556Y-71340612D01*
X182948996Y-71321256D01*
X182931882Y-71287028D01*
X182895578Y-71274926D01*
X182861349Y-71292041D01*
X182851688Y-71308989D01*
X182613593Y-72023274D01*
X182611153Y-72042629D01*
X182318822Y-72042629D01*
X182328581Y-72003593D01*
X182328878Y-71997475D01*
X182330074Y-71991466D01*
X182330074Y-71753371D01*
X182328878Y-71747361D01*
X182328581Y-71741244D01*
X182280962Y-71550768D01*
X182278622Y-71545815D01*
X182277176Y-71540534D01*
X182229557Y-71445296D01*
X182224645Y-71438967D01*
X182220191Y-71432301D01*
X182172572Y-71384683D01*
X182165910Y-71380231D01*
X182159577Y-71375316D01*
X182064340Y-71327698D01*
X182061924Y-71327036D01*
X182061113Y-71326225D01*
X182053251Y-71324661D01*
X182045524Y-71322545D01*
X182044435Y-71322907D01*
X182041979Y-71322419D01*
X181946741Y-71322419D01*
X181944284Y-71322907D01*
X181943196Y-71322545D01*
X181935468Y-71324661D01*
X181927607Y-71326225D01*
X181926795Y-71327036D01*
X181924380Y-71327698D01*
X181829142Y-71375317D01*
X181822813Y-71380228D01*
X181816147Y-71384683D01*
X181768529Y-71432302D01*
X181764077Y-71438963D01*
X181759162Y-71445297D01*
X181711544Y-71540534D01*
X181710097Y-71545815D01*
X181707758Y-71550768D01*
X181660139Y-71741244D01*
X181659841Y-71747361D01*
X181658646Y-71753371D01*
X181348651Y-71753371D01*
X181375127Y-71673945D01*
X181376129Y-71665994D01*
X181377693Y-71658133D01*
X181377693Y-71562895D01*
X181377204Y-71560438D01*
X181377567Y-71559350D01*
X181375450Y-71551622D01*
X181373887Y-71543761D01*
X181373075Y-71542949D01*
X181372414Y-71540534D01*
X181324795Y-71445296D01*
X181319883Y-71438967D01*
X181315429Y-71432301D01*
X181267810Y-71384683D01*
X181261148Y-71380231D01*
X181254815Y-71375316D01*
X181159578Y-71327698D01*
X181157162Y-71327036D01*
X181156351Y-71326225D01*
X181148489Y-71324661D01*
X181140762Y-71322545D01*
X181139673Y-71322907D01*
X181137217Y-71322419D01*
X180899122Y-71322419D01*
X180896665Y-71322907D01*
X180895577Y-71322545D01*
X180887849Y-71324661D01*
X180879988Y-71326225D01*
X180879176Y-71327036D01*
X180876761Y-71327698D01*
X180781523Y-71375317D01*
X180775194Y-71380228D01*
X180768528Y-71384683D01*
X180720910Y-71432302D01*
X180710071Y-71448523D01*
X180710071Y-71486791D01*
X180737131Y-71513851D01*
X180775399Y-71513851D01*
X180791620Y-71503012D01*
X180833502Y-71461130D01*
X180910926Y-71422419D01*
X181125414Y-71422419D01*
X181202837Y-71461130D01*
X181238981Y-71497275D01*
X181277693Y-71574698D01*
X181277693Y-71650020D01*
X181236372Y-71773981D01*
X180673291Y-72337064D01*
X180662452Y-72353285D01*
X179853884Y-72353285D01*
X179853884Y-71946228D01*
X180184836Y-71946228D01*
X180187292Y-71945739D01*
X180188381Y-71946102D01*
X180196108Y-71943985D01*
X180203970Y-71942422D01*
X180204781Y-71941610D01*
X180207197Y-71940949D01*
X180302434Y-71893331D01*
X180308767Y-71888415D01*
X180315429Y-71883964D01*
X180363048Y-71836346D01*
X180367502Y-71829679D01*
X180372414Y-71823351D01*
X180420033Y-71728113D01*
X180420694Y-71725697D01*
X180421506Y-71724886D01*
X180423069Y-71717024D01*
X180425186Y-71709297D01*
X180424823Y-71708208D01*
X180425312Y-71705752D01*
X180425312Y-71562895D01*
X180424823Y-71560438D01*
X180425186Y-71559350D01*
X180423069Y-71551622D01*
X180421506Y-71543761D01*
X180420694Y-71542949D01*
X180420033Y-71540534D01*
X180372414Y-71445296D01*
X180367502Y-71438967D01*
X180363048Y-71432301D01*
X180315429Y-71384683D01*
X180308767Y-71380231D01*
X180302434Y-71375316D01*
X180207197Y-71327698D01*
X180204781Y-71327036D01*
X180203970Y-71326225D01*
X180196108Y-71324661D01*
X180188381Y-71322545D01*
X180187292Y-71322907D01*
X180184836Y-71322419D01*
X179803884Y-71322419D01*
X179784750Y-71326225D01*
X179757690Y-71353285D01*
X179753884Y-71372419D01*
X179296640Y-71372419D01*
X179207197Y-71327698D01*
X179204781Y-71327036D01*
X179203970Y-71326225D01*
X179196108Y-71324661D01*
X179188381Y-71322545D01*
X179187292Y-71322907D01*
X179184836Y-71322419D01*
X178803884Y-71322419D01*
X178784750Y-71326225D01*
X178757690Y-71353285D01*
X178753884Y-71372419D01*
X178642773Y-71372419D01*
X178642773Y-71163815D01*
X187155471Y-71163815D01*
X187155471Y-72533530D01*
G37*
G36*
X177262361Y-71461130D02*
G01*
X177298505Y-71497275D01*
X177337217Y-71574698D01*
X177337217Y-71693948D01*
X177298505Y-71771371D01*
X177262361Y-71807516D01*
X177184938Y-71846228D01*
X176865789Y-71846228D01*
X176865789Y-71422419D01*
X177184938Y-71422419D01*
X177262361Y-71461130D01*
G37*
G36*
X177548328Y-72533530D02*
G01*
X174845154Y-72533530D01*
X174845154Y-71562895D01*
X174956265Y-71562895D01*
X174956265Y-71658133D01*
X174956753Y-71660589D01*
X174956391Y-71661678D01*
X174958507Y-71669405D01*
X174960071Y-71677267D01*
X174960882Y-71678078D01*
X174961544Y-71680494D01*
X175009162Y-71775731D01*
X175014077Y-71782064D01*
X175018529Y-71788726D01*
X175066147Y-71836345D01*
X175072813Y-71840799D01*
X175079142Y-71845711D01*
X175174380Y-71893330D01*
X175179661Y-71894776D01*
X175184614Y-71897116D01*
X175369766Y-71943404D01*
X175452837Y-71984939D01*
X175488981Y-72021084D01*
X175527693Y-72098507D01*
X175527693Y-72170138D01*
X175488981Y-72247561D01*
X175452835Y-72283708D01*
X175375414Y-72322419D01*
X175157235Y-72322419D01*
X175022076Y-72277366D01*
X175002721Y-72274926D01*
X174968492Y-72292040D01*
X174956391Y-72328344D01*
X174973505Y-72362573D01*
X174990454Y-72372234D01*
X175133310Y-72419853D01*
X175141260Y-72420855D01*
X175149122Y-72422419D01*
X175387217Y-72422419D01*
X175389673Y-72421930D01*
X175390762Y-72422293D01*
X175398489Y-72420176D01*
X175406351Y-72418613D01*
X175407162Y-72417801D01*
X175409578Y-72417140D01*
X175504815Y-72369522D01*
X175511142Y-72364611D01*
X175517811Y-72360155D01*
X175565430Y-72312535D01*
X175569883Y-72305869D01*
X175574795Y-72299541D01*
X175622414Y-72204303D01*
X175623075Y-72201887D01*
X175623887Y-72201076D01*
X175625450Y-72193214D01*
X175627567Y-72185487D01*
X175627204Y-72184398D01*
X175627693Y-72181942D01*
X175627693Y-72086704D01*
X175627204Y-72084247D01*
X175627567Y-72083159D01*
X175625450Y-72075431D01*
X175623887Y-72067570D01*
X175623075Y-72066758D01*
X175622414Y-72064343D01*
X175574795Y-71969105D01*
X175569883Y-71962776D01*
X175565429Y-71956110D01*
X175517810Y-71908492D01*
X175511148Y-71904040D01*
X175504815Y-71899125D01*
X175409578Y-71851507D01*
X175404296Y-71850060D01*
X175399344Y-71847721D01*
X175214193Y-71801433D01*
X175131121Y-71759897D01*
X175094976Y-71723753D01*
X175056265Y-71646330D01*
X175056265Y-71574698D01*
X175094976Y-71497274D01*
X175131121Y-71461130D01*
X175208545Y-71422419D01*
X175426723Y-71422419D01*
X175561881Y-71467472D01*
X175581237Y-71469912D01*
X175615465Y-71452798D01*
X175627567Y-71416494D01*
X175610452Y-71382265D01*
X175593504Y-71372604D01*
X175592949Y-71372419D01*
X175956265Y-71372419D01*
X175956265Y-72372419D01*
X175960071Y-72391553D01*
X175987131Y-72418613D01*
X176006265Y-72422419D01*
X176482455Y-72422419D01*
X176501589Y-72418613D01*
X176528649Y-72391553D01*
X176528649Y-72353285D01*
X176501589Y-72326225D01*
X176482455Y-72322419D01*
X176056265Y-72322419D01*
X176056265Y-71372419D01*
X176765789Y-71372419D01*
X176765789Y-72372419D01*
X176769595Y-72391553D01*
X176796655Y-72418613D01*
X176834923Y-72418613D01*
X176861983Y-72391553D01*
X176865789Y-72372419D01*
X176865789Y-71946228D01*
X177196741Y-71946228D01*
X177199197Y-71945739D01*
X177200286Y-71946102D01*
X177208013Y-71943985D01*
X177215875Y-71942422D01*
X177216686Y-71941610D01*
X177219102Y-71940949D01*
X177314339Y-71893331D01*
X177320672Y-71888415D01*
X177327334Y-71883964D01*
X177374953Y-71836346D01*
X177379407Y-71829679D01*
X177384319Y-71823351D01*
X177431938Y-71728113D01*
X177432599Y-71725697D01*
X177433411Y-71724886D01*
X177434974Y-71717024D01*
X177437091Y-71709297D01*
X177436728Y-71708208D01*
X177437217Y-71705752D01*
X177437217Y-71562895D01*
X177436728Y-71560438D01*
X177437091Y-71559350D01*
X177434974Y-71551622D01*
X177433411Y-71543761D01*
X177432599Y-71542949D01*
X177431938Y-71540534D01*
X177384319Y-71445296D01*
X177379407Y-71438967D01*
X177374953Y-71432301D01*
X177327334Y-71384683D01*
X177320672Y-71380231D01*
X177314339Y-71375316D01*
X177219102Y-71327698D01*
X177216686Y-71327036D01*
X177215875Y-71326225D01*
X177208013Y-71324661D01*
X177200286Y-71322545D01*
X177199197Y-71322907D01*
X177196741Y-71322419D01*
X176815789Y-71322419D01*
X176796655Y-71326225D01*
X176769595Y-71353285D01*
X176765789Y-71372419D01*
X176056265Y-71372419D01*
X176052459Y-71353285D01*
X176025399Y-71326225D01*
X175987131Y-71326225D01*
X175960071Y-71353285D01*
X175956265Y-71372419D01*
X175592949Y-71372419D01*
X175450647Y-71324985D01*
X175442698Y-71323982D01*
X175434836Y-71322419D01*
X175196741Y-71322419D01*
X175194284Y-71322907D01*
X175193196Y-71322545D01*
X175185468Y-71324661D01*
X175177607Y-71326225D01*
X175176795Y-71327036D01*
X175174380Y-71327698D01*
X175079142Y-71375317D01*
X175072813Y-71380228D01*
X175066147Y-71384683D01*
X175018529Y-71432302D01*
X175014077Y-71438963D01*
X175009162Y-71445297D01*
X174961544Y-71540534D01*
X174960882Y-71542949D01*
X174960071Y-71543761D01*
X174958507Y-71551622D01*
X174956391Y-71559350D01*
X174956753Y-71560438D01*
X174956265Y-71562895D01*
X174845154Y-71562895D01*
X174845154Y-71211308D01*
X177548328Y-71211308D01*
X177548328Y-72533530D01*
G37*
G36*
X173806427Y-72533530D02*
G01*
X171392773Y-72533530D01*
X171392773Y-71372419D01*
X171503884Y-71372419D01*
X171503884Y-72372419D01*
X171507690Y-72391553D01*
X171534750Y-72418613D01*
X171573018Y-72418613D01*
X171600078Y-72391553D01*
X171603884Y-72372419D01*
X171603884Y-71898609D01*
X171887217Y-71898609D01*
X171906351Y-71894803D01*
X171933411Y-71867743D01*
X171933411Y-71829475D01*
X171906351Y-71802415D01*
X171887217Y-71798609D01*
X171603884Y-71798609D01*
X171603884Y-71422419D01*
X172030074Y-71422419D01*
X172049208Y-71418613D01*
X172076268Y-71391553D01*
X172076268Y-71372419D01*
X172361027Y-71372419D01*
X172361027Y-72372419D01*
X172364833Y-72391553D01*
X172391893Y-72418613D01*
X172411027Y-72422419D01*
X172887217Y-72422419D01*
X172906351Y-72418613D01*
X172933411Y-72391553D01*
X172933411Y-72353285D01*
X172906351Y-72326225D01*
X172887217Y-72322419D01*
X172461027Y-72322419D01*
X172461027Y-71372419D01*
X172457221Y-71353285D01*
X173031500Y-71353285D01*
X173031500Y-71391553D01*
X173058560Y-71418613D01*
X173077694Y-71422419D01*
X173313408Y-71422419D01*
X173313408Y-72372419D01*
X173317214Y-72391553D01*
X173344274Y-72418613D01*
X173382542Y-72418613D01*
X173409602Y-72391553D01*
X173413408Y-72372419D01*
X173413408Y-71422419D01*
X173649122Y-71422419D01*
X173668256Y-71418613D01*
X173695316Y-71391553D01*
X173695316Y-71353285D01*
X173668256Y-71326225D01*
X173649122Y-71322419D01*
X173077694Y-71322419D01*
X173058560Y-71326225D01*
X173031500Y-71353285D01*
X172457221Y-71353285D01*
X172430161Y-71326225D01*
X172391893Y-71326225D01*
X172364833Y-71353285D01*
X172361027Y-71372419D01*
X172076268Y-71372419D01*
X172076268Y-71353285D01*
X172049208Y-71326225D01*
X172030074Y-71322419D01*
X171553884Y-71322419D01*
X171534750Y-71326225D01*
X171507690Y-71353285D01*
X171503884Y-71372419D01*
X171392773Y-71372419D01*
X171392773Y-71211308D01*
X173806427Y-71211308D01*
X173806427Y-72533530D01*
G37*
X158053884Y-71872419D02*
X158053884Y-71205752D01*
X158053884Y-70872419D02*
X158006265Y-70920038D01*
X158006265Y-70920038D02*
X158053884Y-70967657D01*
X158053884Y-70967657D02*
X158101503Y-70920038D01*
X158101503Y-70920038D02*
X158053884Y-70872419D01*
X158053884Y-70872419D02*
X158053884Y-70967657D01*
X158530074Y-71491466D02*
X159291979Y-71491466D01*
X160244359Y-71872419D02*
X159768169Y-71872419D01*
X159768169Y-71872419D02*
X159768169Y-70872419D01*
X160577693Y-71872419D02*
X160577693Y-71205752D01*
X160577693Y-70872419D02*
X160530074Y-70920038D01*
X160530074Y-70920038D02*
X160577693Y-70967657D01*
X160577693Y-70967657D02*
X160625312Y-70920038D01*
X160625312Y-70920038D02*
X160577693Y-70872419D01*
X160577693Y-70872419D02*
X160577693Y-70967657D01*
X161053883Y-71872419D02*
X161053883Y-71205752D01*
X161053883Y-71300990D02*
X161101502Y-71253371D01*
X161101502Y-71253371D02*
X161196740Y-71205752D01*
X161196740Y-71205752D02*
X161339597Y-71205752D01*
X161339597Y-71205752D02*
X161434835Y-71253371D01*
X161434835Y-71253371D02*
X161482454Y-71348609D01*
X161482454Y-71348609D02*
X161482454Y-71872419D01*
X161482454Y-71348609D02*
X161530073Y-71253371D01*
X161530073Y-71253371D02*
X161625311Y-71205752D01*
X161625311Y-71205752D02*
X161768168Y-71205752D01*
X161768168Y-71205752D02*
X161863407Y-71253371D01*
X161863407Y-71253371D02*
X161911026Y-71348609D01*
X161911026Y-71348609D02*
X161911026Y-71872419D01*
X162387216Y-71872419D02*
X162387216Y-71205752D01*
X162387216Y-70872419D02*
X162339597Y-70920038D01*
X162339597Y-70920038D02*
X162387216Y-70967657D01*
X162387216Y-70967657D02*
X162434835Y-70920038D01*
X162434835Y-70920038D02*
X162387216Y-70872419D01*
X162387216Y-70872419D02*
X162387216Y-70967657D01*
X162720549Y-71205752D02*
X163101501Y-71205752D01*
X162863406Y-70872419D02*
X162863406Y-71729561D01*
X162863406Y-71729561D02*
X162911025Y-71824800D01*
X162911025Y-71824800D02*
X163006263Y-71872419D01*
X163006263Y-71872419D02*
X163101501Y-71872419D01*
D11*
X121306142Y-88135338D02*
X127377571Y-88135338D01*
X127377571Y-88135338D02*
X128091857Y-87778195D01*
X128091857Y-87778195D02*
X128449000Y-87421053D01*
X128449000Y-87421053D02*
X128806142Y-86706767D01*
X128806142Y-86706767D02*
X128806142Y-85278195D01*
X128806142Y-85278195D02*
X128449000Y-84563910D01*
X128449000Y-84563910D02*
X128091857Y-84206767D01*
X128091857Y-84206767D02*
X127377571Y-83849624D01*
X127377571Y-83849624D02*
X121306142Y-83849624D01*
X128806142Y-75992481D02*
X125234714Y-78492481D01*
X128806142Y-80278195D02*
X121306142Y-80278195D01*
X121306142Y-80278195D02*
X121306142Y-77421052D01*
X121306142Y-77421052D02*
X121663285Y-76706767D01*
X121663285Y-76706767D02*
X122020428Y-76349624D01*
X122020428Y-76349624D02*
X122734714Y-75992481D01*
X122734714Y-75992481D02*
X123806142Y-75992481D01*
X123806142Y-75992481D02*
X124520428Y-76349624D01*
X124520428Y-76349624D02*
X124877571Y-76706767D01*
X124877571Y-76706767D02*
X125234714Y-77421052D01*
X125234714Y-77421052D02*
X125234714Y-80278195D01*
X121306142Y-73849624D02*
X121306142Y-69563910D01*
X128806142Y-71706767D02*
X121306142Y-71706767D01*
D10*
G36*
X129000457Y-89711131D02*
G01*
X129080163Y-89790837D01*
X129122931Y-89961907D01*
X129122931Y-90282930D01*
X129080163Y-90453999D01*
X129000455Y-90533708D01*
X128923033Y-90572419D01*
X128756164Y-90572419D01*
X128678741Y-90533707D01*
X128599032Y-90453998D01*
X128556265Y-90282930D01*
X128556265Y-89961907D01*
X128599032Y-89790837D01*
X128678738Y-89711131D01*
X128756164Y-89672419D01*
X128923033Y-89672419D01*
X129000457Y-89711131D01*
G37*
G36*
X133857600Y-89711131D02*
G01*
X133937306Y-89790837D01*
X133980074Y-89961907D01*
X133980074Y-90282930D01*
X133937306Y-90453999D01*
X133857598Y-90533708D01*
X133780176Y-90572419D01*
X133613307Y-90572419D01*
X133535884Y-90533707D01*
X133456175Y-90453998D01*
X133413408Y-90282930D01*
X133413408Y-89961907D01*
X133456175Y-89790837D01*
X133535881Y-89711131D01*
X133613307Y-89672419D01*
X133780176Y-89672419D01*
X133857600Y-89711131D01*
G37*
G36*
X132095694Y-89711130D02*
G01*
X132131838Y-89747275D01*
X132170550Y-89824698D01*
X132170550Y-89943948D01*
X132131838Y-90021371D01*
X132095694Y-90057516D01*
X132018271Y-90096228D01*
X131699122Y-90096228D01*
X131699122Y-89672419D01*
X132018271Y-89672419D01*
X132095694Y-89711130D01*
G37*
G36*
X128000456Y-89711130D02*
G01*
X128036600Y-89747275D01*
X128075312Y-89824698D01*
X128075312Y-89943948D01*
X128036600Y-90021371D01*
X128000456Y-90057516D01*
X127923033Y-90096228D01*
X127603884Y-90096228D01*
X127603884Y-89672419D01*
X127923033Y-89672419D01*
X128000456Y-89711130D01*
G37*
G36*
X135191185Y-90783530D02*
G01*
X127392773Y-90783530D01*
X127392773Y-89622419D01*
X127503884Y-89622419D01*
X127503884Y-90622419D01*
X127507690Y-90641553D01*
X127534750Y-90668613D01*
X127573018Y-90668613D01*
X127600078Y-90641553D01*
X127603884Y-90622419D01*
X127603884Y-90196228D01*
X127934836Y-90196228D01*
X127937292Y-90195739D01*
X127938381Y-90196102D01*
X127946108Y-90193985D01*
X127953970Y-90192422D01*
X127954781Y-90191610D01*
X127957197Y-90190949D01*
X128052434Y-90143331D01*
X128058767Y-90138415D01*
X128065429Y-90133964D01*
X128113048Y-90086346D01*
X128117502Y-90079679D01*
X128122414Y-90073351D01*
X128170033Y-89978113D01*
X128170694Y-89975697D01*
X128171506Y-89974886D01*
X128173069Y-89967024D01*
X128175186Y-89959297D01*
X128174823Y-89958208D01*
X128175312Y-89955752D01*
X128456265Y-89955752D01*
X128456265Y-90289085D01*
X128457460Y-90295094D01*
X128457758Y-90301212D01*
X128505377Y-90491688D01*
X128507690Y-90496584D01*
X128507690Y-90498695D01*
X128511094Y-90503790D01*
X128513710Y-90509327D01*
X128515518Y-90510412D01*
X128518528Y-90514916D01*
X128613767Y-90610155D01*
X128620426Y-90614605D01*
X128626761Y-90619521D01*
X128721999Y-90667140D01*
X128724414Y-90667801D01*
X128725226Y-90668613D01*
X128733087Y-90670176D01*
X128740815Y-90672293D01*
X128741903Y-90671930D01*
X128744360Y-90672419D01*
X128934836Y-90672419D01*
X128937292Y-90671930D01*
X128938381Y-90672293D01*
X128946108Y-90670176D01*
X128953970Y-90668613D01*
X128954781Y-90667801D01*
X128957197Y-90667140D01*
X129052434Y-90619522D01*
X129058761Y-90614611D01*
X129065430Y-90610155D01*
X129160668Y-90514916D01*
X129163677Y-90510412D01*
X129165486Y-90509327D01*
X129168101Y-90503790D01*
X129171506Y-90498695D01*
X129171506Y-90496584D01*
X129173819Y-90491688D01*
X129221438Y-90301212D01*
X129221735Y-90295094D01*
X129222931Y-90289085D01*
X129222931Y-89955752D01*
X129221735Y-89949742D01*
X129221438Y-89943625D01*
X129173819Y-89753149D01*
X129171506Y-89748252D01*
X129171506Y-89746142D01*
X129168102Y-89741048D01*
X129165486Y-89735510D01*
X129163675Y-89734423D01*
X129160667Y-89729921D01*
X129065429Y-89634683D01*
X129058767Y-89630231D01*
X129052434Y-89625316D01*
X129030812Y-89614505D01*
X129456895Y-89614505D01*
X129457625Y-89634000D01*
X129695720Y-90634000D01*
X129703854Y-90651732D01*
X129710223Y-90655651D01*
X129713970Y-90662123D01*
X129725915Y-90665308D01*
X129736446Y-90671789D01*
X129743721Y-90670056D01*
X129750945Y-90671983D01*
X129761643Y-90665789D01*
X129773673Y-90662925D01*
X129777592Y-90656555D01*
X129784064Y-90652809D01*
X129792672Y-90635302D01*
X129934836Y-90102186D01*
X130077000Y-90635302D01*
X130085608Y-90652810D01*
X130092080Y-90656557D01*
X130095999Y-90662925D01*
X130108025Y-90665788D01*
X130118727Y-90671984D01*
X130125952Y-90670057D01*
X130133226Y-90671789D01*
X130143755Y-90665308D01*
X130155702Y-90662123D01*
X130159448Y-90655651D01*
X130165818Y-90651732D01*
X130173952Y-90634000D01*
X130412048Y-89634000D01*
X130412482Y-89622419D01*
X130694360Y-89622419D01*
X130694360Y-90622419D01*
X130698166Y-90641553D01*
X130725226Y-90668613D01*
X130744360Y-90672419D01*
X131220550Y-90672419D01*
X131239684Y-90668613D01*
X131266744Y-90641553D01*
X131266744Y-90603285D01*
X131239684Y-90576225D01*
X131220550Y-90572419D01*
X130794360Y-90572419D01*
X130794360Y-90148609D01*
X131077693Y-90148609D01*
X131096827Y-90144803D01*
X131123887Y-90117743D01*
X131123887Y-90079475D01*
X131096827Y-90052415D01*
X131077693Y-90048609D01*
X130794360Y-90048609D01*
X130794360Y-89672419D01*
X131220550Y-89672419D01*
X131239684Y-89668613D01*
X131266744Y-89641553D01*
X131266744Y-89622419D01*
X131599122Y-89622419D01*
X131599122Y-90622419D01*
X131602928Y-90641553D01*
X131629988Y-90668613D01*
X131668256Y-90668613D01*
X131695316Y-90641553D01*
X131699122Y-90622419D01*
X131699122Y-90196228D01*
X131861184Y-90196228D01*
X132179588Y-90651092D01*
X132193679Y-90664585D01*
X132231365Y-90671235D01*
X132262716Y-90649290D01*
X132269366Y-90611604D01*
X132261512Y-90593746D01*
X131983250Y-90196228D01*
X132030074Y-90196228D01*
X132032530Y-90195739D01*
X132033619Y-90196102D01*
X132041346Y-90193985D01*
X132049208Y-90192422D01*
X132050019Y-90191610D01*
X132052435Y-90190949D01*
X132147672Y-90143331D01*
X132154005Y-90138415D01*
X132160667Y-90133964D01*
X132208286Y-90086346D01*
X132212740Y-90079679D01*
X132217652Y-90073351D01*
X132265271Y-89978113D01*
X132265932Y-89975697D01*
X132266744Y-89974886D01*
X132268307Y-89967024D01*
X132270424Y-89959297D01*
X132270061Y-89958208D01*
X132270550Y-89955752D01*
X133313408Y-89955752D01*
X133313408Y-90289085D01*
X133314603Y-90295094D01*
X133314901Y-90301212D01*
X133362520Y-90491688D01*
X133364833Y-90496584D01*
X133364833Y-90498695D01*
X133368237Y-90503790D01*
X133370853Y-90509327D01*
X133372661Y-90510412D01*
X133375671Y-90514916D01*
X133470910Y-90610155D01*
X133477569Y-90614605D01*
X133483904Y-90619521D01*
X133579142Y-90667140D01*
X133581557Y-90667801D01*
X133582369Y-90668613D01*
X133590230Y-90670176D01*
X133597958Y-90672293D01*
X133599046Y-90671930D01*
X133601503Y-90672419D01*
X133791979Y-90672419D01*
X133794435Y-90671930D01*
X133795524Y-90672293D01*
X133803251Y-90670176D01*
X133811113Y-90668613D01*
X133811924Y-90667801D01*
X133814340Y-90667140D01*
X133909577Y-90619522D01*
X133915904Y-90614611D01*
X133922573Y-90610155D01*
X134017811Y-90514916D01*
X134020820Y-90510412D01*
X134022629Y-90509327D01*
X134025244Y-90503790D01*
X134028649Y-90498695D01*
X134028649Y-90496584D01*
X134030962Y-90491688D01*
X134078581Y-90301212D01*
X134078878Y-90295094D01*
X134080074Y-90289085D01*
X134080074Y-89955752D01*
X134078878Y-89949742D01*
X134078581Y-89943625D01*
X134030962Y-89753149D01*
X134028649Y-89748252D01*
X134028649Y-89746142D01*
X134025245Y-89741048D01*
X134022629Y-89735510D01*
X134020818Y-89734423D01*
X134017810Y-89729921D01*
X133922572Y-89634683D01*
X133915910Y-89630231D01*
X133909577Y-89625316D01*
X133903783Y-89622419D01*
X134408646Y-89622419D01*
X134408646Y-90622419D01*
X134412452Y-90641553D01*
X134439512Y-90668613D01*
X134477780Y-90668613D01*
X134504840Y-90641553D01*
X134508646Y-90622419D01*
X134508646Y-89810697D01*
X134986662Y-90647226D01*
X134999460Y-90661951D01*
X135006084Y-90663757D01*
X135010940Y-90668613D01*
X135023888Y-90668613D01*
X135036380Y-90672020D01*
X135042342Y-90668613D01*
X135049208Y-90668613D01*
X135058361Y-90659459D01*
X135069606Y-90653034D01*
X135071413Y-90646407D01*
X135076268Y-90641553D01*
X135080074Y-90622419D01*
X135080074Y-89622419D01*
X135076268Y-89603285D01*
X135049208Y-89576225D01*
X135010940Y-89576225D01*
X134983880Y-89603285D01*
X134980074Y-89622419D01*
X134980074Y-90434140D01*
X134502058Y-89597612D01*
X134489261Y-89582887D01*
X134482634Y-89581079D01*
X134477780Y-89576225D01*
X134464833Y-89576225D01*
X134452340Y-89572818D01*
X134446378Y-89576225D01*
X134439512Y-89576225D01*
X134430358Y-89585378D01*
X134419114Y-89591804D01*
X134417306Y-89598430D01*
X134412452Y-89603285D01*
X134408646Y-89622419D01*
X133903783Y-89622419D01*
X133814340Y-89577698D01*
X133811924Y-89577036D01*
X133811113Y-89576225D01*
X133803251Y-89574661D01*
X133795524Y-89572545D01*
X133794435Y-89572907D01*
X133791979Y-89572419D01*
X133601503Y-89572419D01*
X133599046Y-89572907D01*
X133597958Y-89572545D01*
X133590230Y-89574661D01*
X133582369Y-89576225D01*
X133581557Y-89577036D01*
X133579142Y-89577698D01*
X133483904Y-89625317D01*
X133477569Y-89630232D01*
X133470910Y-89634683D01*
X133375672Y-89729921D01*
X133372663Y-89734423D01*
X133370853Y-89735510D01*
X133368236Y-89741048D01*
X133364833Y-89746142D01*
X133364833Y-89748252D01*
X133362520Y-89753149D01*
X133314901Y-89943625D01*
X133314603Y-89949742D01*
X133313408Y-89955752D01*
X132270550Y-89955752D01*
X132270550Y-89812895D01*
X132270061Y-89810438D01*
X132270424Y-89809350D01*
X132268307Y-89801622D01*
X132266744Y-89793761D01*
X132265932Y-89792949D01*
X132265271Y-89790534D01*
X132217652Y-89695296D01*
X132212740Y-89688967D01*
X132208286Y-89682301D01*
X132160667Y-89634683D01*
X132154005Y-89630231D01*
X132147672Y-89625316D01*
X132052435Y-89577698D01*
X132050019Y-89577036D01*
X132049208Y-89576225D01*
X132041346Y-89574661D01*
X132033619Y-89572545D01*
X132032530Y-89572907D01*
X132030074Y-89572419D01*
X131649122Y-89572419D01*
X131629988Y-89576225D01*
X131602928Y-89603285D01*
X131599122Y-89622419D01*
X131266744Y-89622419D01*
X131266744Y-89603285D01*
X131239684Y-89576225D01*
X131220550Y-89572419D01*
X130744360Y-89572419D01*
X130725226Y-89576225D01*
X130698166Y-89603285D01*
X130694360Y-89622419D01*
X130412482Y-89622419D01*
X130412778Y-89614505D01*
X130392721Y-89581913D01*
X130355494Y-89573049D01*
X130322902Y-89593106D01*
X130314768Y-89610838D01*
X130122567Y-90418075D01*
X129983148Y-89895250D01*
X129974540Y-89877743D01*
X129968641Y-89874327D01*
X129965226Y-89868429D01*
X129952666Y-89865079D01*
X129941421Y-89858569D01*
X129934837Y-89860324D01*
X129928251Y-89858568D01*
X129917001Y-89865080D01*
X129904446Y-89868429D01*
X129901031Y-89874326D01*
X129895132Y-89877742D01*
X129886524Y-89895250D01*
X129747104Y-90418075D01*
X129554905Y-89610838D01*
X129546771Y-89593106D01*
X129514179Y-89573049D01*
X129476952Y-89581913D01*
X129456895Y-89614505D01*
X129030812Y-89614505D01*
X128957197Y-89577698D01*
X128954781Y-89577036D01*
X128953970Y-89576225D01*
X128946108Y-89574661D01*
X128938381Y-89572545D01*
X128937292Y-89572907D01*
X128934836Y-89572419D01*
X128744360Y-89572419D01*
X128741903Y-89572907D01*
X128740815Y-89572545D01*
X128733087Y-89574661D01*
X128725226Y-89576225D01*
X128724414Y-89577036D01*
X128721999Y-89577698D01*
X128626761Y-89625317D01*
X128620426Y-89630232D01*
X128613767Y-89634683D01*
X128518529Y-89729921D01*
X128515520Y-89734423D01*
X128513710Y-89735510D01*
X128511093Y-89741048D01*
X128507690Y-89746142D01*
X128507690Y-89748252D01*
X128505377Y-89753149D01*
X128457758Y-89943625D01*
X128457460Y-89949742D01*
X128456265Y-89955752D01*
X128175312Y-89955752D01*
X128175312Y-89812895D01*
X128174823Y-89810438D01*
X128175186Y-89809350D01*
X128173069Y-89801622D01*
X128171506Y-89793761D01*
X128170694Y-89792949D01*
X128170033Y-89790534D01*
X128122414Y-89695296D01*
X128117502Y-89688967D01*
X128113048Y-89682301D01*
X128065429Y-89634683D01*
X128058767Y-89630231D01*
X128052434Y-89625316D01*
X127957197Y-89577698D01*
X127954781Y-89577036D01*
X127953970Y-89576225D01*
X127946108Y-89574661D01*
X127938381Y-89572545D01*
X127937292Y-89572907D01*
X127934836Y-89572419D01*
X127553884Y-89572419D01*
X127534750Y-89576225D01*
X127507690Y-89603285D01*
X127503884Y-89622419D01*
X127392773Y-89622419D01*
X127392773Y-89461308D01*
X135191185Y-89461308D01*
X135191185Y-90783530D01*
G37*
X132012475Y-88726192D02*
X131012475Y-88726192D01*
X131012475Y-88726192D02*
X131012475Y-88488097D01*
X131012475Y-88488097D02*
X131060094Y-88345240D01*
X131060094Y-88345240D02*
X131155332Y-88250002D01*
X131155332Y-88250002D02*
X131250570Y-88202383D01*
X131250570Y-88202383D02*
X131441046Y-88154764D01*
X131441046Y-88154764D02*
X131583903Y-88154764D01*
X131583903Y-88154764D02*
X131774379Y-88202383D01*
X131774379Y-88202383D02*
X131869617Y-88250002D01*
X131869617Y-88250002D02*
X131964856Y-88345240D01*
X131964856Y-88345240D02*
X132012475Y-88488097D01*
X132012475Y-88488097D02*
X132012475Y-88726192D01*
X132012475Y-87726192D02*
X131345808Y-87726192D01*
X131536284Y-87726192D02*
X131441046Y-87678573D01*
X131441046Y-87678573D02*
X131393427Y-87630954D01*
X131393427Y-87630954D02*
X131345808Y-87535716D01*
X131345808Y-87535716D02*
X131345808Y-87440478D01*
X132012475Y-87107144D02*
X131345808Y-87107144D01*
X131012475Y-87107144D02*
X131060094Y-87154763D01*
X131060094Y-87154763D02*
X131107713Y-87107144D01*
X131107713Y-87107144D02*
X131060094Y-87059525D01*
X131060094Y-87059525D02*
X131012475Y-87107144D01*
X131012475Y-87107144D02*
X131107713Y-87107144D01*
X131345808Y-86726192D02*
X132012475Y-86488097D01*
X132012475Y-86488097D02*
X131345808Y-86250002D01*
X131964856Y-85488097D02*
X132012475Y-85583335D01*
X132012475Y-85583335D02*
X132012475Y-85773811D01*
X132012475Y-85773811D02*
X131964856Y-85869049D01*
X131964856Y-85869049D02*
X131869617Y-85916668D01*
X131869617Y-85916668D02*
X131488665Y-85916668D01*
X131488665Y-85916668D02*
X131393427Y-85869049D01*
X131393427Y-85869049D02*
X131345808Y-85773811D01*
X131345808Y-85773811D02*
X131345808Y-85583335D01*
X131345808Y-85583335D02*
X131393427Y-85488097D01*
X131393427Y-85488097D02*
X131488665Y-85440478D01*
X131488665Y-85440478D02*
X131583903Y-85440478D01*
X131583903Y-85440478D02*
X131679141Y-85916668D01*
X131345808Y-85154763D02*
X131345808Y-84773811D01*
X131012475Y-85011906D02*
X131869617Y-85011906D01*
X131869617Y-85011906D02*
X131964856Y-84964287D01*
X131964856Y-84964287D02*
X132012475Y-84869049D01*
X132012475Y-84869049D02*
X132012475Y-84773811D01*
X132012475Y-84440477D02*
X131345808Y-84440477D01*
X131536284Y-84440477D02*
X131441046Y-84392858D01*
X131441046Y-84392858D02*
X131393427Y-84345239D01*
X131393427Y-84345239D02*
X131345808Y-84250001D01*
X131345808Y-84250001D02*
X131345808Y-84154763D01*
X132012475Y-83392858D02*
X131488665Y-83392858D01*
X131488665Y-83392858D02*
X131393427Y-83440477D01*
X131393427Y-83440477D02*
X131345808Y-83535715D01*
X131345808Y-83535715D02*
X131345808Y-83726191D01*
X131345808Y-83726191D02*
X131393427Y-83821429D01*
X131964856Y-83392858D02*
X132012475Y-83488096D01*
X132012475Y-83488096D02*
X132012475Y-83726191D01*
X132012475Y-83726191D02*
X131964856Y-83821429D01*
X131964856Y-83821429D02*
X131869617Y-83869048D01*
X131869617Y-83869048D02*
X131774379Y-83869048D01*
X131774379Y-83869048D02*
X131679141Y-83821429D01*
X131679141Y-83821429D02*
X131631522Y-83726191D01*
X131631522Y-83726191D02*
X131631522Y-83488096D01*
X131631522Y-83488096D02*
X131583903Y-83392858D01*
X132012475Y-82916667D02*
X131345808Y-82916667D01*
X131012475Y-82916667D02*
X131060094Y-82964286D01*
X131060094Y-82964286D02*
X131107713Y-82916667D01*
X131107713Y-82916667D02*
X131060094Y-82869048D01*
X131060094Y-82869048D02*
X131012475Y-82916667D01*
X131012475Y-82916667D02*
X131107713Y-82916667D01*
X131345808Y-82440477D02*
X132012475Y-82440477D01*
X131441046Y-82440477D02*
X131393427Y-82392858D01*
X131393427Y-82392858D02*
X131345808Y-82297620D01*
X131345808Y-82297620D02*
X131345808Y-82154763D01*
X131345808Y-82154763D02*
X131393427Y-82059525D01*
X131393427Y-82059525D02*
X131488665Y-82011906D01*
X131488665Y-82011906D02*
X132012475Y-82011906D01*
X131012475Y-80916667D02*
X132012475Y-80583334D01*
X132012475Y-80583334D02*
X131012475Y-80250001D01*
X131012475Y-80011905D02*
X131012475Y-79392858D01*
X131012475Y-79392858D02*
X131393427Y-79726191D01*
X131393427Y-79726191D02*
X131393427Y-79583334D01*
X131393427Y-79583334D02*
X131441046Y-79488096D01*
X131441046Y-79488096D02*
X131488665Y-79440477D01*
X131488665Y-79440477D02*
X131583903Y-79392858D01*
X131583903Y-79392858D02*
X131821998Y-79392858D01*
X131821998Y-79392858D02*
X131917236Y-79440477D01*
X131917236Y-79440477D02*
X131964856Y-79488096D01*
X131964856Y-79488096D02*
X132012475Y-79583334D01*
X132012475Y-79583334D02*
X132012475Y-79869048D01*
X132012475Y-79869048D02*
X131964856Y-79964286D01*
X131964856Y-79964286D02*
X131917236Y-80011905D01*
X132012475Y-78392858D02*
X131536284Y-78726191D01*
X132012475Y-78964286D02*
X131012475Y-78964286D01*
X131012475Y-78964286D02*
X131012475Y-78583334D01*
X131012475Y-78583334D02*
X131060094Y-78488096D01*
X131060094Y-78488096D02*
X131107713Y-78440477D01*
X131107713Y-78440477D02*
X131202951Y-78392858D01*
X131202951Y-78392858D02*
X131345808Y-78392858D01*
X131345808Y-78392858D02*
X131441046Y-78440477D01*
X131441046Y-78440477D02*
X131488665Y-78488096D01*
X131488665Y-78488096D02*
X131536284Y-78583334D01*
X131536284Y-78583334D02*
X131536284Y-78964286D01*
X131107713Y-78011905D02*
X131060094Y-77964286D01*
X131060094Y-77964286D02*
X131012475Y-77869048D01*
X131012475Y-77869048D02*
X131012475Y-77630953D01*
X131012475Y-77630953D02*
X131060094Y-77535715D01*
X131060094Y-77535715D02*
X131107713Y-77488096D01*
X131107713Y-77488096D02*
X131202951Y-77440477D01*
X131202951Y-77440477D02*
X131298189Y-77440477D01*
X131298189Y-77440477D02*
X131441046Y-77488096D01*
X131441046Y-77488096D02*
X132012475Y-78059524D01*
X132012475Y-78059524D02*
X132012475Y-77440477D01*
X131488665Y-75916667D02*
X131536284Y-75773810D01*
X131536284Y-75773810D02*
X131583903Y-75726191D01*
X131583903Y-75726191D02*
X131679141Y-75678572D01*
X131679141Y-75678572D02*
X131821998Y-75678572D01*
X131821998Y-75678572D02*
X131917236Y-75726191D01*
X131917236Y-75726191D02*
X131964856Y-75773810D01*
X131964856Y-75773810D02*
X132012475Y-75869048D01*
X132012475Y-75869048D02*
X132012475Y-76250000D01*
X132012475Y-76250000D02*
X131012475Y-76250000D01*
X131012475Y-76250000D02*
X131012475Y-75916667D01*
X131012475Y-75916667D02*
X131060094Y-75821429D01*
X131060094Y-75821429D02*
X131107713Y-75773810D01*
X131107713Y-75773810D02*
X131202951Y-75726191D01*
X131202951Y-75726191D02*
X131298189Y-75726191D01*
X131298189Y-75726191D02*
X131393427Y-75773810D01*
X131393427Y-75773810D02*
X131441046Y-75821429D01*
X131441046Y-75821429D02*
X131488665Y-75916667D01*
X131488665Y-75916667D02*
X131488665Y-76250000D01*
X132012475Y-75250000D02*
X131345808Y-75250000D01*
X131536284Y-75250000D02*
X131441046Y-75202381D01*
X131441046Y-75202381D02*
X131393427Y-75154762D01*
X131393427Y-75154762D02*
X131345808Y-75059524D01*
X131345808Y-75059524D02*
X131345808Y-74964286D01*
X131345808Y-74202381D02*
X132012475Y-74202381D01*
X131345808Y-74630952D02*
X131869617Y-74630952D01*
X131869617Y-74630952D02*
X131964856Y-74583333D01*
X131964856Y-74583333D02*
X132012475Y-74488095D01*
X132012475Y-74488095D02*
X132012475Y-74345238D01*
X132012475Y-74345238D02*
X131964856Y-74250000D01*
X131964856Y-74250000D02*
X131917236Y-74202381D01*
X131964856Y-73773809D02*
X132012475Y-73678571D01*
X132012475Y-73678571D02*
X132012475Y-73488095D01*
X132012475Y-73488095D02*
X131964856Y-73392857D01*
X131964856Y-73392857D02*
X131869617Y-73345238D01*
X131869617Y-73345238D02*
X131821998Y-73345238D01*
X131821998Y-73345238D02*
X131726760Y-73392857D01*
X131726760Y-73392857D02*
X131679141Y-73488095D01*
X131679141Y-73488095D02*
X131679141Y-73630952D01*
X131679141Y-73630952D02*
X131631522Y-73726190D01*
X131631522Y-73726190D02*
X131536284Y-73773809D01*
X131536284Y-73773809D02*
X131488665Y-73773809D01*
X131488665Y-73773809D02*
X131393427Y-73726190D01*
X131393427Y-73726190D02*
X131345808Y-73630952D01*
X131345808Y-73630952D02*
X131345808Y-73488095D01*
X131345808Y-73488095D02*
X131393427Y-73392857D01*
X132012475Y-72916666D02*
X131012475Y-72916666D01*
X132012475Y-72488095D02*
X131488665Y-72488095D01*
X131488665Y-72488095D02*
X131393427Y-72535714D01*
X131393427Y-72535714D02*
X131345808Y-72630952D01*
X131345808Y-72630952D02*
X131345808Y-72773809D01*
X131345808Y-72773809D02*
X131393427Y-72869047D01*
X131393427Y-72869047D02*
X131441046Y-72916666D01*
X131964856Y-71630952D02*
X132012475Y-71726190D01*
X132012475Y-71726190D02*
X132012475Y-71916666D01*
X132012475Y-71916666D02*
X131964856Y-72011904D01*
X131964856Y-72011904D02*
X131869617Y-72059523D01*
X131869617Y-72059523D02*
X131488665Y-72059523D01*
X131488665Y-72059523D02*
X131393427Y-72011904D01*
X131393427Y-72011904D02*
X131345808Y-71916666D01*
X131345808Y-71916666D02*
X131345808Y-71726190D01*
X131345808Y-71726190D02*
X131393427Y-71630952D01*
X131393427Y-71630952D02*
X131488665Y-71583333D01*
X131488665Y-71583333D02*
X131583903Y-71583333D01*
X131583903Y-71583333D02*
X131679141Y-72059523D01*
X132012475Y-70726190D02*
X131012475Y-70726190D01*
X131964856Y-70726190D02*
X132012475Y-70821428D01*
X132012475Y-70821428D02*
X132012475Y-71011904D01*
X132012475Y-71011904D02*
X131964856Y-71107142D01*
X131964856Y-71107142D02*
X131917236Y-71154761D01*
X131917236Y-71154761D02*
X131821998Y-71202380D01*
X131821998Y-71202380D02*
X131536284Y-71202380D01*
X131536284Y-71202380D02*
X131441046Y-71154761D01*
X131441046Y-71154761D02*
X131393427Y-71107142D01*
X131393427Y-71107142D02*
X131345808Y-71011904D01*
X131345808Y-71011904D02*
X131345808Y-70821428D01*
X131345808Y-70821428D02*
X131393427Y-70726190D01*
X132012475Y-69488094D02*
X131012475Y-69488094D01*
X131012475Y-69488094D02*
X131012475Y-69249999D01*
X131012475Y-69249999D02*
X131060094Y-69107142D01*
X131060094Y-69107142D02*
X131155332Y-69011904D01*
X131155332Y-69011904D02*
X131250570Y-68964285D01*
X131250570Y-68964285D02*
X131441046Y-68916666D01*
X131441046Y-68916666D02*
X131583903Y-68916666D01*
X131583903Y-68916666D02*
X131774379Y-68964285D01*
X131774379Y-68964285D02*
X131869617Y-69011904D01*
X131869617Y-69011904D02*
X131964856Y-69107142D01*
X131964856Y-69107142D02*
X132012475Y-69249999D01*
X132012475Y-69249999D02*
X132012475Y-69488094D01*
X131917236Y-67916666D02*
X131964856Y-67964285D01*
X131964856Y-67964285D02*
X132012475Y-68107142D01*
X132012475Y-68107142D02*
X132012475Y-68202380D01*
X132012475Y-68202380D02*
X131964856Y-68345237D01*
X131964856Y-68345237D02*
X131869617Y-68440475D01*
X131869617Y-68440475D02*
X131774379Y-68488094D01*
X131774379Y-68488094D02*
X131583903Y-68535713D01*
X131583903Y-68535713D02*
X131441046Y-68535713D01*
X131441046Y-68535713D02*
X131250570Y-68488094D01*
X131250570Y-68488094D02*
X131155332Y-68440475D01*
X131155332Y-68440475D02*
X131060094Y-68345237D01*
X131060094Y-68345237D02*
X131012475Y-68202380D01*
X131012475Y-68202380D02*
X131012475Y-68107142D01*
X131012475Y-68107142D02*
X131060094Y-67964285D01*
X131060094Y-67964285D02*
X131107713Y-67916666D01*
X131917236Y-66154761D02*
X131964856Y-66202380D01*
X131964856Y-66202380D02*
X132012475Y-66345237D01*
X132012475Y-66345237D02*
X132012475Y-66440475D01*
X132012475Y-66440475D02*
X131964856Y-66583332D01*
X131964856Y-66583332D02*
X131869617Y-66678570D01*
X131869617Y-66678570D02*
X131774379Y-66726189D01*
X131774379Y-66726189D02*
X131583903Y-66773808D01*
X131583903Y-66773808D02*
X131441046Y-66773808D01*
X131441046Y-66773808D02*
X131250570Y-66726189D01*
X131250570Y-66726189D02*
X131155332Y-66678570D01*
X131155332Y-66678570D02*
X131060094Y-66583332D01*
X131060094Y-66583332D02*
X131012475Y-66440475D01*
X131012475Y-66440475D02*
X131012475Y-66345237D01*
X131012475Y-66345237D02*
X131060094Y-66202380D01*
X131060094Y-66202380D02*
X131107713Y-66154761D01*
X132012475Y-65583332D02*
X131964856Y-65678570D01*
X131964856Y-65678570D02*
X131917236Y-65726189D01*
X131917236Y-65726189D02*
X131821998Y-65773808D01*
X131821998Y-65773808D02*
X131536284Y-65773808D01*
X131536284Y-65773808D02*
X131441046Y-65726189D01*
X131441046Y-65726189D02*
X131393427Y-65678570D01*
X131393427Y-65678570D02*
X131345808Y-65583332D01*
X131345808Y-65583332D02*
X131345808Y-65440475D01*
X131345808Y-65440475D02*
X131393427Y-65345237D01*
X131393427Y-65345237D02*
X131441046Y-65297618D01*
X131441046Y-65297618D02*
X131536284Y-65249999D01*
X131536284Y-65249999D02*
X131821998Y-65249999D01*
X131821998Y-65249999D02*
X131917236Y-65297618D01*
X131917236Y-65297618D02*
X131964856Y-65345237D01*
X131964856Y-65345237D02*
X132012475Y-65440475D01*
X132012475Y-65440475D02*
X132012475Y-65583332D01*
X131345808Y-64821427D02*
X132012475Y-64821427D01*
X131441046Y-64821427D02*
X131393427Y-64773808D01*
X131393427Y-64773808D02*
X131345808Y-64678570D01*
X131345808Y-64678570D02*
X131345808Y-64535713D01*
X131345808Y-64535713D02*
X131393427Y-64440475D01*
X131393427Y-64440475D02*
X131488665Y-64392856D01*
X131488665Y-64392856D02*
X132012475Y-64392856D01*
X131345808Y-64059522D02*
X131345808Y-63678570D01*
X131012475Y-63916665D02*
X131869617Y-63916665D01*
X131869617Y-63916665D02*
X131964856Y-63869046D01*
X131964856Y-63869046D02*
X132012475Y-63773808D01*
X132012475Y-63773808D02*
X132012475Y-63678570D01*
X132012475Y-63345236D02*
X131345808Y-63345236D01*
X131536284Y-63345236D02*
X131441046Y-63297617D01*
X131441046Y-63297617D02*
X131393427Y-63249998D01*
X131393427Y-63249998D02*
X131345808Y-63154760D01*
X131345808Y-63154760D02*
X131345808Y-63059522D01*
X132012475Y-62583331D02*
X131964856Y-62678569D01*
X131964856Y-62678569D02*
X131917236Y-62726188D01*
X131917236Y-62726188D02*
X131821998Y-62773807D01*
X131821998Y-62773807D02*
X131536284Y-62773807D01*
X131536284Y-62773807D02*
X131441046Y-62726188D01*
X131441046Y-62726188D02*
X131393427Y-62678569D01*
X131393427Y-62678569D02*
X131345808Y-62583331D01*
X131345808Y-62583331D02*
X131345808Y-62440474D01*
X131345808Y-62440474D02*
X131393427Y-62345236D01*
X131393427Y-62345236D02*
X131441046Y-62297617D01*
X131441046Y-62297617D02*
X131536284Y-62249998D01*
X131536284Y-62249998D02*
X131821998Y-62249998D01*
X131821998Y-62249998D02*
X131917236Y-62297617D01*
X131917236Y-62297617D02*
X131964856Y-62345236D01*
X131964856Y-62345236D02*
X132012475Y-62440474D01*
X132012475Y-62440474D02*
X132012475Y-62583331D01*
X132012475Y-61678569D02*
X131964856Y-61773807D01*
X131964856Y-61773807D02*
X131869617Y-61821426D01*
X131869617Y-61821426D02*
X131012475Y-61821426D01*
X133098609Y-83440478D02*
X133146228Y-83297621D01*
X133146228Y-83297621D02*
X133193847Y-83250002D01*
X133193847Y-83250002D02*
X133289085Y-83202383D01*
X133289085Y-83202383D02*
X133431942Y-83202383D01*
X133431942Y-83202383D02*
X133527180Y-83250002D01*
X133527180Y-83250002D02*
X133574800Y-83297621D01*
X133574800Y-83297621D02*
X133622419Y-83392859D01*
X133622419Y-83392859D02*
X133622419Y-83773811D01*
X133622419Y-83773811D02*
X132622419Y-83773811D01*
X132622419Y-83773811D02*
X132622419Y-83440478D01*
X132622419Y-83440478D02*
X132670038Y-83345240D01*
X132670038Y-83345240D02*
X132717657Y-83297621D01*
X132717657Y-83297621D02*
X132812895Y-83250002D01*
X132812895Y-83250002D02*
X132908133Y-83250002D01*
X132908133Y-83250002D02*
X133003371Y-83297621D01*
X133003371Y-83297621D02*
X133050990Y-83345240D01*
X133050990Y-83345240D02*
X133098609Y-83440478D01*
X133098609Y-83440478D02*
X133098609Y-83773811D01*
X133622419Y-82345240D02*
X133098609Y-82345240D01*
X133098609Y-82345240D02*
X133003371Y-82392859D01*
X133003371Y-82392859D02*
X132955752Y-82488097D01*
X132955752Y-82488097D02*
X132955752Y-82678573D01*
X132955752Y-82678573D02*
X133003371Y-82773811D01*
X133574800Y-82345240D02*
X133622419Y-82440478D01*
X133622419Y-82440478D02*
X133622419Y-82678573D01*
X133622419Y-82678573D02*
X133574800Y-82773811D01*
X133574800Y-82773811D02*
X133479561Y-82821430D01*
X133479561Y-82821430D02*
X133384323Y-82821430D01*
X133384323Y-82821430D02*
X133289085Y-82773811D01*
X133289085Y-82773811D02*
X133241466Y-82678573D01*
X133241466Y-82678573D02*
X133241466Y-82440478D01*
X133241466Y-82440478D02*
X133193847Y-82345240D01*
X133574800Y-81440478D02*
X133622419Y-81535716D01*
X133622419Y-81535716D02*
X133622419Y-81726192D01*
X133622419Y-81726192D02*
X133574800Y-81821430D01*
X133574800Y-81821430D02*
X133527180Y-81869049D01*
X133527180Y-81869049D02*
X133431942Y-81916668D01*
X133431942Y-81916668D02*
X133146228Y-81916668D01*
X133146228Y-81916668D02*
X133050990Y-81869049D01*
X133050990Y-81869049D02*
X133003371Y-81821430D01*
X133003371Y-81821430D02*
X132955752Y-81726192D01*
X132955752Y-81726192D02*
X132955752Y-81535716D01*
X132955752Y-81535716D02*
X133003371Y-81440478D01*
X133622419Y-81011906D02*
X132622419Y-81011906D01*
X133241466Y-80916668D02*
X133622419Y-80630954D01*
X132955752Y-80630954D02*
X133336704Y-81011906D01*
X133622419Y-79297620D02*
X133574800Y-79392858D01*
X133574800Y-79392858D02*
X133479561Y-79440477D01*
X133479561Y-79440477D02*
X132622419Y-79440477D01*
X133574800Y-78535715D02*
X133622419Y-78630953D01*
X133622419Y-78630953D02*
X133622419Y-78821429D01*
X133622419Y-78821429D02*
X133574800Y-78916667D01*
X133574800Y-78916667D02*
X133479561Y-78964286D01*
X133479561Y-78964286D02*
X133098609Y-78964286D01*
X133098609Y-78964286D02*
X133003371Y-78916667D01*
X133003371Y-78916667D02*
X132955752Y-78821429D01*
X132955752Y-78821429D02*
X132955752Y-78630953D01*
X132955752Y-78630953D02*
X133003371Y-78535715D01*
X133003371Y-78535715D02*
X133098609Y-78488096D01*
X133098609Y-78488096D02*
X133193847Y-78488096D01*
X133193847Y-78488096D02*
X133289085Y-78964286D01*
X132955752Y-78202381D02*
X132955752Y-77821429D01*
X133622419Y-78059524D02*
X132765276Y-78059524D01*
X132765276Y-78059524D02*
X132670038Y-78011905D01*
X132670038Y-78011905D02*
X132622419Y-77916667D01*
X132622419Y-77916667D02*
X132622419Y-77821429D01*
X132955752Y-77630952D02*
X132955752Y-77250000D01*
X132622419Y-77488095D02*
X133479561Y-77488095D01*
X133479561Y-77488095D02*
X133574800Y-77440476D01*
X133574800Y-77440476D02*
X133622419Y-77345238D01*
X133622419Y-77345238D02*
X133622419Y-77250000D01*
X132574800Y-75440476D02*
X133860514Y-76297618D01*
X133098609Y-74011904D02*
X133098609Y-74345237D01*
X133622419Y-74345237D02*
X132622419Y-74345237D01*
X132622419Y-74345237D02*
X132622419Y-73869047D01*
X133622419Y-73488094D02*
X132955752Y-73488094D01*
X133146228Y-73488094D02*
X133050990Y-73440475D01*
X133050990Y-73440475D02*
X133003371Y-73392856D01*
X133003371Y-73392856D02*
X132955752Y-73297618D01*
X132955752Y-73297618D02*
X132955752Y-73202380D01*
X133622419Y-72726189D02*
X133574800Y-72821427D01*
X133574800Y-72821427D02*
X133527180Y-72869046D01*
X133527180Y-72869046D02*
X133431942Y-72916665D01*
X133431942Y-72916665D02*
X133146228Y-72916665D01*
X133146228Y-72916665D02*
X133050990Y-72869046D01*
X133050990Y-72869046D02*
X133003371Y-72821427D01*
X133003371Y-72821427D02*
X132955752Y-72726189D01*
X132955752Y-72726189D02*
X132955752Y-72583332D01*
X132955752Y-72583332D02*
X133003371Y-72488094D01*
X133003371Y-72488094D02*
X133050990Y-72440475D01*
X133050990Y-72440475D02*
X133146228Y-72392856D01*
X133146228Y-72392856D02*
X133431942Y-72392856D01*
X133431942Y-72392856D02*
X133527180Y-72440475D01*
X133527180Y-72440475D02*
X133574800Y-72488094D01*
X133574800Y-72488094D02*
X133622419Y-72583332D01*
X133622419Y-72583332D02*
X133622419Y-72726189D01*
X132955752Y-71964284D02*
X133622419Y-71964284D01*
X133050990Y-71964284D02*
X133003371Y-71916665D01*
X133003371Y-71916665D02*
X132955752Y-71821427D01*
X132955752Y-71821427D02*
X132955752Y-71678570D01*
X132955752Y-71678570D02*
X133003371Y-71583332D01*
X133003371Y-71583332D02*
X133098609Y-71535713D01*
X133098609Y-71535713D02*
X133622419Y-71535713D01*
X132955752Y-71202379D02*
X132955752Y-70821427D01*
X132622419Y-71059522D02*
X133479561Y-71059522D01*
X133479561Y-71059522D02*
X133574800Y-71011903D01*
X133574800Y-71011903D02*
X133622419Y-70916665D01*
X133622419Y-70916665D02*
X133622419Y-70821427D01*
X133622419Y-69726188D02*
X132955752Y-69726188D01*
X133146228Y-69726188D02*
X133050990Y-69678569D01*
X133050990Y-69678569D02*
X133003371Y-69630950D01*
X133003371Y-69630950D02*
X132955752Y-69535712D01*
X132955752Y-69535712D02*
X132955752Y-69440474D01*
X133622419Y-69107140D02*
X132955752Y-69107140D01*
X132622419Y-69107140D02*
X132670038Y-69154759D01*
X132670038Y-69154759D02*
X132717657Y-69107140D01*
X132717657Y-69107140D02*
X132670038Y-69059521D01*
X132670038Y-69059521D02*
X132622419Y-69107140D01*
X132622419Y-69107140D02*
X132717657Y-69107140D01*
X132955752Y-68202379D02*
X133765276Y-68202379D01*
X133765276Y-68202379D02*
X133860514Y-68249998D01*
X133860514Y-68249998D02*
X133908133Y-68297617D01*
X133908133Y-68297617D02*
X133955752Y-68392855D01*
X133955752Y-68392855D02*
X133955752Y-68535712D01*
X133955752Y-68535712D02*
X133908133Y-68630950D01*
X133574800Y-68202379D02*
X133622419Y-68297617D01*
X133622419Y-68297617D02*
X133622419Y-68488093D01*
X133622419Y-68488093D02*
X133574800Y-68583331D01*
X133574800Y-68583331D02*
X133527180Y-68630950D01*
X133527180Y-68630950D02*
X133431942Y-68678569D01*
X133431942Y-68678569D02*
X133146228Y-68678569D01*
X133146228Y-68678569D02*
X133050990Y-68630950D01*
X133050990Y-68630950D02*
X133003371Y-68583331D01*
X133003371Y-68583331D02*
X132955752Y-68488093D01*
X132955752Y-68488093D02*
X132955752Y-68297617D01*
X132955752Y-68297617D02*
X133003371Y-68202379D01*
X133622419Y-67726188D02*
X132622419Y-67726188D01*
X133622419Y-67297617D02*
X133098609Y-67297617D01*
X133098609Y-67297617D02*
X133003371Y-67345236D01*
X133003371Y-67345236D02*
X132955752Y-67440474D01*
X132955752Y-67440474D02*
X132955752Y-67583331D01*
X132955752Y-67583331D02*
X133003371Y-67678569D01*
X133003371Y-67678569D02*
X133050990Y-67726188D01*
X132955752Y-66964283D02*
X132955752Y-66583331D01*
X132622419Y-66821426D02*
X133479561Y-66821426D01*
X133479561Y-66821426D02*
X133574800Y-66773807D01*
X133574800Y-66773807D02*
X133622419Y-66678569D01*
X133622419Y-66678569D02*
X133622419Y-66583331D01*
D12*
X137583333Y-65454819D02*
X137250000Y-64978628D01*
X137011905Y-65454819D02*
X137011905Y-64454819D01*
X137011905Y-64454819D02*
X137392857Y-64454819D01*
X137392857Y-64454819D02*
X137488095Y-64502438D01*
X137488095Y-64502438D02*
X137535714Y-64550057D01*
X137535714Y-64550057D02*
X137583333Y-64645295D01*
X137583333Y-64645295D02*
X137583333Y-64788152D01*
X137583333Y-64788152D02*
X137535714Y-64883390D01*
X137535714Y-64883390D02*
X137488095Y-64931009D01*
X137488095Y-64931009D02*
X137392857Y-64978628D01*
X137392857Y-64978628D02*
X137011905Y-64978628D01*
X137964286Y-64550057D02*
X138011905Y-64502438D01*
X138011905Y-64502438D02*
X138107143Y-64454819D01*
X138107143Y-64454819D02*
X138345238Y-64454819D01*
X138345238Y-64454819D02*
X138440476Y-64502438D01*
X138440476Y-64502438D02*
X138488095Y-64550057D01*
X138488095Y-64550057D02*
X138535714Y-64645295D01*
X138535714Y-64645295D02*
X138535714Y-64740533D01*
X138535714Y-64740533D02*
X138488095Y-64883390D01*
X138488095Y-64883390D02*
X137916667Y-65454819D01*
X137916667Y-65454819D02*
X138535714Y-65454819D01*
X179464700Y-111471428D02*
X179464700Y-110328571D01*
X180036128Y-110899999D02*
X178893271Y-110899999D01*
X179464700Y-99171428D02*
X179464700Y-98028571D01*
X125833333Y-94104819D02*
X125500000Y-93628628D01*
X125261905Y-94104819D02*
X125261905Y-93104819D01*
X125261905Y-93104819D02*
X125642857Y-93104819D01*
X125642857Y-93104819D02*
X125738095Y-93152438D01*
X125738095Y-93152438D02*
X125785714Y-93200057D01*
X125785714Y-93200057D02*
X125833333Y-93295295D01*
X125833333Y-93295295D02*
X125833333Y-93438152D01*
X125833333Y-93438152D02*
X125785714Y-93533390D01*
X125785714Y-93533390D02*
X125738095Y-93581009D01*
X125738095Y-93581009D02*
X125642857Y-93628628D01*
X125642857Y-93628628D02*
X125261905Y-93628628D01*
X126166667Y-93104819D02*
X126785714Y-93104819D01*
X126785714Y-93104819D02*
X126452381Y-93485771D01*
X126452381Y-93485771D02*
X126595238Y-93485771D01*
X126595238Y-93485771D02*
X126690476Y-93533390D01*
X126690476Y-93533390D02*
X126738095Y-93581009D01*
X126738095Y-93581009D02*
X126785714Y-93676247D01*
X126785714Y-93676247D02*
X126785714Y-93914342D01*
X126785714Y-93914342D02*
X126738095Y-94009580D01*
X126738095Y-94009580D02*
X126690476Y-94057200D01*
X126690476Y-94057200D02*
X126595238Y-94104819D01*
X126595238Y-94104819D02*
X126309524Y-94104819D01*
X126309524Y-94104819D02*
X126214286Y-94057200D01*
X126214286Y-94057200D02*
X126166667Y-94009580D01*
X174954819Y-69738094D02*
X173954819Y-69738094D01*
X173954819Y-69738094D02*
X173954819Y-69499999D01*
X173954819Y-69499999D02*
X174002438Y-69357142D01*
X174002438Y-69357142D02*
X174097676Y-69261904D01*
X174097676Y-69261904D02*
X174192914Y-69214285D01*
X174192914Y-69214285D02*
X174383390Y-69166666D01*
X174383390Y-69166666D02*
X174526247Y-69166666D01*
X174526247Y-69166666D02*
X174716723Y-69214285D01*
X174716723Y-69214285D02*
X174811961Y-69261904D01*
X174811961Y-69261904D02*
X174907200Y-69357142D01*
X174907200Y-69357142D02*
X174954819Y-69499999D01*
X174954819Y-69499999D02*
X174954819Y-69738094D01*
X173954819Y-68833332D02*
X173954819Y-68214285D01*
X173954819Y-68214285D02*
X174335771Y-68547618D01*
X174335771Y-68547618D02*
X174335771Y-68404761D01*
X174335771Y-68404761D02*
X174383390Y-68309523D01*
X174383390Y-68309523D02*
X174431009Y-68261904D01*
X174431009Y-68261904D02*
X174526247Y-68214285D01*
X174526247Y-68214285D02*
X174764342Y-68214285D01*
X174764342Y-68214285D02*
X174859580Y-68261904D01*
X174859580Y-68261904D02*
X174907200Y-68309523D01*
X174907200Y-68309523D02*
X174954819Y-68404761D01*
X174954819Y-68404761D02*
X174954819Y-68690475D01*
X174954819Y-68690475D02*
X174907200Y-68785713D01*
X174907200Y-68785713D02*
X174859580Y-68833332D01*
X142833333Y-106359580D02*
X142785714Y-106407200D01*
X142785714Y-106407200D02*
X142642857Y-106454819D01*
X142642857Y-106454819D02*
X142547619Y-106454819D01*
X142547619Y-106454819D02*
X142404762Y-106407200D01*
X142404762Y-106407200D02*
X142309524Y-106311961D01*
X142309524Y-106311961D02*
X142261905Y-106216723D01*
X142261905Y-106216723D02*
X142214286Y-106026247D01*
X142214286Y-106026247D02*
X142214286Y-105883390D01*
X142214286Y-105883390D02*
X142261905Y-105692914D01*
X142261905Y-105692914D02*
X142309524Y-105597676D01*
X142309524Y-105597676D02*
X142404762Y-105502438D01*
X142404762Y-105502438D02*
X142547619Y-105454819D01*
X142547619Y-105454819D02*
X142642857Y-105454819D01*
X142642857Y-105454819D02*
X142785714Y-105502438D01*
X142785714Y-105502438D02*
X142833333Y-105550057D01*
X143785714Y-106454819D02*
X143214286Y-106454819D01*
X143500000Y-106454819D02*
X143500000Y-105454819D01*
X143500000Y-105454819D02*
X143404762Y-105597676D01*
X143404762Y-105597676D02*
X143309524Y-105692914D01*
X143309524Y-105692914D02*
X143214286Y-105740533D01*
X130261905Y-94204819D02*
X130261905Y-93204819D01*
X130261905Y-93204819D02*
X130500000Y-93204819D01*
X130500000Y-93204819D02*
X130642857Y-93252438D01*
X130642857Y-93252438D02*
X130738095Y-93347676D01*
X130738095Y-93347676D02*
X130785714Y-93442914D01*
X130785714Y-93442914D02*
X130833333Y-93633390D01*
X130833333Y-93633390D02*
X130833333Y-93776247D01*
X130833333Y-93776247D02*
X130785714Y-93966723D01*
X130785714Y-93966723D02*
X130738095Y-94061961D01*
X130738095Y-94061961D02*
X130642857Y-94157200D01*
X130642857Y-94157200D02*
X130500000Y-94204819D01*
X130500000Y-94204819D02*
X130261905Y-94204819D01*
X131785714Y-94204819D02*
X131214286Y-94204819D01*
X131500000Y-94204819D02*
X131500000Y-93204819D01*
X131500000Y-93204819D02*
X131404762Y-93347676D01*
X131404762Y-93347676D02*
X131309524Y-93442914D01*
X131309524Y-93442914D02*
X131214286Y-93490533D01*
X178804819Y-64166666D02*
X178328628Y-64499999D01*
X178804819Y-64738094D02*
X177804819Y-64738094D01*
X177804819Y-64738094D02*
X177804819Y-64357142D01*
X177804819Y-64357142D02*
X177852438Y-64261904D01*
X177852438Y-64261904D02*
X177900057Y-64214285D01*
X177900057Y-64214285D02*
X177995295Y-64166666D01*
X177995295Y-64166666D02*
X178138152Y-64166666D01*
X178138152Y-64166666D02*
X178233390Y-64214285D01*
X178233390Y-64214285D02*
X178281009Y-64261904D01*
X178281009Y-64261904D02*
X178328628Y-64357142D01*
X178328628Y-64357142D02*
X178328628Y-64738094D01*
X178138152Y-63309523D02*
X178804819Y-63309523D01*
X177757200Y-63547618D02*
X178471485Y-63785713D01*
X178471485Y-63785713D02*
X178471485Y-63166666D01*
X162604819Y-85166666D02*
X162128628Y-85499999D01*
X162604819Y-85738094D02*
X161604819Y-85738094D01*
X161604819Y-85738094D02*
X161604819Y-85357142D01*
X161604819Y-85357142D02*
X161652438Y-85261904D01*
X161652438Y-85261904D02*
X161700057Y-85214285D01*
X161700057Y-85214285D02*
X161795295Y-85166666D01*
X161795295Y-85166666D02*
X161938152Y-85166666D01*
X161938152Y-85166666D02*
X162033390Y-85214285D01*
X162033390Y-85214285D02*
X162081009Y-85261904D01*
X162081009Y-85261904D02*
X162128628Y-85357142D01*
X162128628Y-85357142D02*
X162128628Y-85738094D01*
X162604819Y-84214285D02*
X162604819Y-84785713D01*
X162604819Y-84499999D02*
X161604819Y-84499999D01*
X161604819Y-84499999D02*
X161747676Y-84595237D01*
X161747676Y-84595237D02*
X161842914Y-84690475D01*
X161842914Y-84690475D02*
X161890533Y-84785713D01*
X171204819Y-69738094D02*
X170204819Y-69738094D01*
X170204819Y-69738094D02*
X170204819Y-69499999D01*
X170204819Y-69499999D02*
X170252438Y-69357142D01*
X170252438Y-69357142D02*
X170347676Y-69261904D01*
X170347676Y-69261904D02*
X170442914Y-69214285D01*
X170442914Y-69214285D02*
X170633390Y-69166666D01*
X170633390Y-69166666D02*
X170776247Y-69166666D01*
X170776247Y-69166666D02*
X170966723Y-69214285D01*
X170966723Y-69214285D02*
X171061961Y-69261904D01*
X171061961Y-69261904D02*
X171157200Y-69357142D01*
X171157200Y-69357142D02*
X171204819Y-69499999D01*
X171204819Y-69499999D02*
X171204819Y-69738094D01*
X170538152Y-68309523D02*
X171204819Y-68309523D01*
X170157200Y-68547618D02*
X170871485Y-68785713D01*
X170871485Y-68785713D02*
X170871485Y-68166666D01*
X166833333Y-117359580D02*
X166785714Y-117407200D01*
X166785714Y-117407200D02*
X166642857Y-117454819D01*
X166642857Y-117454819D02*
X166547619Y-117454819D01*
X166547619Y-117454819D02*
X166404762Y-117407200D01*
X166404762Y-117407200D02*
X166309524Y-117311961D01*
X166309524Y-117311961D02*
X166261905Y-117216723D01*
X166261905Y-117216723D02*
X166214286Y-117026247D01*
X166214286Y-117026247D02*
X166214286Y-116883390D01*
X166214286Y-116883390D02*
X166261905Y-116692914D01*
X166261905Y-116692914D02*
X166309524Y-116597676D01*
X166309524Y-116597676D02*
X166404762Y-116502438D01*
X166404762Y-116502438D02*
X166547619Y-116454819D01*
X166547619Y-116454819D02*
X166642857Y-116454819D01*
X166642857Y-116454819D02*
X166785714Y-116502438D01*
X166785714Y-116502438D02*
X166833333Y-116550057D01*
X167690476Y-116788152D02*
X167690476Y-117454819D01*
X167452381Y-116407200D02*
X167214286Y-117121485D01*
X167214286Y-117121485D02*
X167833333Y-117121485D01*
X130764700Y-99671428D02*
X130764700Y-98528571D01*
X131336128Y-99099999D02*
X130193271Y-99099999D01*
X130764700Y-111971428D02*
X130764700Y-110828571D01*
X142833333Y-117359580D02*
X142785714Y-117407200D01*
X142785714Y-117407200D02*
X142642857Y-117454819D01*
X142642857Y-117454819D02*
X142547619Y-117454819D01*
X142547619Y-117454819D02*
X142404762Y-117407200D01*
X142404762Y-117407200D02*
X142309524Y-117311961D01*
X142309524Y-117311961D02*
X142261905Y-117216723D01*
X142261905Y-117216723D02*
X142214286Y-117026247D01*
X142214286Y-117026247D02*
X142214286Y-116883390D01*
X142214286Y-116883390D02*
X142261905Y-116692914D01*
X142261905Y-116692914D02*
X142309524Y-116597676D01*
X142309524Y-116597676D02*
X142404762Y-116502438D01*
X142404762Y-116502438D02*
X142547619Y-116454819D01*
X142547619Y-116454819D02*
X142642857Y-116454819D01*
X142642857Y-116454819D02*
X142785714Y-116502438D01*
X142785714Y-116502438D02*
X142833333Y-116550057D01*
X143214286Y-116550057D02*
X143261905Y-116502438D01*
X143261905Y-116502438D02*
X143357143Y-116454819D01*
X143357143Y-116454819D02*
X143595238Y-116454819D01*
X143595238Y-116454819D02*
X143690476Y-116502438D01*
X143690476Y-116502438D02*
X143738095Y-116550057D01*
X143738095Y-116550057D02*
X143785714Y-116645295D01*
X143785714Y-116645295D02*
X143785714Y-116740533D01*
X143785714Y-116740533D02*
X143738095Y-116883390D01*
X143738095Y-116883390D02*
X143166667Y-117454819D01*
X143166667Y-117454819D02*
X143785714Y-117454819D01*
X171304819Y-64166666D02*
X170828628Y-64499999D01*
X171304819Y-64738094D02*
X170304819Y-64738094D01*
X170304819Y-64738094D02*
X170304819Y-64357142D01*
X170304819Y-64357142D02*
X170352438Y-64261904D01*
X170352438Y-64261904D02*
X170400057Y-64214285D01*
X170400057Y-64214285D02*
X170495295Y-64166666D01*
X170495295Y-64166666D02*
X170638152Y-64166666D01*
X170638152Y-64166666D02*
X170733390Y-64214285D01*
X170733390Y-64214285D02*
X170781009Y-64261904D01*
X170781009Y-64261904D02*
X170828628Y-64357142D01*
X170828628Y-64357142D02*
X170828628Y-64738094D01*
X170304819Y-63261904D02*
X170304819Y-63738094D01*
X170304819Y-63738094D02*
X170781009Y-63785713D01*
X170781009Y-63785713D02*
X170733390Y-63738094D01*
X170733390Y-63738094D02*
X170685771Y-63642856D01*
X170685771Y-63642856D02*
X170685771Y-63404761D01*
X170685771Y-63404761D02*
X170733390Y-63309523D01*
X170733390Y-63309523D02*
X170781009Y-63261904D01*
X170781009Y-63261904D02*
X170876247Y-63214285D01*
X170876247Y-63214285D02*
X171114342Y-63214285D01*
X171114342Y-63214285D02*
X171209580Y-63261904D01*
X171209580Y-63261904D02*
X171257200Y-63309523D01*
X171257200Y-63309523D02*
X171304819Y-63404761D01*
X171304819Y-63404761D02*
X171304819Y-63642856D01*
X171304819Y-63642856D02*
X171257200Y-63738094D01*
X171257200Y-63738094D02*
X171209580Y-63785713D01*
X175054819Y-64166666D02*
X174578628Y-64499999D01*
X175054819Y-64738094D02*
X174054819Y-64738094D01*
X174054819Y-64738094D02*
X174054819Y-64357142D01*
X174054819Y-64357142D02*
X174102438Y-64261904D01*
X174102438Y-64261904D02*
X174150057Y-64214285D01*
X174150057Y-64214285D02*
X174245295Y-64166666D01*
X174245295Y-64166666D02*
X174388152Y-64166666D01*
X174388152Y-64166666D02*
X174483390Y-64214285D01*
X174483390Y-64214285D02*
X174531009Y-64261904D01*
X174531009Y-64261904D02*
X174578628Y-64357142D01*
X174578628Y-64357142D02*
X174578628Y-64738094D01*
X174054819Y-63309523D02*
X174054819Y-63499999D01*
X174054819Y-63499999D02*
X174102438Y-63595237D01*
X174102438Y-63595237D02*
X174150057Y-63642856D01*
X174150057Y-63642856D02*
X174292914Y-63738094D01*
X174292914Y-63738094D02*
X174483390Y-63785713D01*
X174483390Y-63785713D02*
X174864342Y-63785713D01*
X174864342Y-63785713D02*
X174959580Y-63738094D01*
X174959580Y-63738094D02*
X175007200Y-63690475D01*
X175007200Y-63690475D02*
X175054819Y-63595237D01*
X175054819Y-63595237D02*
X175054819Y-63404761D01*
X175054819Y-63404761D02*
X175007200Y-63309523D01*
X175007200Y-63309523D02*
X174959580Y-63261904D01*
X174959580Y-63261904D02*
X174864342Y-63214285D01*
X174864342Y-63214285D02*
X174626247Y-63214285D01*
X174626247Y-63214285D02*
X174531009Y-63261904D01*
X174531009Y-63261904D02*
X174483390Y-63309523D01*
X174483390Y-63309523D02*
X174435771Y-63404761D01*
X174435771Y-63404761D02*
X174435771Y-63595237D01*
X174435771Y-63595237D02*
X174483390Y-63690475D01*
X174483390Y-63690475D02*
X174531009Y-63738094D01*
X174531009Y-63738094D02*
X174626247Y-63785713D01*
X178704819Y-69738094D02*
X177704819Y-69738094D01*
X177704819Y-69738094D02*
X177704819Y-69499999D01*
X177704819Y-69499999D02*
X177752438Y-69357142D01*
X177752438Y-69357142D02*
X177847676Y-69261904D01*
X177847676Y-69261904D02*
X177942914Y-69214285D01*
X177942914Y-69214285D02*
X178133390Y-69166666D01*
X178133390Y-69166666D02*
X178276247Y-69166666D01*
X178276247Y-69166666D02*
X178466723Y-69214285D01*
X178466723Y-69214285D02*
X178561961Y-69261904D01*
X178561961Y-69261904D02*
X178657200Y-69357142D01*
X178657200Y-69357142D02*
X178704819Y-69499999D01*
X178704819Y-69499999D02*
X178704819Y-69738094D01*
X177800057Y-68785713D02*
X177752438Y-68738094D01*
X177752438Y-68738094D02*
X177704819Y-68642856D01*
X177704819Y-68642856D02*
X177704819Y-68404761D01*
X177704819Y-68404761D02*
X177752438Y-68309523D01*
X177752438Y-68309523D02*
X177800057Y-68261904D01*
X177800057Y-68261904D02*
X177895295Y-68214285D01*
X177895295Y-68214285D02*
X177990533Y-68214285D01*
X177990533Y-68214285D02*
X178133390Y-68261904D01*
X178133390Y-68261904D02*
X178704819Y-68833332D01*
X178704819Y-68833332D02*
X178704819Y-68214285D01*
X166833333Y-106359580D02*
X166785714Y-106407200D01*
X166785714Y-106407200D02*
X166642857Y-106454819D01*
X166642857Y-106454819D02*
X166547619Y-106454819D01*
X166547619Y-106454819D02*
X166404762Y-106407200D01*
X166404762Y-106407200D02*
X166309524Y-106311961D01*
X166309524Y-106311961D02*
X166261905Y-106216723D01*
X166261905Y-106216723D02*
X166214286Y-106026247D01*
X166214286Y-106026247D02*
X166214286Y-105883390D01*
X166214286Y-105883390D02*
X166261905Y-105692914D01*
X166261905Y-105692914D02*
X166309524Y-105597676D01*
X166309524Y-105597676D02*
X166404762Y-105502438D01*
X166404762Y-105502438D02*
X166547619Y-105454819D01*
X166547619Y-105454819D02*
X166642857Y-105454819D01*
X166642857Y-105454819D02*
X166785714Y-105502438D01*
X166785714Y-105502438D02*
X166833333Y-105550057D01*
X167166667Y-105454819D02*
X167785714Y-105454819D01*
X167785714Y-105454819D02*
X167452381Y-105835771D01*
X167452381Y-105835771D02*
X167595238Y-105835771D01*
X167595238Y-105835771D02*
X167690476Y-105883390D01*
X167690476Y-105883390D02*
X167738095Y-105931009D01*
X167738095Y-105931009D02*
X167785714Y-106026247D01*
X167785714Y-106026247D02*
X167785714Y-106264342D01*
X167785714Y-106264342D02*
X167738095Y-106359580D01*
X167738095Y-106359580D02*
X167690476Y-106407200D01*
X167690476Y-106407200D02*
X167595238Y-106454819D01*
X167595238Y-106454819D02*
X167309524Y-106454819D01*
X167309524Y-106454819D02*
X167214286Y-106407200D01*
X167214286Y-106407200D02*
X167166667Y-106359580D01*
D13*
%TO.C,R2*%
X140977064Y-64265000D02*
X140522936Y-64265000D01*
X140977064Y-65735000D02*
X140522936Y-65735000D01*
%TO.C,J2*%
X179890000Y-103710000D02*
X179890000Y-107450000D01*
X198310000Y-97140000D02*
X184000000Y-97140000D01*
X198310000Y-97140000D02*
X198310000Y-112860000D01*
X198310000Y-112860000D02*
X184000000Y-112860000D01*
X180477042Y-99133194D02*
G75*
G02*
X184000000Y-97140000I3522957J-2116805D01*
G01*
X184000000Y-112860000D02*
G75*
G02*
X180069587Y-109951648I0J4110000D01*
G01*
%TO.C,R3*%
X126227064Y-91265000D02*
X125772936Y-91265000D01*
X126227064Y-92735000D02*
X125772936Y-92735000D01*
%TO.C,D3*%
X175290000Y-67140000D02*
X175290000Y-70000000D01*
X177210000Y-67140000D02*
X175290000Y-67140000D01*
X177210000Y-70000000D02*
X177210000Y-67140000D01*
%TO.C,C1*%
X131270354Y-103125000D02*
X132270354Y-103125000D01*
X131770354Y-102625000D02*
X131770354Y-103625000D01*
X136750000Y-100920000D02*
X136750000Y-111080000D01*
X136790000Y-100920000D02*
X136790000Y-111080000D01*
X136830000Y-100921000D02*
X136830000Y-111079000D01*
X136870000Y-100921000D02*
X136870000Y-111079000D01*
X136910000Y-100923000D02*
X136910000Y-111077000D01*
X136950000Y-100924000D02*
X136950000Y-111076000D01*
X136990000Y-100926000D02*
X136990000Y-104960000D01*
X136990000Y-107040000D02*
X136990000Y-111074000D01*
X137030000Y-100928000D02*
X137030000Y-104960000D01*
X137030000Y-107040000D02*
X137030000Y-111072000D01*
X137070000Y-100930000D02*
X137070000Y-104960000D01*
X137070000Y-107040000D02*
X137070000Y-111070000D01*
X137110000Y-100933000D02*
X137110000Y-104960000D01*
X137110000Y-107040000D02*
X137110000Y-111067000D01*
X137150000Y-100936000D02*
X137150000Y-104960000D01*
X137150000Y-107040000D02*
X137150000Y-111064000D01*
X137190000Y-100939000D02*
X137190000Y-104960000D01*
X137190000Y-107040000D02*
X137190000Y-111061000D01*
X137230000Y-100943000D02*
X137230000Y-104960000D01*
X137230000Y-107040000D02*
X137230000Y-111057000D01*
X137270000Y-100946000D02*
X137270000Y-104960000D01*
X137270000Y-107040000D02*
X137270000Y-111054000D01*
X137310000Y-100951000D02*
X137310000Y-104960000D01*
X137310000Y-107040000D02*
X137310000Y-111049000D01*
X137350000Y-100955000D02*
X137350000Y-104960000D01*
X137350000Y-107040000D02*
X137350000Y-111045000D01*
X137390000Y-100960000D02*
X137390000Y-104960000D01*
X137390000Y-107040000D02*
X137390000Y-111040000D01*
X137430000Y-100965000D02*
X137430000Y-104960000D01*
X137430000Y-107040000D02*
X137430000Y-111035000D01*
X137470000Y-100971000D02*
X137470000Y-104960000D01*
X137470000Y-107040000D02*
X137470000Y-111029000D01*
X137510000Y-100977000D02*
X137510000Y-104960000D01*
X137510000Y-107040000D02*
X137510000Y-111023000D01*
X137550000Y-100983000D02*
X137550000Y-104960000D01*
X137550000Y-107040000D02*
X137550000Y-111017000D01*
X137590000Y-100989000D02*
X137590000Y-104960000D01*
X137590000Y-107040000D02*
X137590000Y-111011000D01*
X137630000Y-100996000D02*
X137630000Y-104960000D01*
X137630000Y-107040000D02*
X137630000Y-111004000D01*
X137670000Y-101003000D02*
X137670000Y-104960000D01*
X137670000Y-107040000D02*
X137670000Y-110997000D01*
X137710000Y-101011000D02*
X137710000Y-104960000D01*
X137710000Y-107040000D02*
X137710000Y-110989000D01*
X137750000Y-101019000D02*
X137750000Y-104960000D01*
X137750000Y-107040000D02*
X137750000Y-110981000D01*
X137790000Y-101027000D02*
X137790000Y-104960000D01*
X137790000Y-107040000D02*
X137790000Y-110973000D01*
X137830000Y-101035000D02*
X137830000Y-104960000D01*
X137830000Y-107040000D02*
X137830000Y-110965000D01*
X137870000Y-101044000D02*
X137870000Y-104960000D01*
X137870000Y-107040000D02*
X137870000Y-110956000D01*
X137910000Y-101053000D02*
X137910000Y-104960000D01*
X137910000Y-107040000D02*
X137910000Y-110947000D01*
X137950000Y-101063000D02*
X137950000Y-104960000D01*
X137950000Y-107040000D02*
X137950000Y-110937000D01*
X137990000Y-101072000D02*
X137990000Y-104960000D01*
X137990000Y-107040000D02*
X137990000Y-110928000D01*
X138030000Y-101083000D02*
X138030000Y-104960000D01*
X138030000Y-107040000D02*
X138030000Y-110917000D01*
X138070000Y-101093000D02*
X138070000Y-104960000D01*
X138070000Y-107040000D02*
X138070000Y-110907000D01*
X138110000Y-101104000D02*
X138110000Y-104960000D01*
X138110000Y-107040000D02*
X138110000Y-110896000D01*
X138150000Y-101115000D02*
X138150000Y-104960000D01*
X138150000Y-107040000D02*
X138150000Y-110885000D01*
X138190000Y-101127000D02*
X138190000Y-104960000D01*
X138190000Y-107040000D02*
X138190000Y-110873000D01*
X138230000Y-101139000D02*
X138230000Y-104960000D01*
X138230000Y-107040000D02*
X138230000Y-110861000D01*
X138270000Y-101151000D02*
X138270000Y-104960000D01*
X138270000Y-107040000D02*
X138270000Y-110849000D01*
X138310000Y-101163000D02*
X138310000Y-104960000D01*
X138310000Y-107040000D02*
X138310000Y-110837000D01*
X138350000Y-101176000D02*
X138350000Y-104960000D01*
X138350000Y-107040000D02*
X138350000Y-110824000D01*
X138390000Y-101190000D02*
X138390000Y-104960000D01*
X138390000Y-107040000D02*
X138390000Y-110810000D01*
X138430000Y-101203000D02*
X138430000Y-104960000D01*
X138430000Y-107040000D02*
X138430000Y-110797000D01*
X138470000Y-101218000D02*
X138470000Y-104960000D01*
X138470000Y-107040000D02*
X138470000Y-110782000D01*
X138510000Y-101232000D02*
X138510000Y-104960000D01*
X138510000Y-107040000D02*
X138510000Y-110768000D01*
X138550000Y-101247000D02*
X138550000Y-104960000D01*
X138550000Y-107040000D02*
X138550000Y-110753000D01*
X138590000Y-101262000D02*
X138590000Y-104960000D01*
X138590000Y-107040000D02*
X138590000Y-110738000D01*
X138630000Y-101278000D02*
X138630000Y-104960000D01*
X138630000Y-107040000D02*
X138630000Y-110722000D01*
X138670000Y-101294000D02*
X138670000Y-104960000D01*
X138670000Y-107040000D02*
X138670000Y-110706000D01*
X138710000Y-101310000D02*
X138710000Y-104960000D01*
X138710000Y-107040000D02*
X138710000Y-110690000D01*
X138750000Y-101327000D02*
X138750000Y-104960000D01*
X138750000Y-107040000D02*
X138750000Y-110673000D01*
X138790000Y-101344000D02*
X138790000Y-104960000D01*
X138790000Y-107040000D02*
X138790000Y-110656000D01*
X138830000Y-101362000D02*
X138830000Y-104960000D01*
X138830000Y-107040000D02*
X138830000Y-110638000D01*
X138870000Y-101380000D02*
X138870000Y-104960000D01*
X138870000Y-107040000D02*
X138870000Y-110620000D01*
X138910000Y-101398000D02*
X138910000Y-104960000D01*
X138910000Y-107040000D02*
X138910000Y-110602000D01*
X138950000Y-101417000D02*
X138950000Y-104960000D01*
X138950000Y-107040000D02*
X138950000Y-110583000D01*
X138990000Y-101436000D02*
X138990000Y-104960000D01*
X138990000Y-107040000D02*
X138990000Y-110564000D01*
X139030000Y-101456000D02*
X139030000Y-104960000D01*
X139030000Y-107040000D02*
X139030000Y-110544000D01*
X139070000Y-101476000D02*
X139070000Y-110524000D01*
X139110000Y-101496000D02*
X139110000Y-110504000D01*
X139150000Y-101517000D02*
X139150000Y-110483000D01*
X139190000Y-101539000D02*
X139190000Y-110461000D01*
X139230000Y-101561000D02*
X139230000Y-110439000D01*
X139270000Y-101583000D02*
X139270000Y-110417000D01*
X139310000Y-101606000D02*
X139310000Y-110394000D01*
X139350000Y-101629000D02*
X139350000Y-110371000D01*
X139390000Y-101653000D02*
X139390000Y-110347000D01*
X139430000Y-101677000D02*
X139430000Y-110323000D01*
X139470000Y-101702000D02*
X139470000Y-110298000D01*
X139510000Y-101728000D02*
X139510000Y-110272000D01*
X139550000Y-101753000D02*
X139550000Y-110247000D01*
X139590000Y-101780000D02*
X139590000Y-110220000D01*
X139630000Y-101807000D02*
X139630000Y-110193000D01*
X139670000Y-101834000D02*
X139670000Y-110166000D01*
X139710000Y-101862000D02*
X139710000Y-110138000D01*
X139750000Y-101891000D02*
X139750000Y-110109000D01*
X139790000Y-101920000D02*
X139790000Y-110080000D01*
X139830000Y-101950000D02*
X139830000Y-110050000D01*
X139870000Y-101980000D02*
X139870000Y-110020000D01*
X139910000Y-102012000D02*
X139910000Y-109988000D01*
X139950000Y-102043000D02*
X139950000Y-109957000D01*
X139990000Y-102076000D02*
X139990000Y-109924000D01*
X140030000Y-102109000D02*
X140030000Y-109891000D01*
X140070000Y-102142000D02*
X140070000Y-109858000D01*
X140110000Y-102177000D02*
X140110000Y-109823000D01*
X140150000Y-102212000D02*
X140150000Y-109788000D01*
X140190000Y-102248000D02*
X140190000Y-109752000D01*
X140230000Y-102284000D02*
X140230000Y-109716000D01*
X140270000Y-102322000D02*
X140270000Y-109678000D01*
X140310000Y-102360000D02*
X140310000Y-109640000D01*
X140350000Y-102399000D02*
X140350000Y-109601000D01*
X140390000Y-102439000D02*
X140390000Y-109561000D01*
X140430000Y-102480000D02*
X140430000Y-109520000D01*
X140470000Y-102522000D02*
X140470000Y-109478000D01*
X140510000Y-102565000D02*
X140510000Y-109435000D01*
X140550000Y-102609000D02*
X140550000Y-109391000D01*
X140590000Y-102653000D02*
X140590000Y-109347000D01*
X140630000Y-102699000D02*
X140630000Y-109301000D01*
X140670000Y-102746000D02*
X140670000Y-109254000D01*
X140710000Y-102795000D02*
X140710000Y-109205000D01*
X140750000Y-102844000D02*
X140750000Y-109156000D01*
X140790000Y-102895000D02*
X140790000Y-109105000D01*
X140830000Y-102947000D02*
X140830000Y-109053000D01*
X140870000Y-103000000D02*
X140870000Y-109000000D01*
X140910000Y-103055000D02*
X140910000Y-108945000D01*
X140950000Y-103112000D02*
X140950000Y-108888000D01*
X140990000Y-103170000D02*
X140990000Y-108830000D01*
X141030000Y-103230000D02*
X141030000Y-108770000D01*
X141070000Y-103292000D02*
X141070000Y-108708000D01*
X141110000Y-103356000D02*
X141110000Y-108644000D01*
X141150000Y-103422000D02*
X141150000Y-108578000D01*
X141190000Y-103490000D02*
X141190000Y-108510000D01*
X141230000Y-103561000D02*
X141230000Y-108439000D01*
X141270000Y-103635000D02*
X141270000Y-108365000D01*
X141310000Y-103712000D02*
X141310000Y-108288000D01*
X141350000Y-103792000D02*
X141350000Y-108208000D01*
X141390000Y-103876000D02*
X141390000Y-108124000D01*
X141430000Y-103963000D02*
X141430000Y-108037000D01*
X141470000Y-104056000D02*
X141470000Y-107944000D01*
X141510000Y-104154000D02*
X141510000Y-107846000D01*
X141550000Y-104258000D02*
X141550000Y-107742000D01*
X141590000Y-104370000D02*
X141590000Y-107630000D01*
X141630000Y-104491000D02*
X141630000Y-107509000D01*
X141670000Y-104623000D02*
X141670000Y-107377000D01*
X141710000Y-104770000D02*
X141710000Y-107230000D01*
X141750000Y-104938000D02*
X141750000Y-107062000D01*
X141790000Y-105138000D02*
X141790000Y-106862000D01*
X141830000Y-105401000D02*
X141830000Y-106599000D01*
X141870000Y-106000000D02*
G75*
G02*
X131630000Y-106000000I-5120000J0D01*
G01*
X131630000Y-106000000D02*
G75*
G02*
X141870000Y-106000000I5120000J0D01*
G01*
%TO.C,D1*%
X129140000Y-91040000D02*
X129140000Y-92960000D01*
X129140000Y-92960000D02*
X132000000Y-92960000D01*
X132000000Y-91040000D02*
X129140000Y-91040000D01*
%TO.C,RV1*%
X157975000Y-72625000D02*
X163025000Y-72625000D01*
X157975000Y-82375000D02*
X157975000Y-72625000D01*
X163025000Y-72625000D02*
X163025000Y-82375000D01*
X163025000Y-82375000D02*
X157975000Y-82375000D01*
%TO.C,R4*%
X179265000Y-64227064D02*
X179265000Y-63772936D01*
X180735000Y-64227064D02*
X180735000Y-63772936D01*
%TO.C,R1*%
X159765000Y-84772936D02*
X159765000Y-85227064D01*
X161235000Y-84772936D02*
X161235000Y-85227064D01*
%TO.C,D4*%
X171540000Y-67140000D02*
X171540000Y-70000000D01*
X173460000Y-67140000D02*
X171540000Y-67140000D01*
X173460000Y-70000000D02*
X173460000Y-67140000D01*
%TO.C,C4*%
X167770354Y-114125000D02*
X168770354Y-114125000D01*
X168270354Y-113625000D02*
X168270354Y-114625000D01*
X173250000Y-111920000D02*
X173250000Y-122080000D01*
X173290000Y-111920000D02*
X173290000Y-122080000D01*
X173330000Y-111921000D02*
X173330000Y-122079000D01*
X173370000Y-111921000D02*
X173370000Y-122079000D01*
X173410000Y-111923000D02*
X173410000Y-122077000D01*
X173450000Y-111924000D02*
X173450000Y-122076000D01*
X173490000Y-111926000D02*
X173490000Y-115960000D01*
X173490000Y-118040000D02*
X173490000Y-122074000D01*
X173530000Y-111928000D02*
X173530000Y-115960000D01*
X173530000Y-118040000D02*
X173530000Y-122072000D01*
X173570000Y-111930000D02*
X173570000Y-115960000D01*
X173570000Y-118040000D02*
X173570000Y-122070000D01*
X173610000Y-111933000D02*
X173610000Y-115960000D01*
X173610000Y-118040000D02*
X173610000Y-122067000D01*
X173650000Y-111936000D02*
X173650000Y-115960000D01*
X173650000Y-118040000D02*
X173650000Y-122064000D01*
X173690000Y-111939000D02*
X173690000Y-115960000D01*
X173690000Y-118040000D02*
X173690000Y-122061000D01*
X173730000Y-111943000D02*
X173730000Y-115960000D01*
X173730000Y-118040000D02*
X173730000Y-122057000D01*
X173770000Y-111946000D02*
X173770000Y-115960000D01*
X173770000Y-118040000D02*
X173770000Y-122054000D01*
X173810000Y-111951000D02*
X173810000Y-115960000D01*
X173810000Y-118040000D02*
X173810000Y-122049000D01*
X173850000Y-111955000D02*
X173850000Y-115960000D01*
X173850000Y-118040000D02*
X173850000Y-122045000D01*
X173890000Y-111960000D02*
X173890000Y-115960000D01*
X173890000Y-118040000D02*
X173890000Y-122040000D01*
X173930000Y-111965000D02*
X173930000Y-115960000D01*
X173930000Y-118040000D02*
X173930000Y-122035000D01*
X173970000Y-111971000D02*
X173970000Y-115960000D01*
X173970000Y-118040000D02*
X173970000Y-122029000D01*
X174010000Y-111977000D02*
X174010000Y-115960000D01*
X174010000Y-118040000D02*
X174010000Y-122023000D01*
X174050000Y-111983000D02*
X174050000Y-115960000D01*
X174050000Y-118040000D02*
X174050000Y-122017000D01*
X174090000Y-111989000D02*
X174090000Y-115960000D01*
X174090000Y-118040000D02*
X174090000Y-122011000D01*
X174130000Y-111996000D02*
X174130000Y-115960000D01*
X174130000Y-118040000D02*
X174130000Y-122004000D01*
X174170000Y-112003000D02*
X174170000Y-115960000D01*
X174170000Y-118040000D02*
X174170000Y-121997000D01*
X174210000Y-112011000D02*
X174210000Y-115960000D01*
X174210000Y-118040000D02*
X174210000Y-121989000D01*
X174250000Y-112019000D02*
X174250000Y-115960000D01*
X174250000Y-118040000D02*
X174250000Y-121981000D01*
X174290000Y-112027000D02*
X174290000Y-115960000D01*
X174290000Y-118040000D02*
X174290000Y-121973000D01*
X174330000Y-112035000D02*
X174330000Y-115960000D01*
X174330000Y-118040000D02*
X174330000Y-121965000D01*
X174370000Y-112044000D02*
X174370000Y-115960000D01*
X174370000Y-118040000D02*
X174370000Y-121956000D01*
X174410000Y-112053000D02*
X174410000Y-115960000D01*
X174410000Y-118040000D02*
X174410000Y-121947000D01*
X174450000Y-112063000D02*
X174450000Y-115960000D01*
X174450000Y-118040000D02*
X174450000Y-121937000D01*
X174490000Y-112072000D02*
X174490000Y-115960000D01*
X174490000Y-118040000D02*
X174490000Y-121928000D01*
X174530000Y-112083000D02*
X174530000Y-115960000D01*
X174530000Y-118040000D02*
X174530000Y-121917000D01*
X174570000Y-112093000D02*
X174570000Y-115960000D01*
X174570000Y-118040000D02*
X174570000Y-121907000D01*
X174610000Y-112104000D02*
X174610000Y-115960000D01*
X174610000Y-118040000D02*
X174610000Y-121896000D01*
X174650000Y-112115000D02*
X174650000Y-115960000D01*
X174650000Y-118040000D02*
X174650000Y-121885000D01*
X174690000Y-112127000D02*
X174690000Y-115960000D01*
X174690000Y-118040000D02*
X174690000Y-121873000D01*
X174730000Y-112139000D02*
X174730000Y-115960000D01*
X174730000Y-118040000D02*
X174730000Y-121861000D01*
X174770000Y-112151000D02*
X174770000Y-115960000D01*
X174770000Y-118040000D02*
X174770000Y-121849000D01*
X174810000Y-112163000D02*
X174810000Y-115960000D01*
X174810000Y-118040000D02*
X174810000Y-121837000D01*
X174850000Y-112176000D02*
X174850000Y-115960000D01*
X174850000Y-118040000D02*
X174850000Y-121824000D01*
X174890000Y-112190000D02*
X174890000Y-115960000D01*
X174890000Y-118040000D02*
X174890000Y-121810000D01*
X174930000Y-112203000D02*
X174930000Y-115960000D01*
X174930000Y-118040000D02*
X174930000Y-121797000D01*
X174970000Y-112218000D02*
X174970000Y-115960000D01*
X174970000Y-118040000D02*
X174970000Y-121782000D01*
X175010000Y-112232000D02*
X175010000Y-115960000D01*
X175010000Y-118040000D02*
X175010000Y-121768000D01*
X175050000Y-112247000D02*
X175050000Y-115960000D01*
X175050000Y-118040000D02*
X175050000Y-121753000D01*
X175090000Y-112262000D02*
X175090000Y-115960000D01*
X175090000Y-118040000D02*
X175090000Y-121738000D01*
X175130000Y-112278000D02*
X175130000Y-115960000D01*
X175130000Y-118040000D02*
X175130000Y-121722000D01*
X175170000Y-112294000D02*
X175170000Y-115960000D01*
X175170000Y-118040000D02*
X175170000Y-121706000D01*
X175210000Y-112310000D02*
X175210000Y-115960000D01*
X175210000Y-118040000D02*
X175210000Y-121690000D01*
X175250000Y-112327000D02*
X175250000Y-115960000D01*
X175250000Y-118040000D02*
X175250000Y-121673000D01*
X175290000Y-112344000D02*
X175290000Y-115960000D01*
X175290000Y-118040000D02*
X175290000Y-121656000D01*
X175330000Y-112362000D02*
X175330000Y-115960000D01*
X175330000Y-118040000D02*
X175330000Y-121638000D01*
X175370000Y-112380000D02*
X175370000Y-115960000D01*
X175370000Y-118040000D02*
X175370000Y-121620000D01*
X175410000Y-112398000D02*
X175410000Y-115960000D01*
X175410000Y-118040000D02*
X175410000Y-121602000D01*
X175450000Y-112417000D02*
X175450000Y-115960000D01*
X175450000Y-118040000D02*
X175450000Y-121583000D01*
X175490000Y-112436000D02*
X175490000Y-115960000D01*
X175490000Y-118040000D02*
X175490000Y-121564000D01*
X175530000Y-112456000D02*
X175530000Y-115960000D01*
X175530000Y-118040000D02*
X175530000Y-121544000D01*
X175570000Y-112476000D02*
X175570000Y-121524000D01*
X175610000Y-112496000D02*
X175610000Y-121504000D01*
X175650000Y-112517000D02*
X175650000Y-121483000D01*
X175690000Y-112539000D02*
X175690000Y-121461000D01*
X175730000Y-112561000D02*
X175730000Y-121439000D01*
X175770000Y-112583000D02*
X175770000Y-121417000D01*
X175810000Y-112606000D02*
X175810000Y-121394000D01*
X175850000Y-112629000D02*
X175850000Y-121371000D01*
X175890000Y-112653000D02*
X175890000Y-121347000D01*
X175930000Y-112677000D02*
X175930000Y-121323000D01*
X175970000Y-112702000D02*
X175970000Y-121298000D01*
X176010000Y-112728000D02*
X176010000Y-121272000D01*
X176050000Y-112753000D02*
X176050000Y-121247000D01*
X176090000Y-112780000D02*
X176090000Y-121220000D01*
X176130000Y-112807000D02*
X176130000Y-121193000D01*
X176170000Y-112834000D02*
X176170000Y-121166000D01*
X176210000Y-112862000D02*
X176210000Y-121138000D01*
X176250000Y-112891000D02*
X176250000Y-121109000D01*
X176290000Y-112920000D02*
X176290000Y-121080000D01*
X176330000Y-112950000D02*
X176330000Y-121050000D01*
X176370000Y-112980000D02*
X176370000Y-121020000D01*
X176410000Y-113012000D02*
X176410000Y-120988000D01*
X176450000Y-113043000D02*
X176450000Y-120957000D01*
X176490000Y-113076000D02*
X176490000Y-120924000D01*
X176530000Y-113109000D02*
X176530000Y-120891000D01*
X176570000Y-113142000D02*
X176570000Y-120858000D01*
X176610000Y-113177000D02*
X176610000Y-120823000D01*
X176650000Y-113212000D02*
X176650000Y-120788000D01*
X176690000Y-113248000D02*
X176690000Y-120752000D01*
X176730000Y-113284000D02*
X176730000Y-120716000D01*
X176770000Y-113322000D02*
X176770000Y-120678000D01*
X176810000Y-113360000D02*
X176810000Y-120640000D01*
X176850000Y-113399000D02*
X176850000Y-120601000D01*
X176890000Y-113439000D02*
X176890000Y-120561000D01*
X176930000Y-113480000D02*
X176930000Y-120520000D01*
X176970000Y-113522000D02*
X176970000Y-120478000D01*
X177010000Y-113565000D02*
X177010000Y-120435000D01*
X177050000Y-113609000D02*
X177050000Y-120391000D01*
X177090000Y-113653000D02*
X177090000Y-120347000D01*
X177130000Y-113699000D02*
X177130000Y-120301000D01*
X177170000Y-113746000D02*
X177170000Y-120254000D01*
X177210000Y-113795000D02*
X177210000Y-120205000D01*
X177250000Y-113844000D02*
X177250000Y-120156000D01*
X177290000Y-113895000D02*
X177290000Y-120105000D01*
X177330000Y-113947000D02*
X177330000Y-120053000D01*
X177370000Y-114000000D02*
X177370000Y-120000000D01*
X177410000Y-114055000D02*
X177410000Y-119945000D01*
X177450000Y-114112000D02*
X177450000Y-119888000D01*
X177490000Y-114170000D02*
X177490000Y-119830000D01*
X177530000Y-114230000D02*
X177530000Y-119770000D01*
X177570000Y-114292000D02*
X177570000Y-119708000D01*
X177610000Y-114356000D02*
X177610000Y-119644000D01*
X177650000Y-114422000D02*
X177650000Y-119578000D01*
X177690000Y-114490000D02*
X177690000Y-119510000D01*
X177730000Y-114561000D02*
X177730000Y-119439000D01*
X177770000Y-114635000D02*
X177770000Y-119365000D01*
X177810000Y-114712000D02*
X177810000Y-119288000D01*
X177850000Y-114792000D02*
X177850000Y-119208000D01*
X177890000Y-114876000D02*
X177890000Y-119124000D01*
X177930000Y-114963000D02*
X177930000Y-119037000D01*
X177970000Y-115056000D02*
X177970000Y-118944000D01*
X178010000Y-115154000D02*
X178010000Y-118846000D01*
X178050000Y-115258000D02*
X178050000Y-118742000D01*
X178090000Y-115370000D02*
X178090000Y-118630000D01*
X178130000Y-115491000D02*
X178130000Y-118509000D01*
X178170000Y-115623000D02*
X178170000Y-118377000D01*
X178210000Y-115770000D02*
X178210000Y-118230000D01*
X178250000Y-115938000D02*
X178250000Y-118062000D01*
X178290000Y-116138000D02*
X178290000Y-117862000D01*
X178330000Y-116401000D02*
X178330000Y-117599000D01*
X178370000Y-117000000D02*
G75*
G02*
X168130000Y-117000000I-5120000J0D01*
G01*
X168130000Y-117000000D02*
G75*
G02*
X178370000Y-117000000I5120000J0D01*
G01*
%TO.C,J1*%
X111690000Y-97140000D02*
X126000000Y-97140000D01*
X111690000Y-112860000D02*
X111690000Y-97140000D01*
X111690000Y-112860000D02*
X126000000Y-112860000D01*
X130110000Y-106290000D02*
X130110000Y-102550000D01*
X126000000Y-97140000D02*
G75*
G02*
X129930413Y-100048352I0J-4110000D01*
G01*
X129522958Y-110866806D02*
G75*
G02*
X126000000Y-112860000I-3522957J2116805D01*
G01*
%TO.C,C2*%
X131270354Y-114125000D02*
X132270354Y-114125000D01*
X131770354Y-113625000D02*
X131770354Y-114625000D01*
X136750000Y-111920000D02*
X136750000Y-122080000D01*
X136790000Y-111920000D02*
X136790000Y-122080000D01*
X136830000Y-111921000D02*
X136830000Y-122079000D01*
X136870000Y-111921000D02*
X136870000Y-122079000D01*
X136910000Y-111923000D02*
X136910000Y-122077000D01*
X136950000Y-111924000D02*
X136950000Y-122076000D01*
X136990000Y-111926000D02*
X136990000Y-115960000D01*
X136990000Y-118040000D02*
X136990000Y-122074000D01*
X137030000Y-111928000D02*
X137030000Y-115960000D01*
X137030000Y-118040000D02*
X137030000Y-122072000D01*
X137070000Y-111930000D02*
X137070000Y-115960000D01*
X137070000Y-118040000D02*
X137070000Y-122070000D01*
X137110000Y-111933000D02*
X137110000Y-115960000D01*
X137110000Y-118040000D02*
X137110000Y-122067000D01*
X137150000Y-111936000D02*
X137150000Y-115960000D01*
X137150000Y-118040000D02*
X137150000Y-122064000D01*
X137190000Y-111939000D02*
X137190000Y-115960000D01*
X137190000Y-118040000D02*
X137190000Y-122061000D01*
X137230000Y-111943000D02*
X137230000Y-115960000D01*
X137230000Y-118040000D02*
X137230000Y-122057000D01*
X137270000Y-111946000D02*
X137270000Y-115960000D01*
X137270000Y-118040000D02*
X137270000Y-122054000D01*
X137310000Y-111951000D02*
X137310000Y-115960000D01*
X137310000Y-118040000D02*
X137310000Y-122049000D01*
X137350000Y-111955000D02*
X137350000Y-115960000D01*
X137350000Y-118040000D02*
X137350000Y-122045000D01*
X137390000Y-111960000D02*
X137390000Y-115960000D01*
X137390000Y-118040000D02*
X137390000Y-122040000D01*
X137430000Y-111965000D02*
X137430000Y-115960000D01*
X137430000Y-118040000D02*
X137430000Y-122035000D01*
X137470000Y-111971000D02*
X137470000Y-115960000D01*
X137470000Y-118040000D02*
X137470000Y-122029000D01*
X137510000Y-111977000D02*
X137510000Y-115960000D01*
X137510000Y-118040000D02*
X137510000Y-122023000D01*
X137550000Y-111983000D02*
X137550000Y-115960000D01*
X137550000Y-118040000D02*
X137550000Y-122017000D01*
X137590000Y-111989000D02*
X137590000Y-115960000D01*
X137590000Y-118040000D02*
X137590000Y-122011000D01*
X137630000Y-111996000D02*
X137630000Y-115960000D01*
X137630000Y-118040000D02*
X137630000Y-122004000D01*
X137670000Y-112003000D02*
X137670000Y-115960000D01*
X137670000Y-118040000D02*
X137670000Y-121997000D01*
X137710000Y-112011000D02*
X137710000Y-115960000D01*
X137710000Y-118040000D02*
X137710000Y-121989000D01*
X137750000Y-112019000D02*
X137750000Y-115960000D01*
X137750000Y-118040000D02*
X137750000Y-121981000D01*
X137790000Y-112027000D02*
X137790000Y-115960000D01*
X137790000Y-118040000D02*
X137790000Y-121973000D01*
X137830000Y-112035000D02*
X137830000Y-115960000D01*
X137830000Y-118040000D02*
X137830000Y-121965000D01*
X137870000Y-112044000D02*
X137870000Y-115960000D01*
X137870000Y-118040000D02*
X137870000Y-121956000D01*
X137910000Y-112053000D02*
X137910000Y-115960000D01*
X137910000Y-118040000D02*
X137910000Y-121947000D01*
X137950000Y-112063000D02*
X137950000Y-115960000D01*
X137950000Y-118040000D02*
X137950000Y-121937000D01*
X137990000Y-112072000D02*
X137990000Y-115960000D01*
X137990000Y-118040000D02*
X137990000Y-121928000D01*
X138030000Y-112083000D02*
X138030000Y-115960000D01*
X138030000Y-118040000D02*
X138030000Y-121917000D01*
X138070000Y-112093000D02*
X138070000Y-115960000D01*
X138070000Y-118040000D02*
X138070000Y-121907000D01*
X138110000Y-112104000D02*
X138110000Y-115960000D01*
X138110000Y-118040000D02*
X138110000Y-121896000D01*
X138150000Y-112115000D02*
X138150000Y-115960000D01*
X138150000Y-118040000D02*
X138150000Y-121885000D01*
X138190000Y-112127000D02*
X138190000Y-115960000D01*
X138190000Y-118040000D02*
X138190000Y-121873000D01*
X138230000Y-112139000D02*
X138230000Y-115960000D01*
X138230000Y-118040000D02*
X138230000Y-121861000D01*
X138270000Y-112151000D02*
X138270000Y-115960000D01*
X138270000Y-118040000D02*
X138270000Y-121849000D01*
X138310000Y-112163000D02*
X138310000Y-115960000D01*
X138310000Y-118040000D02*
X138310000Y-121837000D01*
X138350000Y-112176000D02*
X138350000Y-115960000D01*
X138350000Y-118040000D02*
X138350000Y-121824000D01*
X138390000Y-112190000D02*
X138390000Y-115960000D01*
X138390000Y-118040000D02*
X138390000Y-121810000D01*
X138430000Y-112203000D02*
X138430000Y-115960000D01*
X138430000Y-118040000D02*
X138430000Y-121797000D01*
X138470000Y-112218000D02*
X138470000Y-115960000D01*
X138470000Y-118040000D02*
X138470000Y-121782000D01*
X138510000Y-112232000D02*
X138510000Y-115960000D01*
X138510000Y-118040000D02*
X138510000Y-121768000D01*
X138550000Y-112247000D02*
X138550000Y-115960000D01*
X138550000Y-118040000D02*
X138550000Y-121753000D01*
X138590000Y-112262000D02*
X138590000Y-115960000D01*
X138590000Y-118040000D02*
X138590000Y-121738000D01*
X138630000Y-112278000D02*
X138630000Y-115960000D01*
X138630000Y-118040000D02*
X138630000Y-121722000D01*
X138670000Y-112294000D02*
X138670000Y-115960000D01*
X138670000Y-118040000D02*
X138670000Y-121706000D01*
X138710000Y-112310000D02*
X138710000Y-115960000D01*
X138710000Y-118040000D02*
X138710000Y-121690000D01*
X138750000Y-112327000D02*
X138750000Y-115960000D01*
X138750000Y-118040000D02*
X138750000Y-121673000D01*
X138790000Y-112344000D02*
X138790000Y-115960000D01*
X138790000Y-118040000D02*
X138790000Y-121656000D01*
X138830000Y-112362000D02*
X138830000Y-115960000D01*
X138830000Y-118040000D02*
X138830000Y-121638000D01*
X138870000Y-112380000D02*
X138870000Y-115960000D01*
X138870000Y-118040000D02*
X138870000Y-121620000D01*
X138910000Y-112398000D02*
X138910000Y-115960000D01*
X138910000Y-118040000D02*
X138910000Y-121602000D01*
X138950000Y-112417000D02*
X138950000Y-115960000D01*
X138950000Y-118040000D02*
X138950000Y-121583000D01*
X138990000Y-112436000D02*
X138990000Y-115960000D01*
X138990000Y-118040000D02*
X138990000Y-121564000D01*
X139030000Y-112456000D02*
X139030000Y-115960000D01*
X139030000Y-118040000D02*
X139030000Y-121544000D01*
X139070000Y-112476000D02*
X139070000Y-121524000D01*
X139110000Y-112496000D02*
X139110000Y-121504000D01*
X139150000Y-112517000D02*
X139150000Y-121483000D01*
X139190000Y-112539000D02*
X139190000Y-121461000D01*
X139230000Y-112561000D02*
X139230000Y-121439000D01*
X139270000Y-112583000D02*
X139270000Y-121417000D01*
X139310000Y-112606000D02*
X139310000Y-121394000D01*
X139350000Y-112629000D02*
X139350000Y-121371000D01*
X139390000Y-112653000D02*
X139390000Y-121347000D01*
X139430000Y-112677000D02*
X139430000Y-121323000D01*
X139470000Y-112702000D02*
X139470000Y-121298000D01*
X139510000Y-112728000D02*
X139510000Y-121272000D01*
X139550000Y-112753000D02*
X139550000Y-121247000D01*
X139590000Y-112780000D02*
X139590000Y-121220000D01*
X139630000Y-112807000D02*
X139630000Y-121193000D01*
X139670000Y-112834000D02*
X139670000Y-121166000D01*
X139710000Y-112862000D02*
X139710000Y-121138000D01*
X139750000Y-112891000D02*
X139750000Y-121109000D01*
X139790000Y-112920000D02*
X139790000Y-121080000D01*
X139830000Y-112950000D02*
X139830000Y-121050000D01*
X139870000Y-112980000D02*
X139870000Y-121020000D01*
X139910000Y-113012000D02*
X139910000Y-120988000D01*
X139950000Y-113043000D02*
X139950000Y-120957000D01*
X139990000Y-113076000D02*
X139990000Y-120924000D01*
X140030000Y-113109000D02*
X140030000Y-120891000D01*
X140070000Y-113142000D02*
X140070000Y-120858000D01*
X140110000Y-113177000D02*
X140110000Y-120823000D01*
X140150000Y-113212000D02*
X140150000Y-120788000D01*
X140190000Y-113248000D02*
X140190000Y-120752000D01*
X140230000Y-113284000D02*
X140230000Y-120716000D01*
X140270000Y-113322000D02*
X140270000Y-120678000D01*
X140310000Y-113360000D02*
X140310000Y-120640000D01*
X140350000Y-113399000D02*
X140350000Y-120601000D01*
X140390000Y-113439000D02*
X140390000Y-120561000D01*
X140430000Y-113480000D02*
X140430000Y-120520000D01*
X140470000Y-113522000D02*
X140470000Y-120478000D01*
X140510000Y-113565000D02*
X140510000Y-120435000D01*
X140550000Y-113609000D02*
X140550000Y-120391000D01*
X140590000Y-113653000D02*
X140590000Y-120347000D01*
X140630000Y-113699000D02*
X140630000Y-120301000D01*
X140670000Y-113746000D02*
X140670000Y-120254000D01*
X140710000Y-113795000D02*
X140710000Y-120205000D01*
X140750000Y-113844000D02*
X140750000Y-120156000D01*
X140790000Y-113895000D02*
X140790000Y-120105000D01*
X140830000Y-113947000D02*
X140830000Y-120053000D01*
X140870000Y-114000000D02*
X140870000Y-120000000D01*
X140910000Y-114055000D02*
X140910000Y-119945000D01*
X140950000Y-114112000D02*
X140950000Y-119888000D01*
X140990000Y-114170000D02*
X140990000Y-119830000D01*
X141030000Y-114230000D02*
X141030000Y-119770000D01*
X141070000Y-114292000D02*
X141070000Y-119708000D01*
X141110000Y-114356000D02*
X141110000Y-119644000D01*
X141150000Y-114422000D02*
X141150000Y-119578000D01*
X141190000Y-114490000D02*
X141190000Y-119510000D01*
X141230000Y-114561000D02*
X141230000Y-119439000D01*
X141270000Y-114635000D02*
X141270000Y-119365000D01*
X141310000Y-114712000D02*
X141310000Y-119288000D01*
X141350000Y-114792000D02*
X141350000Y-119208000D01*
X141390000Y-114876000D02*
X141390000Y-119124000D01*
X141430000Y-114963000D02*
X141430000Y-119037000D01*
X141470000Y-115056000D02*
X141470000Y-118944000D01*
X141510000Y-115154000D02*
X141510000Y-118846000D01*
X141550000Y-115258000D02*
X141550000Y-118742000D01*
X141590000Y-115370000D02*
X141590000Y-118630000D01*
X141630000Y-115491000D02*
X141630000Y-118509000D01*
X141670000Y-115623000D02*
X141670000Y-118377000D01*
X141710000Y-115770000D02*
X141710000Y-118230000D01*
X141750000Y-115938000D02*
X141750000Y-118062000D01*
X141790000Y-116138000D02*
X141790000Y-117862000D01*
X141830000Y-116401000D02*
X141830000Y-117599000D01*
X141870000Y-117000000D02*
G75*
G02*
X131630000Y-117000000I-5120000J0D01*
G01*
X131630000Y-117000000D02*
G75*
G02*
X141870000Y-117000000I5120000J0D01*
G01*
%TO.C,R5*%
X171765000Y-64227064D02*
X171765000Y-63772936D01*
X173235000Y-64227064D02*
X173235000Y-63772936D01*
%TO.C,R6*%
X175515000Y-64227064D02*
X175515000Y-63772936D01*
X176985000Y-64227064D02*
X176985000Y-63772936D01*
%TO.C,D2*%
X179040000Y-67140000D02*
X179040000Y-70000000D01*
X180960000Y-67140000D02*
X179040000Y-67140000D01*
X180960000Y-70000000D02*
X180960000Y-67140000D01*
%TO.C,U1*%
D14*
X135962500Y-66730000D02*
X156262500Y-66730000D01*
X156262500Y-99730000D01*
X135962500Y-99730000D01*
X135962500Y-66730000D01*
%TO.C,RZ1*%
D10*
X190220000Y-74500000D02*
X166470000Y-74500000D01*
X166470000Y-92500000D01*
X190220000Y-92500000D01*
X190220000Y-74500000D01*
X192470000Y-78875000D02*
X190220000Y-78875000D01*
X190220000Y-87625000D01*
X192470000Y-87625000D01*
X192470000Y-78875000D01*
D13*
%TO.C,C3*%
X167770354Y-103125000D02*
X168770354Y-103125000D01*
X168270354Y-102625000D02*
X168270354Y-103625000D01*
X173250000Y-100920000D02*
X173250000Y-111080000D01*
X173290000Y-100920000D02*
X173290000Y-111080000D01*
X173330000Y-100921000D02*
X173330000Y-111079000D01*
X173370000Y-100921000D02*
X173370000Y-111079000D01*
X173410000Y-100923000D02*
X173410000Y-111077000D01*
X173450000Y-100924000D02*
X173450000Y-111076000D01*
X173490000Y-100926000D02*
X173490000Y-104960000D01*
X173490000Y-107040000D02*
X173490000Y-111074000D01*
X173530000Y-100928000D02*
X173530000Y-104960000D01*
X173530000Y-107040000D02*
X173530000Y-111072000D01*
X173570000Y-100930000D02*
X173570000Y-104960000D01*
X173570000Y-107040000D02*
X173570000Y-111070000D01*
X173610000Y-100933000D02*
X173610000Y-104960000D01*
X173610000Y-107040000D02*
X173610000Y-111067000D01*
X173650000Y-100936000D02*
X173650000Y-104960000D01*
X173650000Y-107040000D02*
X173650000Y-111064000D01*
X173690000Y-100939000D02*
X173690000Y-104960000D01*
X173690000Y-107040000D02*
X173690000Y-111061000D01*
X173730000Y-100943000D02*
X173730000Y-104960000D01*
X173730000Y-107040000D02*
X173730000Y-111057000D01*
X173770000Y-100946000D02*
X173770000Y-104960000D01*
X173770000Y-107040000D02*
X173770000Y-111054000D01*
X173810000Y-100951000D02*
X173810000Y-104960000D01*
X173810000Y-107040000D02*
X173810000Y-111049000D01*
X173850000Y-100955000D02*
X173850000Y-104960000D01*
X173850000Y-107040000D02*
X173850000Y-111045000D01*
X173890000Y-100960000D02*
X173890000Y-104960000D01*
X173890000Y-107040000D02*
X173890000Y-111040000D01*
X173930000Y-100965000D02*
X173930000Y-104960000D01*
X173930000Y-107040000D02*
X173930000Y-111035000D01*
X173970000Y-100971000D02*
X173970000Y-104960000D01*
X173970000Y-107040000D02*
X173970000Y-111029000D01*
X174010000Y-100977000D02*
X174010000Y-104960000D01*
X174010000Y-107040000D02*
X174010000Y-111023000D01*
X174050000Y-100983000D02*
X174050000Y-104960000D01*
X174050000Y-107040000D02*
X174050000Y-111017000D01*
X174090000Y-100989000D02*
X174090000Y-104960000D01*
X174090000Y-107040000D02*
X174090000Y-111011000D01*
X174130000Y-100996000D02*
X174130000Y-104960000D01*
X174130000Y-107040000D02*
X174130000Y-111004000D01*
X174170000Y-101003000D02*
X174170000Y-104960000D01*
X174170000Y-107040000D02*
X174170000Y-110997000D01*
X174210000Y-101011000D02*
X174210000Y-104960000D01*
X174210000Y-107040000D02*
X174210000Y-110989000D01*
X174250000Y-101019000D02*
X174250000Y-104960000D01*
X174250000Y-107040000D02*
X174250000Y-110981000D01*
X174290000Y-101027000D02*
X174290000Y-104960000D01*
X174290000Y-107040000D02*
X174290000Y-110973000D01*
X174330000Y-101035000D02*
X174330000Y-104960000D01*
X174330000Y-107040000D02*
X174330000Y-110965000D01*
X174370000Y-101044000D02*
X174370000Y-104960000D01*
X174370000Y-107040000D02*
X174370000Y-110956000D01*
X174410000Y-101053000D02*
X174410000Y-104960000D01*
X174410000Y-107040000D02*
X174410000Y-110947000D01*
X174450000Y-101063000D02*
X174450000Y-104960000D01*
X174450000Y-107040000D02*
X174450000Y-110937000D01*
X174490000Y-101072000D02*
X174490000Y-104960000D01*
X174490000Y-107040000D02*
X174490000Y-110928000D01*
X174530000Y-101083000D02*
X174530000Y-104960000D01*
X174530000Y-107040000D02*
X174530000Y-110917000D01*
X174570000Y-101093000D02*
X174570000Y-104960000D01*
X174570000Y-107040000D02*
X174570000Y-110907000D01*
X174610000Y-101104000D02*
X174610000Y-104960000D01*
X174610000Y-107040000D02*
X174610000Y-110896000D01*
X174650000Y-101115000D02*
X174650000Y-104960000D01*
X174650000Y-107040000D02*
X174650000Y-110885000D01*
X174690000Y-101127000D02*
X174690000Y-104960000D01*
X174690000Y-107040000D02*
X174690000Y-110873000D01*
X174730000Y-101139000D02*
X174730000Y-104960000D01*
X174730000Y-107040000D02*
X174730000Y-110861000D01*
X174770000Y-101151000D02*
X174770000Y-104960000D01*
X174770000Y-107040000D02*
X174770000Y-110849000D01*
X174810000Y-101163000D02*
X174810000Y-104960000D01*
X174810000Y-107040000D02*
X174810000Y-110837000D01*
X174850000Y-101176000D02*
X174850000Y-104960000D01*
X174850000Y-107040000D02*
X174850000Y-110824000D01*
X174890000Y-101190000D02*
X174890000Y-104960000D01*
X174890000Y-107040000D02*
X174890000Y-110810000D01*
X174930000Y-101203000D02*
X174930000Y-104960000D01*
X174930000Y-107040000D02*
X174930000Y-110797000D01*
X174970000Y-101218000D02*
X174970000Y-104960000D01*
X174970000Y-107040000D02*
X174970000Y-110782000D01*
X175010000Y-101232000D02*
X175010000Y-104960000D01*
X175010000Y-107040000D02*
X175010000Y-110768000D01*
X175050000Y-101247000D02*
X175050000Y-104960000D01*
X175050000Y-107040000D02*
X175050000Y-110753000D01*
X175090000Y-101262000D02*
X175090000Y-104960000D01*
X175090000Y-107040000D02*
X175090000Y-110738000D01*
X175130000Y-101278000D02*
X175130000Y-104960000D01*
X175130000Y-107040000D02*
X175130000Y-110722000D01*
X175170000Y-101294000D02*
X175170000Y-104960000D01*
X175170000Y-107040000D02*
X175170000Y-110706000D01*
X175210000Y-101310000D02*
X175210000Y-104960000D01*
X175210000Y-107040000D02*
X175210000Y-110690000D01*
X175250000Y-101327000D02*
X175250000Y-104960000D01*
X175250000Y-107040000D02*
X175250000Y-110673000D01*
X175290000Y-101344000D02*
X175290000Y-104960000D01*
X175290000Y-107040000D02*
X175290000Y-110656000D01*
X175330000Y-101362000D02*
X175330000Y-104960000D01*
X175330000Y-107040000D02*
X175330000Y-110638000D01*
X175370000Y-101380000D02*
X175370000Y-104960000D01*
X175370000Y-107040000D02*
X175370000Y-110620000D01*
X175410000Y-101398000D02*
X175410000Y-104960000D01*
X175410000Y-107040000D02*
X175410000Y-110602000D01*
X175450000Y-101417000D02*
X175450000Y-104960000D01*
X175450000Y-107040000D02*
X175450000Y-110583000D01*
X175490000Y-101436000D02*
X175490000Y-104960000D01*
X175490000Y-107040000D02*
X175490000Y-110564000D01*
X175530000Y-101456000D02*
X175530000Y-104960000D01*
X175530000Y-107040000D02*
X175530000Y-110544000D01*
X175570000Y-101476000D02*
X175570000Y-110524000D01*
X175610000Y-101496000D02*
X175610000Y-110504000D01*
X175650000Y-101517000D02*
X175650000Y-110483000D01*
X175690000Y-101539000D02*
X175690000Y-110461000D01*
X175730000Y-101561000D02*
X175730000Y-110439000D01*
X175770000Y-101583000D02*
X175770000Y-110417000D01*
X175810000Y-101606000D02*
X175810000Y-110394000D01*
X175850000Y-101629000D02*
X175850000Y-110371000D01*
X175890000Y-101653000D02*
X175890000Y-110347000D01*
X175930000Y-101677000D02*
X175930000Y-110323000D01*
X175970000Y-101702000D02*
X175970000Y-110298000D01*
X176010000Y-101728000D02*
X176010000Y-110272000D01*
X176050000Y-101753000D02*
X176050000Y-110247000D01*
X176090000Y-101780000D02*
X176090000Y-110220000D01*
X176130000Y-101807000D02*
X176130000Y-110193000D01*
X176170000Y-101834000D02*
X176170000Y-110166000D01*
X176210000Y-101862000D02*
X176210000Y-110138000D01*
X176250000Y-101891000D02*
X176250000Y-110109000D01*
X176290000Y-101920000D02*
X176290000Y-110080000D01*
X176330000Y-101950000D02*
X176330000Y-110050000D01*
X176370000Y-101980000D02*
X176370000Y-110020000D01*
X176410000Y-102012000D02*
X176410000Y-109988000D01*
X176450000Y-102043000D02*
X176450000Y-109957000D01*
X176490000Y-102076000D02*
X176490000Y-109924000D01*
X176530000Y-102109000D02*
X176530000Y-109891000D01*
X176570000Y-102142000D02*
X176570000Y-109858000D01*
X176610000Y-102177000D02*
X176610000Y-109823000D01*
X176650000Y-102212000D02*
X176650000Y-109788000D01*
X176690000Y-102248000D02*
X176690000Y-109752000D01*
X176730000Y-102284000D02*
X176730000Y-109716000D01*
X176770000Y-102322000D02*
X176770000Y-109678000D01*
X176810000Y-102360000D02*
X176810000Y-109640000D01*
X176850000Y-102399000D02*
X176850000Y-109601000D01*
X176890000Y-102439000D02*
X176890000Y-109561000D01*
X176930000Y-102480000D02*
X176930000Y-109520000D01*
X176970000Y-102522000D02*
X176970000Y-109478000D01*
X177010000Y-102565000D02*
X177010000Y-109435000D01*
X177050000Y-102609000D02*
X177050000Y-109391000D01*
X177090000Y-102653000D02*
X177090000Y-109347000D01*
X177130000Y-102699000D02*
X177130000Y-109301000D01*
X177170000Y-102746000D02*
X177170000Y-109254000D01*
X177210000Y-102795000D02*
X177210000Y-109205000D01*
X177250000Y-102844000D02*
X177250000Y-109156000D01*
X177290000Y-102895000D02*
X177290000Y-109105000D01*
X177330000Y-102947000D02*
X177330000Y-109053000D01*
X177370000Y-103000000D02*
X177370000Y-109000000D01*
X177410000Y-103055000D02*
X177410000Y-108945000D01*
X177450000Y-103112000D02*
X177450000Y-108888000D01*
X177490000Y-103170000D02*
X177490000Y-108830000D01*
X177530000Y-103230000D02*
X177530000Y-108770000D01*
X177570000Y-103292000D02*
X177570000Y-108708000D01*
X177610000Y-103356000D02*
X177610000Y-108644000D01*
X177650000Y-103422000D02*
X177650000Y-108578000D01*
X177690000Y-103490000D02*
X177690000Y-108510000D01*
X177730000Y-103561000D02*
X177730000Y-108439000D01*
X177770000Y-103635000D02*
X177770000Y-108365000D01*
X177810000Y-103712000D02*
X177810000Y-108288000D01*
X177850000Y-103792000D02*
X177850000Y-108208000D01*
X177890000Y-103876000D02*
X177890000Y-108124000D01*
X177930000Y-103963000D02*
X177930000Y-108037000D01*
X177970000Y-104056000D02*
X177970000Y-107944000D01*
X178010000Y-104154000D02*
X178010000Y-107846000D01*
X178050000Y-104258000D02*
X178050000Y-107742000D01*
X178090000Y-104370000D02*
X178090000Y-107630000D01*
X178130000Y-104491000D02*
X178130000Y-107509000D01*
X178170000Y-104623000D02*
X178170000Y-107377000D01*
X178210000Y-104770000D02*
X178210000Y-107230000D01*
X178250000Y-104938000D02*
X178250000Y-107062000D01*
X178290000Y-105138000D02*
X178290000Y-106862000D01*
X178330000Y-105401000D02*
X178330000Y-106599000D01*
X178370000Y-106000000D02*
G75*
G02*
X168130000Y-106000000I-5120000J0D01*
G01*
X168130000Y-106000000D02*
G75*
G02*
X178370000Y-106000000I5120000J0D01*
G01*
%TD*%
M02*
