%TF.GenerationSoftware,KiCad,Pcbnew,9.0.3*%
%TF.CreationDate,2025-10-29T20:31:05+11:00*%
%TF.ProjectId,Drivetrain_Pololu_G2_24v21_BLFR,44726976-6574-4726-9169-6e5f506f6c6f,rev?*%
%TF.SameCoordinates,Original*%
%TF.FileFunction,Paste,Top*%
%TF.FilePolarity,Positive*%
%FSLAX46Y46*%
G04 Gerber Fmt 4.6, Leading zero omitted, Abs format (unit mm)*
G04 Created by KiCad (PCBNEW 9.0.3) date 2025-10-29 20:31:05*
%MOMM*%
%LPD*%
G01*
G04 APERTURE LIST*
G04 Aperture macros list*
%AMRoundRect*
0 Rectangle with rounded corners*
0 $1 Rounding radius*
0 $2 $3 $4 $5 $6 $7 $8 $9 X,Y pos of 4 corners*
0 Add a 4 corners polygon primitive as box body*
4,1,4,$2,$3,$4,$5,$6,$7,$8,$9,$2,$3,0*
0 Add four circle primitives for the rounded corners*
1,1,$1+$1,$2,$3*
1,1,$1+$1,$4,$5*
1,1,$1+$1,$6,$7*
1,1,$1+$1,$8,$9*
0 Add four rect primitives between the rounded corners*
20,1,$1+$1,$2,$3,$4,$5,0*
20,1,$1+$1,$4,$5,$6,$7,0*
20,1,$1+$1,$6,$7,$8,$9,0*
20,1,$1+$1,$8,$9,$2,$3,0*%
G04 Aperture macros list end*
%ADD10RoundRect,0.250000X0.350000X0.450000X-0.350000X0.450000X-0.350000X-0.450000X0.350000X-0.450000X0*%
%ADD11RoundRect,0.250000X-0.450000X0.325000X-0.450000X-0.325000X0.450000X-0.325000X0.450000X0.325000X0*%
%ADD12RoundRect,0.250000X-0.325000X-0.450000X0.325000X-0.450000X0.325000X0.450000X-0.325000X0.450000X0*%
%ADD13RoundRect,0.250000X0.450000X-0.350000X0.450000X0.350000X-0.450000X0.350000X-0.450000X-0.350000X0*%
%ADD14RoundRect,0.250000X-0.450000X0.350000X-0.450000X-0.350000X0.450000X-0.350000X0.450000X0.350000X0*%
%ADD15R,3.800000X3.800000*%
%ADD16C,3.800000*%
%ADD17RoundRect,0.381000X-0.381000X0.762000X-0.381000X-0.762000X0.381000X-0.762000X0.381000X0.762000X0*%
%ADD18RoundRect,0.381000X-0.762000X-0.381000X0.762000X-0.381000X0.762000X0.381000X-0.762000X0.381000X0*%
%ADD19RoundRect,0.381000X0.381000X-0.762000X0.381000X0.762000X-0.381000X0.762000X-0.381000X-0.762000X0*%
G04 APERTURE END LIST*
D10*
%TO.C,R2*%
X141750000Y-65000000D03*
X139750000Y-65000000D03*
%TD*%
%TO.C,R3*%
X127000000Y-92000000D03*
X125000000Y-92000000D03*
%TD*%
D11*
%TO.C,D3*%
X176250000Y-67975000D03*
X176250000Y-70025000D03*
%TD*%
D12*
%TO.C,D1*%
X129975000Y-92000000D03*
X132025000Y-92000000D03*
%TD*%
D13*
%TO.C,R4*%
X180000000Y-65000000D03*
X180000000Y-63000000D03*
%TD*%
D14*
%TO.C,R1*%
X160500000Y-84000000D03*
X160500000Y-86000000D03*
%TD*%
D11*
%TO.C,D4*%
X172500000Y-67975000D03*
X172500000Y-70025000D03*
%TD*%
D13*
%TO.C,R5*%
X172500000Y-65000000D03*
X172500000Y-63000000D03*
%TD*%
%TO.C,R6*%
X176250000Y-65000000D03*
X176250000Y-63000000D03*
%TD*%
D11*
%TO.C,D2*%
X180000000Y-67975000D03*
X180000000Y-70025000D03*
%TD*%
D15*
%TO.C,U1*%
X153722500Y-97440000D03*
D16*
X148622500Y-97440000D03*
X143622500Y-97440000D03*
X138622500Y-97440000D03*
%TD*%
D17*
%TO.C,RZ1*%
X188540000Y-92500000D03*
X186000000Y-92500000D03*
X183460000Y-92500000D03*
X180920000Y-92500000D03*
X178380000Y-92500000D03*
X175840000Y-92500000D03*
X173300000Y-92500000D03*
X170760000Y-92500000D03*
X168220000Y-92500000D03*
D18*
X166470000Y-88500000D03*
X166470000Y-85960000D03*
X166470000Y-83420000D03*
X166470000Y-80880000D03*
X166470000Y-78340000D03*
D19*
X168220000Y-74500000D03*
X170760000Y-74500000D03*
X173300000Y-74500000D03*
X175840000Y-74500000D03*
X178380000Y-74500000D03*
X180920000Y-74500000D03*
X183460000Y-74500000D03*
X186000000Y-74500000D03*
X188540000Y-74500000D03*
%TD*%
M02*
