%TF.GenerationSoftware,KiCad,Pcbnew,9.0.3*%
%TF.CreationDate,2025-10-29T20:31:05+11:00*%
%TF.ProjectId,Drivetrain_Pololu_G2_24v21_BLFR,44726976-6574-4726-9169-6e5f506f6c6f,rev?*%
%TF.SameCoordinates,Original*%
%TF.FileFunction,Profile,NP*%
%FSLAX46Y46*%
G04 Gerber Fmt 4.6, Leading zero omitted, Abs format (unit mm)*
G04 Created by KiCad (PCBNEW 9.0.3) date 2025-10-29 20:31:05*
%MOMM*%
%LPD*%
G01*
G04 APERTURE LIST*
%TA.AperFunction,Profile*%
%ADD10C,0.050000*%
%TD*%
G04 APERTURE END LIST*
D10*
X190000000Y-66000000D02*
X190000000Y-77500000D01*
X169470000Y-77500000D02*
X169470000Y-89500000D01*
X124000000Y-123000000D02*
X186000000Y-123000000D01*
X140250000Y-73000000D02*
X140250000Y-77000000D01*
X152000000Y-89000000D02*
X156250000Y-89000000D01*
X124000000Y-123000000D02*
G75*
G02*
X120000000Y-119000000I0J4000000D01*
G01*
X153700000Y-74400000D02*
X153700000Y-69300000D01*
X156250000Y-74400000D02*
X153700000Y-74400000D01*
X136000000Y-93500000D02*
X152000000Y-93500000D01*
X153700000Y-69300000D02*
X136000000Y-69300000D01*
X156250000Y-89000000D02*
X156250000Y-74400000D01*
X190000000Y-119000000D02*
G75*
G02*
X186000000Y-123000000I-4000000J0D01*
G01*
X185000000Y-61000000D02*
G75*
G02*
X190000000Y-66000000I0J-5000000D01*
G01*
X140250000Y-77000000D02*
X136000000Y-77000000D01*
X120000000Y-66000000D02*
G75*
G02*
X125000000Y-61000000I5000000J0D01*
G01*
X190000000Y-77500000D02*
X169470000Y-77500000D01*
X136000000Y-69300000D02*
X136000000Y-73000000D01*
X136000000Y-73000000D02*
X140250000Y-73000000D01*
X120000000Y-66000000D02*
X120000000Y-119000000D01*
X190000000Y-89500000D02*
X190000000Y-119000000D01*
X136000000Y-77000000D02*
X136000000Y-93500000D01*
X169470000Y-89500000D02*
X190000000Y-89500000D01*
X152000000Y-93500000D02*
X152000000Y-89000000D01*
X185000000Y-61000000D02*
X125000000Y-61000000D01*
%TO.C,U1*%
X139352500Y-75020000D02*
G75*
G02*
X137172500Y-75020000I-1090000J0D01*
G01*
X137172500Y-75020000D02*
G75*
G02*
X139352500Y-75020000I1090000J0D01*
G01*
X155057078Y-90830000D02*
G75*
G02*
X152867922Y-90830000I-1094578J0D01*
G01*
X152867922Y-90830000D02*
G75*
G02*
X155057078Y-90830000I1094578J0D01*
G01*
%TD*%
M02*
