%TF.GenerationSoftware,KiCad,Pcbnew,9.0.3*%
%TF.CreationDate,2025-10-29T20:31:05+11:00*%
%TF.ProjectId,Drivetrain_Pololu_G2_24v21_BLFR,44726976-6574-4726-9169-6e5f506f6c6f,rev?*%
%TF.SameCoordinates,Original*%
%TF.FileFunction,Copper,L2,Bot*%
%TF.FilePolarity,Positive*%
%FSLAX46Y46*%
G04 Gerber Fmt 4.6, Leading zero omitted, Abs format (unit mm)*
G04 Created by KiCad (PCBNEW 9.0.3) date 2025-10-29 20:31:05*
%MOMM*%
%LPD*%
G01*
G04 APERTURE LIST*
G04 Aperture macros list*
%AMRoundRect*
0 Rectangle with rounded corners*
0 $1 Rounding radius*
0 $2 $3 $4 $5 $6 $7 $8 $9 X,Y pos of 4 corners*
0 Add a 4 corners polygon primitive as box body*
4,1,4,$2,$3,$4,$5,$6,$7,$8,$9,$2,$3,0*
0 Add four circle primitives for the rounded corners*
1,1,$1+$1,$2,$3*
1,1,$1+$1,$4,$5*
1,1,$1+$1,$6,$7*
1,1,$1+$1,$8,$9*
0 Add four rect primitives between the rounded corners*
20,1,$1+$1,$2,$3,$4,$5,0*
20,1,$1+$1,$4,$5,$6,$7,0*
20,1,$1+$1,$6,$7,$8,$9,0*
20,1,$1+$1,$8,$9,$2,$3,0*%
G04 Aperture macros list end*
%TA.AperFunction,ComponentPad*%
%ADD10R,2.000000X0.900000*%
%TD*%
%TA.AperFunction,ComponentPad*%
%ADD11RoundRect,1.025000X-1.025000X1.025000X-1.025000X-1.025000X1.025000X-1.025000X1.025000X1.025000X0*%
%TD*%
%TA.AperFunction,ComponentPad*%
%ADD12C,4.100000*%
%TD*%
%TA.AperFunction,ComponentPad*%
%ADD13C,5.600000*%
%TD*%
%TA.AperFunction,ComponentPad*%
%ADD14RoundRect,0.250000X-0.550000X-0.550000X0.550000X-0.550000X0.550000X0.550000X-0.550000X0.550000X0*%
%TD*%
%TA.AperFunction,ComponentPad*%
%ADD15C,1.600000*%
%TD*%
%TA.AperFunction,ComponentPad*%
%ADD16C,1.440000*%
%TD*%
%TA.AperFunction,ComponentPad*%
%ADD17RoundRect,1.025000X1.025000X-1.025000X1.025000X1.025000X-1.025000X1.025000X-1.025000X-1.025000X0*%
%TD*%
%TA.AperFunction,ComponentPad*%
%ADD18R,1.700000X1.700000*%
%TD*%
%TA.AperFunction,ComponentPad*%
%ADD19C,1.700000*%
%TD*%
%TA.AperFunction,ComponentPad*%
%ADD20RoundRect,0.250000X0.725000X-0.600000X0.725000X0.600000X-0.725000X0.600000X-0.725000X-0.600000X0*%
%TD*%
%TA.AperFunction,ComponentPad*%
%ADD21O,1.950000X1.700000*%
%TD*%
%TA.AperFunction,ComponentPad*%
%ADD22RoundRect,1.500000X1.500000X1.500000X-1.500000X1.500000X-1.500000X-1.500000X1.500000X-1.500000X0*%
%TD*%
%TA.AperFunction,ComponentPad*%
%ADD23C,6.000000*%
%TD*%
%TA.AperFunction,ViaPad*%
%ADD24C,0.600000*%
%TD*%
%TA.AperFunction,Conductor*%
%ADD25C,0.500000*%
%TD*%
%TA.AperFunction,Conductor*%
%ADD26C,0.350000*%
%TD*%
G04 APERTURE END LIST*
D10*
%TO.P,J2,*%
%TO.N,*%
X187850000Y-98250000D03*
X187850000Y-111750000D03*
D11*
%TO.P,J2,1,NEG*%
%TO.N,GND*%
X181850000Y-101400000D03*
D12*
%TO.P,J2,2,POS*%
%TO.N,VCC*%
X181850000Y-108600000D03*
%TD*%
D13*
%TO.P,H2,1*%
%TO.N,N/C*%
X185000000Y-66000000D03*
%TD*%
D14*
%TO.P,C1,1*%
%TO.N,VCC*%
X135500000Y-106000000D03*
D15*
%TO.P,C1,2*%
%TO.N,GND*%
X138000000Y-106000000D03*
%TD*%
D16*
%TO.P,RV1,1,1*%
%TO.N,Net-(U1-VREF)*%
X160495000Y-74960000D03*
%TO.P,RV1,2,2*%
%TO.N,Net-(R1-Pad1)*%
X160495000Y-77500000D03*
%TO.P,RV1,3,3*%
X160495000Y-80040000D03*
%TD*%
D14*
%TO.P,C4,1*%
%TO.N,VCC*%
X172000000Y-117000000D03*
D15*
%TO.P,C4,2*%
%TO.N,GND*%
X174500000Y-117000000D03*
%TD*%
D10*
%TO.P,J1,*%
%TO.N,*%
X122150000Y-111750000D03*
X122150000Y-98250000D03*
D17*
%TO.P,J1,1,NEG*%
%TO.N,GND*%
X128150000Y-108600000D03*
D12*
%TO.P,J1,2,POS*%
%TO.N,VCC*%
X128150000Y-101400000D03*
%TD*%
D14*
%TO.P,C2,1*%
%TO.N,VCC*%
X135500000Y-117000000D03*
D15*
%TO.P,C2,2*%
%TO.N,GND*%
X138000000Y-117000000D03*
%TD*%
D13*
%TO.P,H3,1*%
%TO.N,N/C*%
X125000000Y-118000000D03*
%TD*%
%TO.P,H4,1*%
%TO.N,N/C*%
X185000000Y-118000000D03*
%TD*%
%TO.P,H1,1*%
%TO.N,N/C*%
X125000000Y-66000000D03*
%TD*%
D18*
%TO.P,U1,1,GND*%
%TO.N,GND*%
X152472500Y-95920000D03*
X155012500Y-95920000D03*
D19*
%TO.P,U1,2,OUTB*%
%TO.N,/OUTB*%
X147392500Y-95920000D03*
X149932500Y-95920000D03*
%TO.P,U1,3,OUTA*%
%TO.N,/OUTA*%
X142312500Y-95920000D03*
X144852500Y-95920000D03*
%TO.P,U1,4,VIN*%
%TO.N,VCC*%
X137232500Y-95920000D03*
X139772500Y-95920000D03*
%TO.P,U1,5,VREF*%
%TO.N,Net-(U1-VREF)*%
X155012500Y-73080000D03*
D18*
%TO.P,U1,6,GND*%
%TO.N,GND*%
X155012500Y-70540000D03*
%TO.P,U1,7,GND*%
X155012500Y-68000000D03*
D19*
%TO.P,U1,8,DIR*%
%TO.N,/DIR*%
X152472500Y-68000000D03*
%TO.P,U1,9,PWM*%
%TO.N,/PWM*%
X149932500Y-68000000D03*
%TO.P,U1,10,NSLEEP*%
%TO.N,/NSLEEP*%
X147392500Y-68000000D03*
%TO.P,U1,11,NFAULT*%
%TO.N,/NFAULT*%
X144852500Y-68000000D03*
%TO.P,U1,12,CS*%
%TO.N,/I_SENSE*%
X142312500Y-68000000D03*
%TO.P,U1,13,3V3_OUT*%
%TO.N,+3.3V_OUT*%
X139772500Y-68000000D03*
%TO.P,U1,14,VM*%
%TO.N,unconnected-(U1-VM-Pad14)*%
X137232500Y-68000000D03*
%TD*%
D14*
%TO.P,C3,1*%
%TO.N,VCC*%
X172000000Y-106000000D03*
D15*
%TO.P,C3,2*%
%TO.N,GND*%
X174500000Y-106000000D03*
%TD*%
D20*
%TO.P,J4,1,Pin_1*%
%TO.N,+3.3V_RP2040*%
X161000000Y-97750000D03*
D21*
%TO.P,J4,2,Pin_2*%
%TO.N,GND*%
X161000000Y-95250000D03*
%TO.P,J4,3,Pin_3*%
%TO.N,/CHA*%
X161000000Y-92750000D03*
%TO.P,J4,4,Pin_4*%
%TO.N,/CHB*%
X161000000Y-90250000D03*
%TD*%
D22*
%TO.P,J3,1,NEG*%
%TO.N,/OUTB*%
X163600000Y-110000000D03*
D23*
%TO.P,J3,2,POS*%
%TO.N,/OUTA*%
X156400000Y-110000000D03*
%TD*%
D24*
%TO.N,GND*%
X164000000Y-63000000D03*
X122000000Y-73000000D03*
X169000000Y-67000000D03*
X169000000Y-63000000D03*
X132000000Y-63000000D03*
X132000000Y-68000000D03*
X122000000Y-92000000D03*
X170000000Y-103000000D03*
X132000000Y-73000000D03*
X132000000Y-77000000D03*
X170000000Y-96000000D03*
X132000000Y-81000000D03*
X122000000Y-81000000D03*
X127000000Y-73000000D03*
X122000000Y-77000000D03*
X127000000Y-77000000D03*
X178000000Y-96000000D03*
X132000000Y-86000000D03*
X178000000Y-103000000D03*
X127000000Y-81000000D03*
X127000000Y-86000000D03*
X122000000Y-86000000D03*
%TO.N,+3.3V_RP2040*%
X183460000Y-72605000D03*
%TO.N,/NFAULT*%
X143000000Y-65000000D03*
%TD*%
D25*
%TO.N,+3.3V_RP2040*%
X168250000Y-85000000D02*
X165500000Y-87750000D01*
X160250000Y-87750000D02*
X158750000Y-89250000D01*
X183460000Y-72605000D02*
X179565000Y-76500000D01*
X179565000Y-76500000D02*
X169407926Y-76500000D01*
X168250000Y-77657926D02*
X168250000Y-85000000D01*
X158750000Y-89250000D02*
X158750000Y-95500000D01*
X158750000Y-95500000D02*
X161000000Y-97750000D01*
X165500000Y-87750000D02*
X160250000Y-87750000D01*
X169407926Y-76500000D02*
X168250000Y-77657926D01*
D26*
%TO.N,/NFAULT*%
X143000000Y-65000000D02*
X143000000Y-66147500D01*
X143000000Y-66147500D02*
X144852500Y-68000000D01*
%TD*%
%TA.AperFunction,Conductor*%
%TO.N,GND*%
G36*
X185002702Y-61400618D02*
G01*
X185016135Y-61401204D01*
X185395485Y-61417766D01*
X185406220Y-61418706D01*
X185793339Y-61469671D01*
X185803963Y-61471544D01*
X186185170Y-61556056D01*
X186195582Y-61558845D01*
X186567976Y-61676261D01*
X186578111Y-61679950D01*
X186938840Y-61829369D01*
X186948631Y-61833935D01*
X187028364Y-61875441D01*
X187294942Y-62014213D01*
X187304310Y-62019621D01*
X187633596Y-62229399D01*
X187642458Y-62235604D01*
X187952208Y-62473284D01*
X187960494Y-62480238D01*
X188248345Y-62744005D01*
X188255994Y-62751654D01*
X188519761Y-63039505D01*
X188526715Y-63047791D01*
X188764395Y-63357541D01*
X188770600Y-63366403D01*
X188980378Y-63695689D01*
X188985786Y-63705057D01*
X189166061Y-64051361D01*
X189170633Y-64061165D01*
X189320043Y-64421873D01*
X189323743Y-64432038D01*
X189441148Y-64804398D01*
X189443947Y-64814845D01*
X189467516Y-64921158D01*
X189528452Y-65196024D01*
X189530330Y-65206676D01*
X189581291Y-65593756D01*
X189582234Y-65604533D01*
X189599382Y-65997297D01*
X189599500Y-66002706D01*
X189599500Y-76975500D01*
X189579815Y-77042539D01*
X189527011Y-77088294D01*
X189475500Y-77099500D01*
X180326231Y-77099500D01*
X180259192Y-77079815D01*
X180213437Y-77027011D01*
X180203493Y-76957853D01*
X180232518Y-76894297D01*
X180238550Y-76887819D01*
X183166575Y-73959792D01*
X183775297Y-73351069D01*
X183815524Y-73324191D01*
X183839179Y-73314394D01*
X183970289Y-73226789D01*
X184081789Y-73115289D01*
X184169394Y-72984179D01*
X184229737Y-72838497D01*
X184260500Y-72683842D01*
X184260500Y-72526158D01*
X184260500Y-72526155D01*
X184260499Y-72526153D01*
X184229738Y-72371510D01*
X184229737Y-72371503D01*
X184195855Y-72289703D01*
X184169397Y-72225827D01*
X184169390Y-72225814D01*
X184081789Y-72094711D01*
X184081786Y-72094707D01*
X183970292Y-71983213D01*
X183970288Y-71983210D01*
X183839185Y-71895609D01*
X183839172Y-71895602D01*
X183693501Y-71835264D01*
X183693489Y-71835261D01*
X183538845Y-71804500D01*
X183538842Y-71804500D01*
X183381158Y-71804500D01*
X183381155Y-71804500D01*
X183226510Y-71835261D01*
X183226498Y-71835264D01*
X183080827Y-71895602D01*
X183080814Y-71895609D01*
X182949711Y-71983210D01*
X182949707Y-71983213D01*
X182838213Y-72094707D01*
X182838207Y-72094715D01*
X182750607Y-72225818D01*
X182750606Y-72225819D01*
X182740805Y-72249480D01*
X182713927Y-72289703D01*
X179290451Y-75713181D01*
X179229128Y-75746666D01*
X179202770Y-75749500D01*
X169334008Y-75749500D01*
X169305846Y-75755102D01*
X169305845Y-75755102D01*
X169189020Y-75778339D01*
X169189013Y-75778341D01*
X169133847Y-75801192D01*
X169052434Y-75834914D01*
X169052425Y-75834919D01*
X169014143Y-75860499D01*
X168929508Y-75917049D01*
X168929505Y-75917052D01*
X167667052Y-77179504D01*
X167667049Y-77179507D01*
X167628411Y-77237333D01*
X167628412Y-77237334D01*
X167584914Y-77302434D01*
X167528343Y-77439008D01*
X167528340Y-77439018D01*
X167499500Y-77584005D01*
X167499500Y-84637770D01*
X167479815Y-84704809D01*
X167463181Y-84725451D01*
X165225451Y-86963181D01*
X165164128Y-86996666D01*
X165137770Y-86999500D01*
X160176080Y-86999500D01*
X160031092Y-87028340D01*
X160031082Y-87028343D01*
X159894511Y-87084912D01*
X159894498Y-87084919D01*
X159771584Y-87167048D01*
X159771580Y-87167051D01*
X158167050Y-88771580D01*
X158167044Y-88771588D01*
X158117812Y-88845268D01*
X158117813Y-88845269D01*
X158084921Y-88894496D01*
X158084914Y-88894508D01*
X158028342Y-89031086D01*
X158028340Y-89031092D01*
X157999500Y-89176079D01*
X157999500Y-89176082D01*
X157999500Y-95573918D01*
X157999500Y-95573920D01*
X157999499Y-95573920D01*
X158028340Y-95718907D01*
X158028343Y-95718917D01*
X158084914Y-95855492D01*
X158117812Y-95904727D01*
X158117813Y-95904730D01*
X158167046Y-95978414D01*
X158167052Y-95978421D01*
X159488181Y-97299548D01*
X159521666Y-97360871D01*
X159524500Y-97387229D01*
X159524500Y-98400001D01*
X159524501Y-98400019D01*
X159535000Y-98502796D01*
X159535001Y-98502799D01*
X159590185Y-98669331D01*
X159590186Y-98669334D01*
X159682288Y-98818656D01*
X159806344Y-98942712D01*
X159955666Y-99034814D01*
X160122203Y-99089999D01*
X160224991Y-99100500D01*
X161775008Y-99100499D01*
X161877797Y-99089999D01*
X162044334Y-99034814D01*
X162193656Y-98942712D01*
X162317712Y-98818656D01*
X162409814Y-98669334D01*
X162464999Y-98502797D01*
X162475500Y-98400009D01*
X162475500Y-97752135D01*
X186349500Y-97752135D01*
X186349500Y-98747870D01*
X186349501Y-98747876D01*
X186355908Y-98807483D01*
X186406202Y-98942328D01*
X186406206Y-98942335D01*
X186492452Y-99057544D01*
X186492455Y-99057547D01*
X186607664Y-99143793D01*
X186607671Y-99143797D01*
X186742517Y-99194091D01*
X186742516Y-99194091D01*
X186749444Y-99194835D01*
X186802127Y-99200500D01*
X188897872Y-99200499D01*
X188957483Y-99194091D01*
X189092331Y-99143796D01*
X189207546Y-99057546D01*
X189293796Y-98942331D01*
X189344091Y-98807483D01*
X189350500Y-98747873D01*
X189350499Y-97752128D01*
X189344091Y-97692517D01*
X189293796Y-97557669D01*
X189293795Y-97557668D01*
X189293793Y-97557664D01*
X189207547Y-97442455D01*
X189207544Y-97442452D01*
X189092335Y-97356206D01*
X189092328Y-97356202D01*
X188957482Y-97305908D01*
X188957483Y-97305908D01*
X188897883Y-97299501D01*
X188897881Y-97299500D01*
X188897873Y-97299500D01*
X188897864Y-97299500D01*
X186802129Y-97299500D01*
X186802123Y-97299501D01*
X186742516Y-97305908D01*
X186607671Y-97356202D01*
X186607664Y-97356206D01*
X186492455Y-97442452D01*
X186492452Y-97442455D01*
X186406206Y-97557664D01*
X186406202Y-97557671D01*
X186355908Y-97692517D01*
X186349501Y-97752116D01*
X186349501Y-97752123D01*
X186349500Y-97752135D01*
X162475500Y-97752135D01*
X162475499Y-97099992D01*
X162464999Y-96997203D01*
X162409814Y-96830666D01*
X162317712Y-96681344D01*
X162193656Y-96557288D01*
X162044334Y-96465186D01*
X161877797Y-96410001D01*
X161877795Y-96410000D01*
X161775016Y-96399500D01*
X161775009Y-96399500D01*
X160762230Y-96399500D01*
X160695191Y-96379815D01*
X160674549Y-96363181D01*
X159536819Y-95225451D01*
X159503334Y-95164128D01*
X159500500Y-95137770D01*
X159500500Y-93537403D01*
X159520185Y-93470364D01*
X159572989Y-93424609D01*
X159642147Y-93414665D01*
X159705703Y-93443690D01*
X159724815Y-93464514D01*
X159844892Y-93629786D01*
X159844896Y-93629792D01*
X159995213Y-93780109D01*
X160167179Y-93905048D01*
X160167181Y-93905049D01*
X160167184Y-93905051D01*
X160356588Y-94001557D01*
X160558757Y-94067246D01*
X160768713Y-94100500D01*
X160768714Y-94100500D01*
X161231286Y-94100500D01*
X161231287Y-94100500D01*
X161441243Y-94067246D01*
X161643412Y-94001557D01*
X161832816Y-93905051D01*
X161949222Y-93820478D01*
X162004786Y-93780109D01*
X162004788Y-93780106D01*
X162004792Y-93780104D01*
X162155104Y-93629792D01*
X162155106Y-93629788D01*
X162155109Y-93629786D01*
X162280048Y-93457820D01*
X162280047Y-93457820D01*
X162280051Y-93457816D01*
X162376557Y-93268412D01*
X162442246Y-93066243D01*
X162475500Y-92856287D01*
X162475500Y-92643713D01*
X162442246Y-92433757D01*
X162376557Y-92231588D01*
X162280051Y-92042184D01*
X162280049Y-92042181D01*
X162280048Y-92042179D01*
X162155109Y-91870213D01*
X162004792Y-91719896D01*
X162004784Y-91719890D01*
X161840204Y-91600316D01*
X161797540Y-91544989D01*
X161791561Y-91475376D01*
X161824166Y-91413580D01*
X161840199Y-91399686D01*
X162004792Y-91280104D01*
X162155104Y-91129792D01*
X162155106Y-91129788D01*
X162155109Y-91129786D01*
X162280048Y-90957820D01*
X162280047Y-90957820D01*
X162280051Y-90957816D01*
X162376557Y-90768412D01*
X162442246Y-90566243D01*
X162475500Y-90356287D01*
X162475500Y-90143713D01*
X162442246Y-89933757D01*
X162376557Y-89731588D01*
X162280051Y-89542184D01*
X162280049Y-89542181D01*
X162280048Y-89542179D01*
X162155109Y-89370213D01*
X162004786Y-89219890D01*
X161832820Y-89094951D01*
X161643414Y-88998444D01*
X161643413Y-88998443D01*
X161643412Y-88998443D01*
X161441243Y-88932754D01*
X161441241Y-88932753D01*
X161441240Y-88932753D01*
X161279957Y-88907208D01*
X161231287Y-88899500D01*
X160768713Y-88899500D01*
X160729202Y-88905757D01*
X160558759Y-88932753D01*
X160412798Y-88980179D01*
X160342957Y-88982174D01*
X160283124Y-88946094D01*
X160252296Y-88883393D01*
X160260261Y-88813978D01*
X160286796Y-88774570D01*
X160524548Y-88536819D01*
X160585871Y-88503334D01*
X160612229Y-88500500D01*
X165573920Y-88500500D01*
X165671462Y-88481096D01*
X165718913Y-88471658D01*
X165855495Y-88415084D01*
X165904729Y-88382186D01*
X165978416Y-88332952D01*
X168832951Y-85478416D01*
X168842398Y-85464278D01*
X168896010Y-85419473D01*
X168965335Y-85410766D01*
X169028362Y-85440920D01*
X169065082Y-85500363D01*
X169069500Y-85533169D01*
X169069500Y-89447273D01*
X169069500Y-89552727D01*
X169096793Y-89654587D01*
X169149520Y-89745913D01*
X169224087Y-89820480D01*
X169315413Y-89873207D01*
X169417273Y-89900500D01*
X189475500Y-89900500D01*
X189542539Y-89920185D01*
X189588294Y-89972989D01*
X189599500Y-90024500D01*
X189599500Y-118996947D01*
X189599351Y-119003032D01*
X189582465Y-119346732D01*
X189581272Y-119358841D01*
X189531231Y-119696199D01*
X189528857Y-119708135D01*
X189445986Y-120038975D01*
X189442453Y-120050620D01*
X189327557Y-120371728D01*
X189322901Y-120382969D01*
X189177078Y-120691290D01*
X189171341Y-120702023D01*
X188996009Y-120994545D01*
X188989249Y-121004663D01*
X188786076Y-121278610D01*
X188778356Y-121288016D01*
X188549322Y-121540717D01*
X188540717Y-121549322D01*
X188288016Y-121778356D01*
X188278610Y-121786076D01*
X188004663Y-121989249D01*
X187994545Y-121996009D01*
X187702023Y-122171341D01*
X187691290Y-122177078D01*
X187382969Y-122322901D01*
X187371728Y-122327557D01*
X187050620Y-122442453D01*
X187038975Y-122445986D01*
X186708135Y-122528857D01*
X186696199Y-122531231D01*
X186358841Y-122581272D01*
X186346732Y-122582465D01*
X186003033Y-122599351D01*
X185996948Y-122599500D01*
X124003052Y-122599500D01*
X123996967Y-122599351D01*
X123653267Y-122582465D01*
X123641158Y-122581272D01*
X123303800Y-122531231D01*
X123291864Y-122528857D01*
X122961024Y-122445986D01*
X122949379Y-122442453D01*
X122628271Y-122327557D01*
X122617030Y-122322901D01*
X122308709Y-122177078D01*
X122297981Y-122171343D01*
X122005454Y-121996009D01*
X121995336Y-121989249D01*
X121721389Y-121786076D01*
X121711983Y-121778356D01*
X121671690Y-121741837D01*
X121459274Y-121549314D01*
X121450685Y-121540725D01*
X121221643Y-121288016D01*
X121213923Y-121278610D01*
X121010750Y-121004663D01*
X121003990Y-120994545D01*
X120999597Y-120987215D01*
X120828651Y-120702011D01*
X120822921Y-120691290D01*
X120677098Y-120382969D01*
X120672442Y-120371728D01*
X120617849Y-120219153D01*
X120557541Y-120050604D01*
X120554018Y-120038991D01*
X120471139Y-119708122D01*
X120468770Y-119696212D01*
X120418726Y-119358837D01*
X120417534Y-119346731D01*
X120400649Y-119003031D01*
X120400500Y-118996947D01*
X120400500Y-117837860D01*
X121699500Y-117837860D01*
X121699500Y-118162139D01*
X121731284Y-118484857D01*
X121731287Y-118484874D01*
X121794545Y-118802902D01*
X121794548Y-118802913D01*
X121888686Y-119113247D01*
X122012786Y-119412849D01*
X122012788Y-119412854D01*
X122165646Y-119698830D01*
X122165657Y-119698848D01*
X122345811Y-119968467D01*
X122345821Y-119968481D01*
X122551546Y-120219158D01*
X122780841Y-120448453D01*
X122780846Y-120448457D01*
X122780847Y-120448458D01*
X123031524Y-120654183D01*
X123301158Y-120834347D01*
X123301167Y-120834352D01*
X123301169Y-120834353D01*
X123587145Y-120987211D01*
X123587147Y-120987211D01*
X123587153Y-120987215D01*
X123886754Y-121111314D01*
X124197077Y-121205449D01*
X124197083Y-121205450D01*
X124197086Y-121205451D01*
X124197097Y-121205454D01*
X124396528Y-121245122D01*
X124515132Y-121268714D01*
X124837857Y-121300500D01*
X124837860Y-121300500D01*
X125162140Y-121300500D01*
X125162143Y-121300500D01*
X125484868Y-121268714D01*
X125642295Y-121237399D01*
X125802902Y-121205454D01*
X125802913Y-121205451D01*
X125802913Y-121205450D01*
X125802923Y-121205449D01*
X126113246Y-121111314D01*
X126412847Y-120987215D01*
X126698842Y-120834347D01*
X126968476Y-120654183D01*
X127219153Y-120448458D01*
X127448458Y-120219153D01*
X127654183Y-119968476D01*
X127834347Y-119698842D01*
X127987215Y-119412847D01*
X128111314Y-119113246D01*
X128205449Y-118802923D01*
X128205451Y-118802913D01*
X128205454Y-118802902D01*
X128237399Y-118642295D01*
X128268714Y-118484868D01*
X128300500Y-118162143D01*
X128300500Y-117837857D01*
X128268714Y-117515132D01*
X128245122Y-117396528D01*
X128205454Y-117197097D01*
X128205451Y-117197086D01*
X128205450Y-117197083D01*
X128205449Y-117197077D01*
X128111314Y-116886754D01*
X127987215Y-116587153D01*
X127887170Y-116399983D01*
X134199500Y-116399983D01*
X134199500Y-117600001D01*
X134199501Y-117600018D01*
X134210000Y-117702796D01*
X134210001Y-117702799D01*
X134265185Y-117869331D01*
X134265186Y-117869334D01*
X134357288Y-118018656D01*
X134481344Y-118142712D01*
X134630666Y-118234814D01*
X134797203Y-118289999D01*
X134899991Y-118300500D01*
X136100008Y-118300499D01*
X136202797Y-118289999D01*
X136369334Y-118234814D01*
X136518656Y-118142712D01*
X136642712Y-118018656D01*
X136734814Y-117869334D01*
X136789999Y-117702797D01*
X136800500Y-117600009D01*
X136800499Y-116399992D01*
X136800498Y-116399983D01*
X170699500Y-116399983D01*
X170699500Y-117600001D01*
X170699501Y-117600018D01*
X170710000Y-117702796D01*
X170710001Y-117702799D01*
X170765185Y-117869331D01*
X170765186Y-117869334D01*
X170857288Y-118018656D01*
X170981344Y-118142712D01*
X171130666Y-118234814D01*
X171297203Y-118289999D01*
X171399991Y-118300500D01*
X172600008Y-118300499D01*
X172702797Y-118289999D01*
X172869334Y-118234814D01*
X173018656Y-118142712D01*
X173142712Y-118018656D01*
X173234814Y-117869334D01*
X173245243Y-117837860D01*
X181699500Y-117837860D01*
X181699500Y-118162139D01*
X181731284Y-118484857D01*
X181731287Y-118484874D01*
X181794545Y-118802902D01*
X181794548Y-118802913D01*
X181888686Y-119113247D01*
X182012786Y-119412849D01*
X182012788Y-119412854D01*
X182165646Y-119698830D01*
X182165657Y-119698848D01*
X182345811Y-119968467D01*
X182345821Y-119968481D01*
X182551546Y-120219158D01*
X182780841Y-120448453D01*
X182780846Y-120448457D01*
X182780847Y-120448458D01*
X183031524Y-120654183D01*
X183301158Y-120834347D01*
X183301167Y-120834352D01*
X183301169Y-120834353D01*
X183587145Y-120987211D01*
X183587147Y-120987211D01*
X183587153Y-120987215D01*
X183886754Y-121111314D01*
X184197077Y-121205449D01*
X184197083Y-121205450D01*
X184197086Y-121205451D01*
X184197097Y-121205454D01*
X184396528Y-121245122D01*
X184515132Y-121268714D01*
X184837857Y-121300500D01*
X184837860Y-121300500D01*
X185162140Y-121300500D01*
X185162143Y-121300500D01*
X185484868Y-121268714D01*
X185642295Y-121237399D01*
X185802902Y-121205454D01*
X185802913Y-121205451D01*
X185802913Y-121205450D01*
X185802923Y-121205449D01*
X186113246Y-121111314D01*
X186412847Y-120987215D01*
X186698842Y-120834347D01*
X186968476Y-120654183D01*
X187219153Y-120448458D01*
X187448458Y-120219153D01*
X187654183Y-119968476D01*
X187834347Y-119698842D01*
X187987215Y-119412847D01*
X188111314Y-119113246D01*
X188205449Y-118802923D01*
X188205451Y-118802913D01*
X188205454Y-118802902D01*
X188237399Y-118642295D01*
X188268714Y-118484868D01*
X188300500Y-118162143D01*
X188300500Y-117837857D01*
X188268714Y-117515132D01*
X188245122Y-117396528D01*
X188205454Y-117197097D01*
X188205451Y-117197086D01*
X188205450Y-117197083D01*
X188205449Y-117197077D01*
X188111314Y-116886754D01*
X187987215Y-116587153D01*
X187916731Y-116455288D01*
X187834353Y-116301169D01*
X187834352Y-116301167D01*
X187834347Y-116301158D01*
X187654183Y-116031524D01*
X187448458Y-115780847D01*
X187448457Y-115780846D01*
X187448453Y-115780841D01*
X187219158Y-115551546D01*
X186968481Y-115345821D01*
X186968480Y-115345820D01*
X186968476Y-115345817D01*
X186698842Y-115165653D01*
X186698837Y-115165650D01*
X186698830Y-115165646D01*
X186412854Y-115012788D01*
X186412849Y-115012786D01*
X186113247Y-114888686D01*
X185802913Y-114794548D01*
X185802902Y-114794545D01*
X185484874Y-114731287D01*
X185484857Y-114731284D01*
X185240812Y-114707248D01*
X185162143Y-114699500D01*
X184837857Y-114699500D01*
X184765099Y-114706666D01*
X184515142Y-114731284D01*
X184515125Y-114731287D01*
X184197097Y-114794545D01*
X184197086Y-114794548D01*
X183886752Y-114888686D01*
X183587150Y-115012786D01*
X183587145Y-115012788D01*
X183301169Y-115165646D01*
X183301151Y-115165657D01*
X183031532Y-115345811D01*
X183031518Y-115345821D01*
X182780841Y-115551546D01*
X182551546Y-115780841D01*
X182345821Y-116031518D01*
X182345811Y-116031532D01*
X182165657Y-116301151D01*
X182165646Y-116301169D01*
X182012788Y-116587145D01*
X182012786Y-116587150D01*
X181888686Y-116886752D01*
X181794548Y-117197086D01*
X181794545Y-117197097D01*
X181731287Y-117515125D01*
X181731284Y-117515142D01*
X181712802Y-117702796D01*
X181703642Y-117795809D01*
X181699500Y-117837860D01*
X173245243Y-117837860D01*
X173289999Y-117702797D01*
X173300500Y-117600009D01*
X173300499Y-116399992D01*
X173289999Y-116297203D01*
X173234814Y-116130666D01*
X173142712Y-115981344D01*
X173018656Y-115857288D01*
X172869334Y-115765186D01*
X172702797Y-115710001D01*
X172702795Y-115710000D01*
X172600010Y-115699500D01*
X171399998Y-115699500D01*
X171399981Y-115699501D01*
X171297203Y-115710000D01*
X171297200Y-115710001D01*
X171130668Y-115765185D01*
X171130663Y-115765187D01*
X170981342Y-115857289D01*
X170857289Y-115981342D01*
X170765187Y-116130663D01*
X170765186Y-116130666D01*
X170710001Y-116297203D01*
X170710001Y-116297204D01*
X170710000Y-116297204D01*
X170699500Y-116399983D01*
X136800498Y-116399983D01*
X136789999Y-116297203D01*
X136734814Y-116130666D01*
X136642712Y-115981344D01*
X136518656Y-115857288D01*
X136369334Y-115765186D01*
X136202797Y-115710001D01*
X136202795Y-115710000D01*
X136100010Y-115699500D01*
X134899998Y-115699500D01*
X134899981Y-115699501D01*
X134797203Y-115710000D01*
X134797200Y-115710001D01*
X134630668Y-115765185D01*
X134630663Y-115765187D01*
X134481342Y-115857289D01*
X134357289Y-115981342D01*
X134265187Y-116130663D01*
X134265186Y-116130666D01*
X134210001Y-116297203D01*
X134210001Y-116297204D01*
X134210000Y-116297204D01*
X134199500Y-116399983D01*
X127887170Y-116399983D01*
X127834347Y-116301158D01*
X127654183Y-116031524D01*
X127448458Y-115780847D01*
X127448457Y-115780846D01*
X127448453Y-115780841D01*
X127219158Y-115551546D01*
X126968481Y-115345821D01*
X126968480Y-115345820D01*
X126968476Y-115345817D01*
X126698842Y-115165653D01*
X126698837Y-115165650D01*
X126698830Y-115165646D01*
X126412854Y-115012788D01*
X126412849Y-115012786D01*
X126113247Y-114888686D01*
X125802913Y-114794548D01*
X125802902Y-114794545D01*
X125484874Y-114731287D01*
X125484857Y-114731284D01*
X125240812Y-114707248D01*
X125162143Y-114699500D01*
X124837857Y-114699500D01*
X124765099Y-114706666D01*
X124515142Y-114731284D01*
X124515125Y-114731287D01*
X124197097Y-114794545D01*
X124197086Y-114794548D01*
X123886752Y-114888686D01*
X123587150Y-115012786D01*
X123587145Y-115012788D01*
X123301169Y-115165646D01*
X123301151Y-115165657D01*
X123031532Y-115345811D01*
X123031518Y-115345821D01*
X122780841Y-115551546D01*
X122551546Y-115780841D01*
X122345821Y-116031518D01*
X122345811Y-116031532D01*
X122165657Y-116301151D01*
X122165646Y-116301169D01*
X122012788Y-116587145D01*
X122012786Y-116587150D01*
X121888686Y-116886752D01*
X121794548Y-117197086D01*
X121794545Y-117197097D01*
X121731287Y-117515125D01*
X121731284Y-117515142D01*
X121712802Y-117702796D01*
X121703642Y-117795809D01*
X121699500Y-117837860D01*
X120400500Y-117837860D01*
X120400500Y-111252135D01*
X120649500Y-111252135D01*
X120649500Y-112247870D01*
X120649501Y-112247876D01*
X120655908Y-112307483D01*
X120706202Y-112442328D01*
X120706206Y-112442335D01*
X120792452Y-112557544D01*
X120792455Y-112557547D01*
X120907664Y-112643793D01*
X120907671Y-112643797D01*
X121042517Y-112694091D01*
X121042516Y-112694091D01*
X121049444Y-112694835D01*
X121102127Y-112700500D01*
X123197872Y-112700499D01*
X123257483Y-112694091D01*
X123392331Y-112643796D01*
X123507546Y-112557546D01*
X123593796Y-112442331D01*
X123644091Y-112307483D01*
X123650500Y-112247873D01*
X123650499Y-111252128D01*
X123644091Y-111192517D01*
X123639685Y-111180705D01*
X123593797Y-111057671D01*
X123593793Y-111057664D01*
X123507547Y-110942455D01*
X123507544Y-110942452D01*
X123392335Y-110856206D01*
X123392328Y-110856202D01*
X123257482Y-110805908D01*
X123257483Y-110805908D01*
X123197883Y-110799501D01*
X123197881Y-110799500D01*
X123197873Y-110799500D01*
X123197864Y-110799500D01*
X121102129Y-110799500D01*
X121102123Y-110799501D01*
X121042516Y-110805908D01*
X120907671Y-110856202D01*
X120907664Y-110856206D01*
X120792455Y-110942452D01*
X120792452Y-110942455D01*
X120706206Y-111057664D01*
X120706202Y-111057671D01*
X120655908Y-111192517D01*
X120649501Y-111252116D01*
X120649501Y-111252123D01*
X120649500Y-111252135D01*
X120400500Y-111252135D01*
X120400500Y-109828034D01*
X152899500Y-109828034D01*
X152899500Y-110171965D01*
X152933210Y-110514249D01*
X153000308Y-110851572D01*
X153100150Y-111180706D01*
X153231770Y-111498464D01*
X153231772Y-111498469D01*
X153393893Y-111801775D01*
X153393904Y-111801793D01*
X153584975Y-112087751D01*
X153584985Y-112087765D01*
X153803176Y-112353632D01*
X154046367Y-112596823D01*
X154046372Y-112596827D01*
X154046373Y-112596828D01*
X154312240Y-112815019D01*
X154598213Y-113006100D01*
X154598222Y-113006105D01*
X154598224Y-113006106D01*
X154901530Y-113168227D01*
X154901532Y-113168227D01*
X154901538Y-113168231D01*
X155219295Y-113299850D01*
X155548422Y-113399690D01*
X155885750Y-113466789D01*
X156228031Y-113500500D01*
X156228034Y-113500500D01*
X156571966Y-113500500D01*
X156571969Y-113500500D01*
X156914250Y-113466789D01*
X157251578Y-113399690D01*
X157580705Y-113299850D01*
X157898462Y-113168231D01*
X158201787Y-113006100D01*
X158487760Y-112815019D01*
X158753627Y-112596828D01*
X158996828Y-112353627D01*
X159215019Y-112087760D01*
X159406100Y-111801787D01*
X159568231Y-111498462D01*
X159699850Y-111180705D01*
X159799690Y-110851578D01*
X159853883Y-110579133D01*
X159886268Y-110517222D01*
X159946984Y-110482648D01*
X160016753Y-110486387D01*
X160073425Y-110527254D01*
X160099006Y-110592272D01*
X160099500Y-110603324D01*
X160099500Y-111571450D01*
X160114804Y-111785433D01*
X160175628Y-112065037D01*
X160275635Y-112333166D01*
X160412770Y-112584309D01*
X160412775Y-112584317D01*
X160584254Y-112813387D01*
X160584270Y-112813405D01*
X160786594Y-113015729D01*
X160786612Y-113015745D01*
X161015682Y-113187224D01*
X161015690Y-113187229D01*
X161266833Y-113324364D01*
X161266832Y-113324364D01*
X161266836Y-113324365D01*
X161266839Y-113324367D01*
X161534954Y-113424369D01*
X161534960Y-113424370D01*
X161534962Y-113424371D01*
X161814566Y-113485195D01*
X161814568Y-113485195D01*
X161814572Y-113485196D01*
X162028552Y-113500500D01*
X165171448Y-113500500D01*
X165385428Y-113485196D01*
X165665046Y-113424369D01*
X165933161Y-113324367D01*
X166184315Y-113187226D01*
X166413395Y-113015739D01*
X166615739Y-112813395D01*
X166787226Y-112584315D01*
X166924367Y-112333161D01*
X167024369Y-112065046D01*
X167085196Y-111785428D01*
X167100500Y-111571448D01*
X167100500Y-111252135D01*
X186349500Y-111252135D01*
X186349500Y-112247870D01*
X186349501Y-112247876D01*
X186355908Y-112307483D01*
X186406202Y-112442328D01*
X186406206Y-112442335D01*
X186492452Y-112557544D01*
X186492455Y-112557547D01*
X186607664Y-112643793D01*
X186607671Y-112643797D01*
X186742517Y-112694091D01*
X186742516Y-112694091D01*
X186749444Y-112694835D01*
X186802127Y-112700500D01*
X188897872Y-112700499D01*
X188957483Y-112694091D01*
X189092331Y-112643796D01*
X189207546Y-112557546D01*
X189293796Y-112442331D01*
X189344091Y-112307483D01*
X189350500Y-112247873D01*
X189350499Y-111252128D01*
X189344091Y-111192517D01*
X189339685Y-111180705D01*
X189293797Y-111057671D01*
X189293793Y-111057664D01*
X189207547Y-110942455D01*
X189207544Y-110942452D01*
X189092335Y-110856206D01*
X189092328Y-110856202D01*
X188957482Y-110805908D01*
X188957483Y-110805908D01*
X188897883Y-110799501D01*
X188897881Y-110799500D01*
X188897873Y-110799500D01*
X188897864Y-110799500D01*
X186802129Y-110799500D01*
X186802123Y-110799501D01*
X186742516Y-110805908D01*
X186607671Y-110856202D01*
X186607664Y-110856206D01*
X186492455Y-110942452D01*
X186492452Y-110942455D01*
X186406206Y-111057664D01*
X186406202Y-111057671D01*
X186355908Y-111192517D01*
X186349501Y-111252116D01*
X186349501Y-111252123D01*
X186349500Y-111252135D01*
X167100500Y-111252135D01*
X167100500Y-108456762D01*
X179299500Y-108456762D01*
X179299500Y-108743237D01*
X179331572Y-109027891D01*
X179395317Y-109307181D01*
X179395321Y-109307193D01*
X179489929Y-109577565D01*
X179489935Y-109577579D01*
X179614223Y-109835666D01*
X179614225Y-109835669D01*
X179766634Y-110078227D01*
X179945243Y-110302195D01*
X180147805Y-110504757D01*
X180371773Y-110683366D01*
X180614331Y-110835775D01*
X180872428Y-110960068D01*
X180872434Y-110960070D01*
X181142806Y-111054678D01*
X181142818Y-111054682D01*
X181422102Y-111118426D01*
X181422105Y-111118426D01*
X181422108Y-111118427D01*
X181422107Y-111118427D01*
X181564434Y-111134463D01*
X181706763Y-111150499D01*
X181706764Y-111150500D01*
X181706767Y-111150500D01*
X181993236Y-111150500D01*
X181993236Y-111150499D01*
X182116905Y-111136565D01*
X182214355Y-111125586D01*
X182214355Y-111125585D01*
X182266561Y-111119703D01*
X182277890Y-111118427D01*
X182277891Y-111118427D01*
X182277892Y-111118426D01*
X182277898Y-111118426D01*
X182557182Y-111054682D01*
X182827572Y-110960068D01*
X183085669Y-110835775D01*
X183328227Y-110683366D01*
X183552195Y-110504757D01*
X183754757Y-110302195D01*
X183933366Y-110078227D01*
X184085775Y-109835669D01*
X184210068Y-109577572D01*
X184304682Y-109307182D01*
X184368426Y-109027898D01*
X184400500Y-108743233D01*
X184400500Y-108456767D01*
X184368426Y-108172102D01*
X184304682Y-107892818D01*
X184210068Y-107622428D01*
X184085775Y-107364331D01*
X183933366Y-107121773D01*
X183754757Y-106897805D01*
X183552195Y-106695243D01*
X183527607Y-106675635D01*
X183433153Y-106600310D01*
X183328227Y-106516634D01*
X183085669Y-106364225D01*
X183085666Y-106364223D01*
X182827579Y-106239935D01*
X182827565Y-106239929D01*
X182557193Y-106145321D01*
X182557181Y-106145317D01*
X182277891Y-106081572D01*
X182277892Y-106081572D01*
X181993237Y-106049500D01*
X181993233Y-106049500D01*
X181706767Y-106049500D01*
X181706762Y-106049500D01*
X181422108Y-106081572D01*
X181142818Y-106145317D01*
X181142806Y-106145321D01*
X180872434Y-106239929D01*
X180872420Y-106239935D01*
X180614333Y-106364223D01*
X180371774Y-106516633D01*
X180147805Y-106695242D01*
X179945242Y-106897805D01*
X179766633Y-107121774D01*
X179614223Y-107364333D01*
X179489935Y-107622420D01*
X179489929Y-107622434D01*
X179395321Y-107892806D01*
X179395317Y-107892818D01*
X179331572Y-108172108D01*
X179299500Y-108456762D01*
X167100500Y-108456762D01*
X167100500Y-108428552D01*
X167085196Y-108214572D01*
X167081637Y-108198213D01*
X167024371Y-107934962D01*
X167024370Y-107934960D01*
X167024369Y-107934954D01*
X166924367Y-107666839D01*
X166913188Y-107646367D01*
X166787229Y-107415690D01*
X166787224Y-107415682D01*
X166615745Y-107186612D01*
X166615729Y-107186594D01*
X166413405Y-106984270D01*
X166413387Y-106984254D01*
X166184317Y-106812775D01*
X166184309Y-106812770D01*
X165933166Y-106675635D01*
X165933167Y-106675635D01*
X165825915Y-106635632D01*
X165665046Y-106575631D01*
X165665043Y-106575630D01*
X165665037Y-106575628D01*
X165385433Y-106514804D01*
X165171450Y-106499500D01*
X165171448Y-106499500D01*
X162028552Y-106499500D01*
X162028549Y-106499500D01*
X161814566Y-106514804D01*
X161534962Y-106575628D01*
X161266833Y-106675635D01*
X161015690Y-106812770D01*
X161015682Y-106812775D01*
X160786612Y-106984254D01*
X160786594Y-106984270D01*
X160584270Y-107186594D01*
X160584254Y-107186612D01*
X160412775Y-107415682D01*
X160412770Y-107415690D01*
X160275635Y-107666833D01*
X160175628Y-107934962D01*
X160114804Y-108214566D01*
X160099500Y-108428549D01*
X160099500Y-109396675D01*
X160079815Y-109463714D01*
X160027011Y-109509469D01*
X159957853Y-109519413D01*
X159894297Y-109490388D01*
X159856523Y-109431610D01*
X159853883Y-109420866D01*
X159799691Y-109148427D01*
X159799690Y-109148426D01*
X159799690Y-109148422D01*
X159699850Y-108819295D01*
X159568231Y-108501538D01*
X159544300Y-108456767D01*
X159406106Y-108198224D01*
X159406105Y-108198222D01*
X159406100Y-108198213D01*
X159215019Y-107912240D01*
X158996828Y-107646373D01*
X158996827Y-107646372D01*
X158996823Y-107646367D01*
X158753632Y-107403176D01*
X158487765Y-107184985D01*
X158487764Y-107184984D01*
X158487760Y-107184981D01*
X158201787Y-106993900D01*
X158201782Y-106993897D01*
X158201775Y-106993893D01*
X157898469Y-106831772D01*
X157898464Y-106831770D01*
X157580706Y-106700150D01*
X157251572Y-106600308D01*
X156914248Y-106533210D01*
X156914249Y-106533210D01*
X156656456Y-106507821D01*
X156571969Y-106499500D01*
X156228031Y-106499500D01*
X156149966Y-106507188D01*
X155885750Y-106533210D01*
X155548427Y-106600308D01*
X155219293Y-106700150D01*
X154901535Y-106831770D01*
X154901530Y-106831772D01*
X154598224Y-106993893D01*
X154598206Y-106993904D01*
X154312248Y-107184975D01*
X154312234Y-107184985D01*
X154046367Y-107403176D01*
X153803176Y-107646367D01*
X153584985Y-107912234D01*
X153584975Y-107912248D01*
X153393904Y-108198206D01*
X153393893Y-108198224D01*
X153231772Y-108501530D01*
X153231770Y-108501535D01*
X153100150Y-108819293D01*
X153000308Y-109148427D01*
X152933210Y-109485750D01*
X152899500Y-109828034D01*
X120400500Y-109828034D01*
X120400500Y-105399983D01*
X134199500Y-105399983D01*
X134199500Y-106600001D01*
X134199501Y-106600018D01*
X134210000Y-106702796D01*
X134210001Y-106702799D01*
X134246444Y-106812774D01*
X134265186Y-106869334D01*
X134357288Y-107018656D01*
X134481344Y-107142712D01*
X134630666Y-107234814D01*
X134797203Y-107289999D01*
X134899991Y-107300500D01*
X136100008Y-107300499D01*
X136202797Y-107289999D01*
X136369334Y-107234814D01*
X136518656Y-107142712D01*
X136642712Y-107018656D01*
X136734814Y-106869334D01*
X136789999Y-106702797D01*
X136800500Y-106600009D01*
X136800499Y-105399992D01*
X136800498Y-105399983D01*
X170699500Y-105399983D01*
X170699500Y-106600001D01*
X170699501Y-106600018D01*
X170710000Y-106702796D01*
X170710001Y-106702799D01*
X170746444Y-106812774D01*
X170765186Y-106869334D01*
X170857288Y-107018656D01*
X170981344Y-107142712D01*
X171130666Y-107234814D01*
X171297203Y-107289999D01*
X171399991Y-107300500D01*
X172600008Y-107300499D01*
X172702797Y-107289999D01*
X172869334Y-107234814D01*
X173018656Y-107142712D01*
X173142712Y-107018656D01*
X173234814Y-106869334D01*
X173289999Y-106702797D01*
X173300500Y-106600009D01*
X173300499Y-105399992D01*
X173289999Y-105297203D01*
X173234814Y-105130666D01*
X173142712Y-104981344D01*
X173018656Y-104857288D01*
X172869334Y-104765186D01*
X172702797Y-104710001D01*
X172702795Y-104710000D01*
X172600010Y-104699500D01*
X171399998Y-104699500D01*
X171399981Y-104699501D01*
X171297203Y-104710000D01*
X171297200Y-104710001D01*
X171130668Y-104765185D01*
X171130663Y-104765187D01*
X170981342Y-104857289D01*
X170857289Y-104981342D01*
X170765187Y-105130663D01*
X170765186Y-105130666D01*
X170710001Y-105297203D01*
X170710001Y-105297204D01*
X170710000Y-105297204D01*
X170699500Y-105399983D01*
X136800498Y-105399983D01*
X136789999Y-105297203D01*
X136734814Y-105130666D01*
X136642712Y-104981344D01*
X136518656Y-104857288D01*
X136369334Y-104765186D01*
X136202797Y-104710001D01*
X136202795Y-104710000D01*
X136100010Y-104699500D01*
X134899998Y-104699500D01*
X134899981Y-104699501D01*
X134797203Y-104710000D01*
X134797200Y-104710001D01*
X134630668Y-104765185D01*
X134630663Y-104765187D01*
X134481342Y-104857289D01*
X134357289Y-104981342D01*
X134265187Y-105130663D01*
X134265186Y-105130666D01*
X134210001Y-105297203D01*
X134210001Y-105297204D01*
X134210000Y-105297204D01*
X134199500Y-105399983D01*
X120400500Y-105399983D01*
X120400500Y-101256762D01*
X125599500Y-101256762D01*
X125599500Y-101543237D01*
X125631572Y-101827891D01*
X125695317Y-102107181D01*
X125695321Y-102107193D01*
X125789929Y-102377565D01*
X125789935Y-102377579D01*
X125914223Y-102635666D01*
X125914225Y-102635669D01*
X126066634Y-102878227D01*
X126245243Y-103102195D01*
X126447805Y-103304757D01*
X126671773Y-103483366D01*
X126914331Y-103635775D01*
X127172428Y-103760068D01*
X127172434Y-103760070D01*
X127442806Y-103854678D01*
X127442818Y-103854682D01*
X127722102Y-103918426D01*
X127722105Y-103918426D01*
X127722108Y-103918427D01*
X127722107Y-103918427D01*
X127864434Y-103934463D01*
X128006763Y-103950499D01*
X128006764Y-103950500D01*
X128006767Y-103950500D01*
X128293236Y-103950500D01*
X128293236Y-103950499D01*
X128498815Y-103927336D01*
X128577891Y-103918427D01*
X128577892Y-103918426D01*
X128577898Y-103918426D01*
X128857182Y-103854682D01*
X129127572Y-103760068D01*
X129385669Y-103635775D01*
X129628227Y-103483366D01*
X129852195Y-103304757D01*
X130054757Y-103102195D01*
X130233366Y-102878227D01*
X130385775Y-102635669D01*
X130510068Y-102377572D01*
X130604682Y-102107182D01*
X130668426Y-101827898D01*
X130700500Y-101543233D01*
X130700500Y-101256767D01*
X130668426Y-100972102D01*
X130604682Y-100692818D01*
X130510068Y-100422428D01*
X130385775Y-100164331D01*
X130233366Y-99921773D01*
X130054757Y-99697805D01*
X129852195Y-99495243D01*
X129628227Y-99316634D01*
X129385669Y-99164225D01*
X129385666Y-99164223D01*
X129127579Y-99039935D01*
X129127565Y-99039929D01*
X128857193Y-98945321D01*
X128857181Y-98945317D01*
X128577891Y-98881572D01*
X128577892Y-98881572D01*
X128293237Y-98849500D01*
X128293233Y-98849500D01*
X128006767Y-98849500D01*
X128006762Y-98849500D01*
X127722108Y-98881572D01*
X127442818Y-98945317D01*
X127442806Y-98945321D01*
X127172434Y-99039929D01*
X127172420Y-99039935D01*
X126914333Y-99164223D01*
X126671774Y-99316633D01*
X126447805Y-99495242D01*
X126245242Y-99697805D01*
X126066633Y-99921774D01*
X125914223Y-100164333D01*
X125789935Y-100422420D01*
X125789929Y-100422434D01*
X125695321Y-100692806D01*
X125695317Y-100692818D01*
X125631572Y-100972108D01*
X125599500Y-101256762D01*
X120400500Y-101256762D01*
X120400500Y-97752135D01*
X120649500Y-97752135D01*
X120649500Y-98747870D01*
X120649501Y-98747876D01*
X120655908Y-98807483D01*
X120706202Y-98942328D01*
X120706206Y-98942335D01*
X120792452Y-99057544D01*
X120792455Y-99057547D01*
X120907664Y-99143793D01*
X120907671Y-99143797D01*
X121042517Y-99194091D01*
X121042516Y-99194091D01*
X121049444Y-99194835D01*
X121102127Y-99200500D01*
X123197872Y-99200499D01*
X123257483Y-99194091D01*
X123392331Y-99143796D01*
X123507546Y-99057546D01*
X123593796Y-98942331D01*
X123644091Y-98807483D01*
X123650500Y-98747873D01*
X123650499Y-97752128D01*
X123644091Y-97692517D01*
X123593796Y-97557669D01*
X123593795Y-97557668D01*
X123593793Y-97557664D01*
X123507547Y-97442455D01*
X123507544Y-97442452D01*
X123392335Y-97356206D01*
X123392328Y-97356202D01*
X123257482Y-97305908D01*
X123257483Y-97305908D01*
X123197883Y-97299501D01*
X123197881Y-97299500D01*
X123197873Y-97299500D01*
X123197864Y-97299500D01*
X121102129Y-97299500D01*
X121102123Y-97299501D01*
X121042516Y-97305908D01*
X120907671Y-97356202D01*
X120907664Y-97356206D01*
X120792455Y-97442452D01*
X120792452Y-97442455D01*
X120706206Y-97557664D01*
X120706202Y-97557671D01*
X120655908Y-97692517D01*
X120649501Y-97752116D01*
X120649501Y-97752123D01*
X120649500Y-97752135D01*
X120400500Y-97752135D01*
X120400500Y-95813713D01*
X135882000Y-95813713D01*
X135882000Y-96026287D01*
X135915254Y-96236243D01*
X135971711Y-96410000D01*
X135980944Y-96438414D01*
X136077451Y-96627820D01*
X136202390Y-96799786D01*
X136352713Y-96950109D01*
X136524679Y-97075048D01*
X136524681Y-97075049D01*
X136524684Y-97075051D01*
X136714088Y-97171557D01*
X136916257Y-97237246D01*
X137126213Y-97270500D01*
X137126214Y-97270500D01*
X137338786Y-97270500D01*
X137338787Y-97270500D01*
X137548743Y-97237246D01*
X137750912Y-97171557D01*
X137940316Y-97075051D01*
X137962289Y-97059086D01*
X138112286Y-96950109D01*
X138112288Y-96950106D01*
X138112292Y-96950104D01*
X138262604Y-96799792D01*
X138262606Y-96799788D01*
X138262609Y-96799786D01*
X138387548Y-96627820D01*
X138387547Y-96627820D01*
X138387551Y-96627816D01*
X138392014Y-96619054D01*
X138439988Y-96568259D01*
X138507808Y-96551463D01*
X138573944Y-96573999D01*
X138612986Y-96619056D01*
X138617451Y-96627820D01*
X138742390Y-96799786D01*
X138892713Y-96950109D01*
X139064679Y-97075048D01*
X139064681Y-97075049D01*
X139064684Y-97075051D01*
X139254088Y-97171557D01*
X139456257Y-97237246D01*
X139666213Y-97270500D01*
X139666214Y-97270500D01*
X139878786Y-97270500D01*
X139878787Y-97270500D01*
X140088743Y-97237246D01*
X140290912Y-97171557D01*
X140480316Y-97075051D01*
X140502289Y-97059086D01*
X140652286Y-96950109D01*
X140652288Y-96950106D01*
X140652292Y-96950104D01*
X140802604Y-96799792D01*
X140802606Y-96799788D01*
X140802609Y-96799786D01*
X140927548Y-96627820D01*
X140927547Y-96627820D01*
X140927551Y-96627816D01*
X140932014Y-96619054D01*
X140979988Y-96568259D01*
X141047808Y-96551463D01*
X141113944Y-96573999D01*
X141152986Y-96619056D01*
X141157451Y-96627820D01*
X141282390Y-96799786D01*
X141432713Y-96950109D01*
X141604679Y-97075048D01*
X141604681Y-97075049D01*
X141604684Y-97075051D01*
X141794088Y-97171557D01*
X141996257Y-97237246D01*
X142206213Y-97270500D01*
X142206214Y-97270500D01*
X142418786Y-97270500D01*
X142418787Y-97270500D01*
X142628743Y-97237246D01*
X142830912Y-97171557D01*
X143020316Y-97075051D01*
X143042289Y-97059086D01*
X143192286Y-96950109D01*
X143192288Y-96950106D01*
X143192292Y-96950104D01*
X143342604Y-96799792D01*
X143342606Y-96799788D01*
X143342609Y-96799786D01*
X143467548Y-96627820D01*
X143467547Y-96627820D01*
X143467551Y-96627816D01*
X143472014Y-96619054D01*
X143519988Y-96568259D01*
X143587808Y-96551463D01*
X143653944Y-96573999D01*
X143692986Y-96619056D01*
X143697451Y-96627820D01*
X143822390Y-96799786D01*
X143972713Y-96950109D01*
X144144679Y-97075048D01*
X144144681Y-97075049D01*
X144144684Y-97075051D01*
X144334088Y-97171557D01*
X144536257Y-97237246D01*
X144746213Y-97270500D01*
X144746214Y-97270500D01*
X144958786Y-97270500D01*
X144958787Y-97270500D01*
X145168743Y-97237246D01*
X145370912Y-97171557D01*
X145560316Y-97075051D01*
X145582289Y-97059086D01*
X145732286Y-96950109D01*
X145732288Y-96950106D01*
X145732292Y-96950104D01*
X145882604Y-96799792D01*
X145882606Y-96799788D01*
X145882609Y-96799786D01*
X146007548Y-96627820D01*
X146007547Y-96627820D01*
X146007551Y-96627816D01*
X146012014Y-96619054D01*
X146059988Y-96568259D01*
X146127808Y-96551463D01*
X146193944Y-96573999D01*
X146232986Y-96619056D01*
X146237451Y-96627820D01*
X146362390Y-96799786D01*
X146512713Y-96950109D01*
X146684679Y-97075048D01*
X146684681Y-97075049D01*
X146684684Y-97075051D01*
X146874088Y-97171557D01*
X147076257Y-97237246D01*
X147286213Y-97270500D01*
X147286214Y-97270500D01*
X147498786Y-97270500D01*
X147498787Y-97270500D01*
X147708743Y-97237246D01*
X147910912Y-97171557D01*
X148100316Y-97075051D01*
X148122289Y-97059086D01*
X148272286Y-96950109D01*
X148272288Y-96950106D01*
X148272292Y-96950104D01*
X148422604Y-96799792D01*
X148422606Y-96799788D01*
X148422609Y-96799786D01*
X148547548Y-96627820D01*
X148547547Y-96627820D01*
X148547551Y-96627816D01*
X148552014Y-96619054D01*
X148599988Y-96568259D01*
X148667808Y-96551463D01*
X148733944Y-96573999D01*
X148772986Y-96619056D01*
X148777451Y-96627820D01*
X148902390Y-96799786D01*
X149052713Y-96950109D01*
X149224679Y-97075048D01*
X149224681Y-97075049D01*
X149224684Y-97075051D01*
X149414088Y-97171557D01*
X149616257Y-97237246D01*
X149826213Y-97270500D01*
X149826214Y-97270500D01*
X150038786Y-97270500D01*
X150038787Y-97270500D01*
X150248743Y-97237246D01*
X150450912Y-97171557D01*
X150640316Y-97075051D01*
X150662289Y-97059086D01*
X150812286Y-96950109D01*
X150812288Y-96950106D01*
X150812292Y-96950104D01*
X150962604Y-96799792D01*
X150962606Y-96799788D01*
X150962609Y-96799786D01*
X151087548Y-96627820D01*
X151087547Y-96627820D01*
X151087551Y-96627816D01*
X151184057Y-96438412D01*
X151249746Y-96236243D01*
X151283000Y-96026287D01*
X151283000Y-95813713D01*
X151249746Y-95603757D01*
X151184057Y-95401588D01*
X151087551Y-95212184D01*
X151087549Y-95212181D01*
X151087548Y-95212179D01*
X150962609Y-95040213D01*
X150812286Y-94889890D01*
X150640320Y-94764951D01*
X150450914Y-94668444D01*
X150450913Y-94668443D01*
X150450912Y-94668443D01*
X150248743Y-94602754D01*
X150248741Y-94602753D01*
X150248740Y-94602753D01*
X150087457Y-94577208D01*
X150038787Y-94569500D01*
X149826213Y-94569500D01*
X149777542Y-94577208D01*
X149616260Y-94602753D01*
X149414085Y-94668444D01*
X149224679Y-94764951D01*
X149052713Y-94889890D01*
X148902390Y-95040213D01*
X148777449Y-95212182D01*
X148772984Y-95220946D01*
X148725009Y-95271742D01*
X148657188Y-95288536D01*
X148591053Y-95265998D01*
X148552016Y-95220946D01*
X148547550Y-95212182D01*
X148422609Y-95040213D01*
X148272286Y-94889890D01*
X148100320Y-94764951D01*
X147910914Y-94668444D01*
X147910913Y-94668443D01*
X147910912Y-94668443D01*
X147708743Y-94602754D01*
X147708741Y-94602753D01*
X147708740Y-94602753D01*
X147547457Y-94577208D01*
X147498787Y-94569500D01*
X147286213Y-94569500D01*
X147237542Y-94577208D01*
X147076260Y-94602753D01*
X146874085Y-94668444D01*
X146684679Y-94764951D01*
X146512713Y-94889890D01*
X146362390Y-95040213D01*
X146237449Y-95212182D01*
X146232984Y-95220946D01*
X146185009Y-95271742D01*
X146117188Y-95288536D01*
X146051053Y-95265998D01*
X146012016Y-95220946D01*
X146007550Y-95212182D01*
X145882609Y-95040213D01*
X145732286Y-94889890D01*
X145560320Y-94764951D01*
X145370914Y-94668444D01*
X145370913Y-94668443D01*
X145370912Y-94668443D01*
X145168743Y-94602754D01*
X145168741Y-94602753D01*
X145168740Y-94602753D01*
X145007457Y-94577208D01*
X144958787Y-94569500D01*
X144746213Y-94569500D01*
X144697542Y-94577208D01*
X144536260Y-94602753D01*
X144334085Y-94668444D01*
X144144679Y-94764951D01*
X143972713Y-94889890D01*
X143822390Y-95040213D01*
X143697449Y-95212182D01*
X143692984Y-95220946D01*
X143645009Y-95271742D01*
X143577188Y-95288536D01*
X143511053Y-95265998D01*
X143472016Y-95220946D01*
X143467550Y-95212182D01*
X143342609Y-95040213D01*
X143192286Y-94889890D01*
X143020320Y-94764951D01*
X142830914Y-94668444D01*
X142830913Y-94668443D01*
X142830912Y-94668443D01*
X142628743Y-94602754D01*
X142628741Y-94602753D01*
X142628740Y-94602753D01*
X142467457Y-94577208D01*
X142418787Y-94569500D01*
X142206213Y-94569500D01*
X142157542Y-94577208D01*
X141996260Y-94602753D01*
X141794085Y-94668444D01*
X141604679Y-94764951D01*
X141432713Y-94889890D01*
X141282390Y-95040213D01*
X141157449Y-95212182D01*
X141152984Y-95220946D01*
X141105009Y-95271742D01*
X141037188Y-95288536D01*
X140971053Y-95265998D01*
X140932016Y-95220946D01*
X140927550Y-95212182D01*
X140802609Y-95040213D01*
X140652286Y-94889890D01*
X140480320Y-94764951D01*
X140290914Y-94668444D01*
X140290913Y-94668443D01*
X140290912Y-94668443D01*
X140088743Y-94602754D01*
X140088741Y-94602753D01*
X140088740Y-94602753D01*
X139927457Y-94577208D01*
X139878787Y-94569500D01*
X139666213Y-94569500D01*
X139617542Y-94577208D01*
X139456260Y-94602753D01*
X139254085Y-94668444D01*
X139064679Y-94764951D01*
X138892713Y-94889890D01*
X138742390Y-95040213D01*
X138617449Y-95212182D01*
X138612984Y-95220946D01*
X138565009Y-95271742D01*
X138497188Y-95288536D01*
X138431053Y-95265998D01*
X138392016Y-95220946D01*
X138387550Y-95212182D01*
X138262609Y-95040213D01*
X138112286Y-94889890D01*
X137940320Y-94764951D01*
X137750914Y-94668444D01*
X137750913Y-94668443D01*
X137750912Y-94668443D01*
X137548743Y-94602754D01*
X137548741Y-94602753D01*
X137548740Y-94602753D01*
X137387457Y-94577208D01*
X137338787Y-94569500D01*
X137126213Y-94569500D01*
X137077542Y-94577208D01*
X136916260Y-94602753D01*
X136714085Y-94668444D01*
X136524679Y-94764951D01*
X136352713Y-94889890D01*
X136202390Y-95040213D01*
X136077451Y-95212179D01*
X135980944Y-95401585D01*
X135915253Y-95603760D01*
X135897016Y-95718907D01*
X135882000Y-95813713D01*
X120400500Y-95813713D01*
X120400500Y-66002706D01*
X120400618Y-65997297D01*
X120402802Y-65947273D01*
X120407579Y-65837860D01*
X121699500Y-65837860D01*
X121699500Y-66162139D01*
X121731284Y-66484857D01*
X121731287Y-66484874D01*
X121794545Y-66802902D01*
X121794548Y-66802913D01*
X121888686Y-67113247D01*
X122012786Y-67412849D01*
X122012788Y-67412854D01*
X122165646Y-67698830D01*
X122165657Y-67698848D01*
X122345811Y-67968467D01*
X122345821Y-67968481D01*
X122551546Y-68219158D01*
X122780841Y-68448453D01*
X122780846Y-68448457D01*
X122780847Y-68448458D01*
X123031524Y-68654183D01*
X123301158Y-68834347D01*
X123301167Y-68834352D01*
X123301169Y-68834353D01*
X123587145Y-68987211D01*
X123587147Y-68987211D01*
X123587153Y-68987215D01*
X123886754Y-69111314D01*
X124197077Y-69205449D01*
X124197083Y-69205450D01*
X124197086Y-69205451D01*
X124197097Y-69205454D01*
X124396528Y-69245122D01*
X124515132Y-69268714D01*
X124837857Y-69300500D01*
X124837860Y-69300500D01*
X125162140Y-69300500D01*
X125162143Y-69300500D01*
X125484868Y-69268714D01*
X125592656Y-69247273D01*
X135599500Y-69247273D01*
X135599500Y-72947273D01*
X135599500Y-73052727D01*
X135626793Y-73154587D01*
X135679520Y-73245913D01*
X135754087Y-73320480D01*
X135845413Y-73373207D01*
X135947273Y-73400500D01*
X137642019Y-73400500D01*
X137709058Y-73420185D01*
X137754813Y-73472989D01*
X137764757Y-73542147D01*
X137735732Y-73605703D01*
X137694245Y-73635618D01*
X137694688Y-73636487D01*
X137481304Y-73745212D01*
X137291510Y-73883104D01*
X137291505Y-73883108D01*
X137125608Y-74049005D01*
X137125604Y-74049010D01*
X136987712Y-74238804D01*
X136881197Y-74447849D01*
X136808701Y-74670972D01*
X136772000Y-74902695D01*
X136772000Y-75137304D01*
X136808701Y-75369027D01*
X136881197Y-75592150D01*
X136987712Y-75801195D01*
X137125604Y-75990989D01*
X137125608Y-75990994D01*
X137291505Y-76156891D01*
X137291510Y-76156895D01*
X137411588Y-76244136D01*
X137481308Y-76294790D01*
X137585603Y-76347931D01*
X137619132Y-76365015D01*
X137669928Y-76412990D01*
X137686723Y-76480811D01*
X137664186Y-76546946D01*
X137609470Y-76590397D01*
X137562837Y-76599500D01*
X135947273Y-76599500D01*
X135845413Y-76626793D01*
X135845410Y-76626794D01*
X135754085Y-76679521D01*
X135679521Y-76754085D01*
X135626794Y-76845410D01*
X135626793Y-76845413D01*
X135599500Y-76947273D01*
X135599500Y-93552727D01*
X135626793Y-93654587D01*
X135679520Y-93745913D01*
X135754087Y-93820480D01*
X135845413Y-93873207D01*
X135947273Y-93900500D01*
X135947275Y-93900500D01*
X152052725Y-93900500D01*
X152052727Y-93900500D01*
X152154587Y-93873207D01*
X152245913Y-93820480D01*
X152320480Y-93745913D01*
X152373207Y-93654587D01*
X152400500Y-93552727D01*
X152400500Y-91574092D01*
X152420185Y-91507053D01*
X152472989Y-91461298D01*
X152542147Y-91451354D01*
X152605703Y-91480379D01*
X152634984Y-91517796D01*
X152669950Y-91586420D01*
X152683797Y-91613595D01*
X152822112Y-91803971D01*
X152822116Y-91803976D01*
X152988523Y-91970383D01*
X152988528Y-91970387D01*
X153136848Y-92078147D01*
X153178908Y-92108705D01*
X153388589Y-92215543D01*
X153388591Y-92215544D01*
X153612398Y-92288263D01*
X153612399Y-92288263D01*
X153612402Y-92288264D01*
X153844835Y-92325078D01*
X153844836Y-92325078D01*
X154080164Y-92325078D01*
X154080165Y-92325078D01*
X154312598Y-92288264D01*
X154312601Y-92288263D01*
X154312602Y-92288263D01*
X154536408Y-92215544D01*
X154536408Y-92215543D01*
X154536411Y-92215543D01*
X154746092Y-92108705D01*
X154936478Y-91970382D01*
X155102882Y-91803978D01*
X155241205Y-91613592D01*
X155348043Y-91403911D01*
X155420764Y-91180098D01*
X155457578Y-90947665D01*
X155457578Y-90712335D01*
X155420764Y-90479902D01*
X155420763Y-90479898D01*
X155420763Y-90479897D01*
X155348044Y-90256091D01*
X155290784Y-90143713D01*
X155241205Y-90046408D01*
X155149499Y-89920185D01*
X155102887Y-89856028D01*
X155102883Y-89856023D01*
X154936472Y-89689612D01*
X154847289Y-89624818D01*
X154804623Y-89569489D01*
X154798644Y-89499875D01*
X154831249Y-89438080D01*
X154892088Y-89403723D01*
X154920174Y-89400500D01*
X156302725Y-89400500D01*
X156302727Y-89400500D01*
X156404587Y-89373207D01*
X156495913Y-89320480D01*
X156570480Y-89245913D01*
X156623207Y-89154587D01*
X156650500Y-89052727D01*
X156650500Y-74863945D01*
X159274500Y-74863945D01*
X159274500Y-75056054D01*
X159304553Y-75245802D01*
X159363916Y-75428506D01*
X159447298Y-75592150D01*
X159451135Y-75599681D01*
X159564055Y-75755102D01*
X159699898Y-75890945D01*
X159855319Y-76003865D01*
X160026491Y-76091082D01*
X160026493Y-76091083D01*
X160091081Y-76112069D01*
X160148756Y-76151506D01*
X160175955Y-76215865D01*
X160164041Y-76284711D01*
X160116797Y-76336187D01*
X160091081Y-76347931D01*
X160026493Y-76368916D01*
X159855318Y-76456135D01*
X159828665Y-76475500D01*
X159699898Y-76569055D01*
X159699896Y-76569057D01*
X159699895Y-76569057D01*
X159564057Y-76704895D01*
X159564057Y-76704896D01*
X159564055Y-76704898D01*
X159528319Y-76754085D01*
X159451135Y-76860318D01*
X159363916Y-77031493D01*
X159304553Y-77214197D01*
X159274500Y-77403945D01*
X159274500Y-77596054D01*
X159304553Y-77785802D01*
X159363916Y-77968506D01*
X159451135Y-78139681D01*
X159564055Y-78295102D01*
X159699898Y-78430945D01*
X159855319Y-78543865D01*
X160026491Y-78631082D01*
X160026493Y-78631083D01*
X160091081Y-78652069D01*
X160148756Y-78691506D01*
X160175955Y-78755865D01*
X160164041Y-78824711D01*
X160116797Y-78876187D01*
X160091081Y-78887931D01*
X160026493Y-78908916D01*
X159855318Y-78996135D01*
X159766645Y-79060560D01*
X159699898Y-79109055D01*
X159699896Y-79109057D01*
X159699895Y-79109057D01*
X159564057Y-79244895D01*
X159564057Y-79244896D01*
X159564055Y-79244898D01*
X159515560Y-79311645D01*
X159451135Y-79400318D01*
X159363916Y-79571493D01*
X159304553Y-79754197D01*
X159274500Y-79943945D01*
X159274500Y-80136054D01*
X159304553Y-80325802D01*
X159363916Y-80508506D01*
X159363918Y-80508509D01*
X159451135Y-80679681D01*
X159564055Y-80835102D01*
X159699898Y-80970945D01*
X159855319Y-81083865D01*
X160026491Y-81171082D01*
X160026493Y-81171083D01*
X160117845Y-81200764D01*
X160209199Y-81230447D01*
X160398945Y-81260500D01*
X160398946Y-81260500D01*
X160591054Y-81260500D01*
X160591055Y-81260500D01*
X160780801Y-81230447D01*
X160963509Y-81171082D01*
X161134681Y-81083865D01*
X161290102Y-80970945D01*
X161425945Y-80835102D01*
X161538865Y-80679681D01*
X161626082Y-80508509D01*
X161685447Y-80325801D01*
X161715500Y-80136055D01*
X161715500Y-79943945D01*
X161685447Y-79754199D01*
X161626082Y-79571491D01*
X161538865Y-79400319D01*
X161425945Y-79244898D01*
X161290102Y-79109055D01*
X161134681Y-78996135D01*
X160963504Y-78908915D01*
X160898919Y-78887931D01*
X160841243Y-78848494D01*
X160814044Y-78784136D01*
X160825958Y-78715289D01*
X160873202Y-78663813D01*
X160898919Y-78652069D01*
X160963504Y-78631084D01*
X160963506Y-78631082D01*
X160963509Y-78631082D01*
X161134681Y-78543865D01*
X161290102Y-78430945D01*
X161425945Y-78295102D01*
X161538865Y-78139681D01*
X161626082Y-77968509D01*
X161685447Y-77785801D01*
X161715500Y-77596055D01*
X161715500Y-77403945D01*
X161685447Y-77214199D01*
X161626082Y-77031491D01*
X161538865Y-76860319D01*
X161425945Y-76704898D01*
X161290102Y-76569055D01*
X161134681Y-76456135D01*
X161013318Y-76394297D01*
X160963504Y-76368915D01*
X160898919Y-76347931D01*
X160841243Y-76308494D01*
X160814044Y-76244136D01*
X160825958Y-76175289D01*
X160873202Y-76123813D01*
X160898919Y-76112069D01*
X160963504Y-76091084D01*
X160963506Y-76091082D01*
X160963509Y-76091082D01*
X161134681Y-76003865D01*
X161290102Y-75890945D01*
X161425945Y-75755102D01*
X161538865Y-75599681D01*
X161626082Y-75428509D01*
X161685447Y-75245801D01*
X161715500Y-75056055D01*
X161715500Y-74863945D01*
X161685447Y-74674199D01*
X161626082Y-74491491D01*
X161538865Y-74320319D01*
X161425945Y-74164898D01*
X161290102Y-74029055D01*
X161134681Y-73916135D01*
X160963506Y-73828916D01*
X160780802Y-73769553D01*
X160685928Y-73754526D01*
X160591055Y-73739500D01*
X160398945Y-73739500D01*
X160335696Y-73749517D01*
X160209197Y-73769553D01*
X160026493Y-73828916D01*
X159855318Y-73916135D01*
X159840349Y-73927011D01*
X159699898Y-74029055D01*
X159699896Y-74029057D01*
X159699895Y-74029057D01*
X159564057Y-74164895D01*
X159564057Y-74164896D01*
X159564055Y-74164898D01*
X159515560Y-74231645D01*
X159451135Y-74320318D01*
X159363916Y-74491493D01*
X159304553Y-74674197D01*
X159274500Y-74863945D01*
X156650500Y-74863945D01*
X156650500Y-74347273D01*
X156623207Y-74245413D01*
X156570480Y-74154087D01*
X156495913Y-74079520D01*
X156429059Y-74040922D01*
X156404589Y-74026794D01*
X156404588Y-74026793D01*
X156404587Y-74026793D01*
X156302727Y-73999500D01*
X156302726Y-73999500D01*
X156257118Y-73999500D01*
X156190079Y-73979815D01*
X156144324Y-73927011D01*
X156134380Y-73857853D01*
X156156799Y-73802616D01*
X156167549Y-73787819D01*
X156176856Y-73769553D01*
X156264057Y-73598412D01*
X156329746Y-73396243D01*
X156363000Y-73186287D01*
X156363000Y-72973713D01*
X156329746Y-72763757D01*
X156264057Y-72561588D01*
X156167551Y-72372184D01*
X156167549Y-72372181D01*
X156167548Y-72372179D01*
X156042609Y-72200213D01*
X155892286Y-72049890D01*
X155720320Y-71924951D01*
X155530914Y-71828444D01*
X155530913Y-71828443D01*
X155530912Y-71828443D01*
X155328743Y-71762754D01*
X155328741Y-71762753D01*
X155328740Y-71762753D01*
X155167457Y-71737208D01*
X155118787Y-71729500D01*
X154906213Y-71729500D01*
X154857542Y-71737208D01*
X154696260Y-71762753D01*
X154494085Y-71828444D01*
X154304682Y-71924950D01*
X154297383Y-71930253D01*
X154231577Y-71953731D01*
X154163523Y-71937904D01*
X154114829Y-71887798D01*
X154100500Y-71829933D01*
X154100500Y-69247275D01*
X154100500Y-69247273D01*
X154073207Y-69145413D01*
X154020480Y-69054087D01*
X153945913Y-68979520D01*
X153854587Y-68926793D01*
X153752727Y-68899500D01*
X153752726Y-68899500D01*
X153731505Y-68899500D01*
X153664466Y-68879815D01*
X153618711Y-68827011D01*
X153608767Y-68757853D01*
X153625777Y-68710710D01*
X153627537Y-68707834D01*
X153627551Y-68707816D01*
X153724057Y-68518412D01*
X153789746Y-68316243D01*
X153823000Y-68106287D01*
X153823000Y-67893713D01*
X153789746Y-67683757D01*
X153724057Y-67481588D01*
X153627551Y-67292184D01*
X153627549Y-67292181D01*
X153627548Y-67292179D01*
X153502609Y-67120213D01*
X153352286Y-66969890D01*
X153180320Y-66844951D01*
X152990914Y-66748444D01*
X152990913Y-66748443D01*
X152990912Y-66748443D01*
X152788743Y-66682754D01*
X152788741Y-66682753D01*
X152788740Y-66682753D01*
X152627457Y-66657208D01*
X152578787Y-66649500D01*
X152366213Y-66649500D01*
X152317542Y-66657208D01*
X152156260Y-66682753D01*
X151954085Y-66748444D01*
X151764679Y-66844951D01*
X151592713Y-66969890D01*
X151442390Y-67120213D01*
X151317449Y-67292182D01*
X151312984Y-67300946D01*
X151265009Y-67351742D01*
X151197188Y-67368536D01*
X151131053Y-67345998D01*
X151092016Y-67300946D01*
X151087550Y-67292182D01*
X150962609Y-67120213D01*
X150812286Y-66969890D01*
X150640320Y-66844951D01*
X150450914Y-66748444D01*
X150450913Y-66748443D01*
X150450912Y-66748443D01*
X150248743Y-66682754D01*
X150248741Y-66682753D01*
X150248740Y-66682753D01*
X150087457Y-66657208D01*
X150038787Y-66649500D01*
X149826213Y-66649500D01*
X149777542Y-66657208D01*
X149616260Y-66682753D01*
X149414085Y-66748444D01*
X149224679Y-66844951D01*
X149052713Y-66969890D01*
X148902390Y-67120213D01*
X148777449Y-67292182D01*
X148772984Y-67300946D01*
X148725009Y-67351742D01*
X148657188Y-67368536D01*
X148591053Y-67345998D01*
X148552016Y-67300946D01*
X148547550Y-67292182D01*
X148422609Y-67120213D01*
X148272286Y-66969890D01*
X148100320Y-66844951D01*
X147910914Y-66748444D01*
X147910913Y-66748443D01*
X147910912Y-66748443D01*
X147708743Y-66682754D01*
X147708741Y-66682753D01*
X147708740Y-66682753D01*
X147547457Y-66657208D01*
X147498787Y-66649500D01*
X147286213Y-66649500D01*
X147237542Y-66657208D01*
X147076260Y-66682753D01*
X146874085Y-66748444D01*
X146684679Y-66844951D01*
X146512713Y-66969890D01*
X146362390Y-67120213D01*
X146237449Y-67292182D01*
X146232984Y-67300946D01*
X146185009Y-67351742D01*
X146117188Y-67368536D01*
X146051053Y-67345998D01*
X146012016Y-67300946D01*
X146007550Y-67292182D01*
X145882609Y-67120213D01*
X145732286Y-66969890D01*
X145560320Y-66844951D01*
X145370914Y-66748444D01*
X145370913Y-66748443D01*
X145370912Y-66748443D01*
X145168743Y-66682754D01*
X145168741Y-66682753D01*
X145168740Y-66682753D01*
X145007457Y-66657208D01*
X144958787Y-66649500D01*
X144746213Y-66649500D01*
X144559207Y-66679119D01*
X144489913Y-66670164D01*
X144452128Y-66644327D01*
X143711819Y-65904018D01*
X143678334Y-65842695D01*
X143677814Y-65837860D01*
X181699500Y-65837860D01*
X181699500Y-66162139D01*
X181731284Y-66484857D01*
X181731287Y-66484874D01*
X181794545Y-66802902D01*
X181794548Y-66802913D01*
X181888686Y-67113247D01*
X182012786Y-67412849D01*
X182012788Y-67412854D01*
X182165646Y-67698830D01*
X182165657Y-67698848D01*
X182345811Y-67968467D01*
X182345821Y-67968481D01*
X182551546Y-68219158D01*
X182780841Y-68448453D01*
X182780846Y-68448457D01*
X182780847Y-68448458D01*
X183031524Y-68654183D01*
X183301158Y-68834347D01*
X183301167Y-68834352D01*
X183301169Y-68834353D01*
X183587145Y-68987211D01*
X183587147Y-68987211D01*
X183587153Y-68987215D01*
X183886754Y-69111314D01*
X184197077Y-69205449D01*
X184197083Y-69205450D01*
X184197086Y-69205451D01*
X184197097Y-69205454D01*
X184396528Y-69245122D01*
X184515132Y-69268714D01*
X184837857Y-69300500D01*
X184837860Y-69300500D01*
X185162140Y-69300500D01*
X185162143Y-69300500D01*
X185484868Y-69268714D01*
X185642295Y-69237399D01*
X185802902Y-69205454D01*
X185802913Y-69205451D01*
X185802913Y-69205450D01*
X185802923Y-69205449D01*
X186113246Y-69111314D01*
X186412847Y-68987215D01*
X186698842Y-68834347D01*
X186968476Y-68654183D01*
X187219153Y-68448458D01*
X187448458Y-68219153D01*
X187654183Y-67968476D01*
X187834347Y-67698842D01*
X187987215Y-67412847D01*
X188111314Y-67113246D01*
X188205449Y-66802923D01*
X188205451Y-66802913D01*
X188205454Y-66802902D01*
X188258653Y-66535446D01*
X188268714Y-66484868D01*
X188300500Y-66162143D01*
X188300500Y-65837857D01*
X188268714Y-65515132D01*
X188232173Y-65331427D01*
X188205454Y-65197097D01*
X188205451Y-65197086D01*
X188205450Y-65197083D01*
X188205449Y-65197077D01*
X188111314Y-64886754D01*
X187987215Y-64587153D01*
X187834347Y-64301158D01*
X187654183Y-64031524D01*
X187448458Y-63780847D01*
X187448457Y-63780846D01*
X187448453Y-63780841D01*
X187219158Y-63551546D01*
X186968481Y-63345821D01*
X186968480Y-63345820D01*
X186968476Y-63345817D01*
X186698842Y-63165653D01*
X186698837Y-63165650D01*
X186698830Y-63165646D01*
X186412854Y-63012788D01*
X186412849Y-63012786D01*
X186113247Y-62888686D01*
X185802913Y-62794548D01*
X185802902Y-62794545D01*
X185484874Y-62731287D01*
X185484857Y-62731284D01*
X185240812Y-62707248D01*
X185162143Y-62699500D01*
X184837857Y-62699500D01*
X184765099Y-62706666D01*
X184515142Y-62731284D01*
X184515125Y-62731287D01*
X184197097Y-62794545D01*
X184197086Y-62794548D01*
X183886752Y-62888686D01*
X183587150Y-63012786D01*
X183587145Y-63012788D01*
X183301169Y-63165646D01*
X183301151Y-63165657D01*
X183031532Y-63345811D01*
X183031518Y-63345821D01*
X182780841Y-63551546D01*
X182551546Y-63780841D01*
X182345821Y-64031518D01*
X182345811Y-64031532D01*
X182165657Y-64301151D01*
X182165646Y-64301169D01*
X182012788Y-64587145D01*
X182012786Y-64587150D01*
X181888686Y-64886752D01*
X181794548Y-65197086D01*
X181794545Y-65197097D01*
X181731287Y-65515125D01*
X181731284Y-65515142D01*
X181699500Y-65837860D01*
X143677814Y-65837860D01*
X143675500Y-65816337D01*
X143675500Y-65467519D01*
X143695185Y-65400480D01*
X143696398Y-65398628D01*
X143709394Y-65379179D01*
X143769737Y-65233497D01*
X143800500Y-65078842D01*
X143800500Y-64921158D01*
X143800500Y-64921155D01*
X143800499Y-64921153D01*
X143794459Y-64890787D01*
X143769737Y-64766503D01*
X143769735Y-64766498D01*
X143709397Y-64620827D01*
X143709390Y-64620814D01*
X143621789Y-64489711D01*
X143621786Y-64489707D01*
X143510292Y-64378213D01*
X143510288Y-64378210D01*
X143379185Y-64290609D01*
X143379172Y-64290602D01*
X143233501Y-64230264D01*
X143233489Y-64230261D01*
X143078845Y-64199500D01*
X143078842Y-64199500D01*
X142921158Y-64199500D01*
X142921155Y-64199500D01*
X142766510Y-64230261D01*
X142766498Y-64230264D01*
X142620827Y-64290602D01*
X142620814Y-64290609D01*
X142489711Y-64378210D01*
X142489707Y-64378213D01*
X142378213Y-64489707D01*
X142378210Y-64489711D01*
X142290609Y-64620814D01*
X142290602Y-64620827D01*
X142230264Y-64766498D01*
X142230261Y-64766510D01*
X142199500Y-64921153D01*
X142199500Y-65078846D01*
X142230261Y-65233489D01*
X142230264Y-65233501D01*
X142290603Y-65379174D01*
X142290604Y-65379175D01*
X142290606Y-65379179D01*
X142303602Y-65398628D01*
X142324480Y-65465305D01*
X142324500Y-65467519D01*
X142324500Y-66214035D01*
X142350457Y-66344528D01*
X142350459Y-66344536D01*
X142403711Y-66473097D01*
X142402516Y-66473591D01*
X142415396Y-66535446D01*
X142390398Y-66600691D01*
X142334094Y-66642063D01*
X142291796Y-66649500D01*
X142206213Y-66649500D01*
X142157542Y-66657208D01*
X141996260Y-66682753D01*
X141794085Y-66748444D01*
X141604679Y-66844951D01*
X141432713Y-66969890D01*
X141282390Y-67120213D01*
X141157449Y-67292182D01*
X141152984Y-67300946D01*
X141105009Y-67351742D01*
X141037188Y-67368536D01*
X140971053Y-67345998D01*
X140932016Y-67300946D01*
X140927550Y-67292182D01*
X140802609Y-67120213D01*
X140652286Y-66969890D01*
X140480320Y-66844951D01*
X140290914Y-66748444D01*
X140290913Y-66748443D01*
X140290912Y-66748443D01*
X140088743Y-66682754D01*
X140088741Y-66682753D01*
X140088740Y-66682753D01*
X139927457Y-66657208D01*
X139878787Y-66649500D01*
X139666213Y-66649500D01*
X139617542Y-66657208D01*
X139456260Y-66682753D01*
X139254085Y-66748444D01*
X139064679Y-66844951D01*
X138892713Y-66969890D01*
X138742390Y-67120213D01*
X138617449Y-67292182D01*
X138612984Y-67300946D01*
X138565009Y-67351742D01*
X138497188Y-67368536D01*
X138431053Y-67345998D01*
X138392016Y-67300946D01*
X138387550Y-67292182D01*
X138262609Y-67120213D01*
X138112286Y-66969890D01*
X137940320Y-66844951D01*
X137750914Y-66748444D01*
X137750913Y-66748443D01*
X137750912Y-66748443D01*
X137548743Y-66682754D01*
X137548741Y-66682753D01*
X137548740Y-66682753D01*
X137387457Y-66657208D01*
X137338787Y-66649500D01*
X137126213Y-66649500D01*
X137077542Y-66657208D01*
X136916260Y-66682753D01*
X136714085Y-66748444D01*
X136524679Y-66844951D01*
X136352713Y-66969890D01*
X136202390Y-67120213D01*
X136077451Y-67292179D01*
X135980944Y-67481585D01*
X135915253Y-67683760D01*
X135882000Y-67893713D01*
X135882000Y-68106287D01*
X135915254Y-68316243D01*
X135980943Y-68518412D01*
X136077449Y-68707816D01*
X136077455Y-68707825D01*
X136079223Y-68710710D01*
X136079561Y-68711962D01*
X136079661Y-68712157D01*
X136079620Y-68712177D01*
X136097467Y-68778156D01*
X136076350Y-68844759D01*
X136022579Y-68889372D01*
X135973495Y-68899500D01*
X135947273Y-68899500D01*
X135845413Y-68926793D01*
X135845410Y-68926794D01*
X135754085Y-68979521D01*
X135679521Y-69054085D01*
X135626794Y-69145410D01*
X135626793Y-69145413D01*
X135599500Y-69247273D01*
X125592656Y-69247273D01*
X125642295Y-69237399D01*
X125802902Y-69205454D01*
X125802913Y-69205451D01*
X125802913Y-69205450D01*
X125802923Y-69205449D01*
X126113246Y-69111314D01*
X126412847Y-68987215D01*
X126698842Y-68834347D01*
X126968476Y-68654183D01*
X127219153Y-68448458D01*
X127448458Y-68219153D01*
X127654183Y-67968476D01*
X127834347Y-67698842D01*
X127987215Y-67412847D01*
X128111314Y-67113246D01*
X128205449Y-66802923D01*
X128205451Y-66802913D01*
X128205454Y-66802902D01*
X128258653Y-66535446D01*
X128268714Y-66484868D01*
X128300500Y-66162143D01*
X128300500Y-65837857D01*
X128268714Y-65515132D01*
X128232173Y-65331427D01*
X128205454Y-65197097D01*
X128205451Y-65197086D01*
X128205450Y-65197083D01*
X128205449Y-65197077D01*
X128111314Y-64886754D01*
X127987215Y-64587153D01*
X127834347Y-64301158D01*
X127654183Y-64031524D01*
X127448458Y-63780847D01*
X127448457Y-63780846D01*
X127448453Y-63780841D01*
X127219158Y-63551546D01*
X126968481Y-63345821D01*
X126968480Y-63345820D01*
X126968476Y-63345817D01*
X126698842Y-63165653D01*
X126698837Y-63165650D01*
X126698830Y-63165646D01*
X126412854Y-63012788D01*
X126412849Y-63012786D01*
X126113247Y-62888686D01*
X125802913Y-62794548D01*
X125802902Y-62794545D01*
X125484874Y-62731287D01*
X125484857Y-62731284D01*
X125240812Y-62707248D01*
X125162143Y-62699500D01*
X124837857Y-62699500D01*
X124765099Y-62706666D01*
X124515142Y-62731284D01*
X124515125Y-62731287D01*
X124197097Y-62794545D01*
X124197086Y-62794548D01*
X123886752Y-62888686D01*
X123587150Y-63012786D01*
X123587145Y-63012788D01*
X123301169Y-63165646D01*
X123301151Y-63165657D01*
X123031532Y-63345811D01*
X123031518Y-63345821D01*
X122780841Y-63551546D01*
X122551546Y-63780841D01*
X122345821Y-64031518D01*
X122345811Y-64031532D01*
X122165657Y-64301151D01*
X122165646Y-64301169D01*
X122012788Y-64587145D01*
X122012786Y-64587150D01*
X121888686Y-64886752D01*
X121794548Y-65197086D01*
X121794545Y-65197097D01*
X121731287Y-65515125D01*
X121731284Y-65515142D01*
X121699500Y-65837860D01*
X120407579Y-65837860D01*
X120417766Y-65604512D01*
X120418705Y-65593781D01*
X120469672Y-65206656D01*
X120471544Y-65196040D01*
X120556057Y-64814823D01*
X120558844Y-64804423D01*
X120676263Y-64432016D01*
X120679947Y-64421895D01*
X120829372Y-64061150D01*
X120833930Y-64051376D01*
X121014219Y-63705045D01*
X121019614Y-63695700D01*
X121229408Y-63366389D01*
X121235594Y-63357554D01*
X121473294Y-63047779D01*
X121480238Y-63039505D01*
X121744005Y-62751654D01*
X121751654Y-62744005D01*
X122039505Y-62480238D01*
X122047779Y-62473294D01*
X122357554Y-62235594D01*
X122366389Y-62229408D01*
X122695700Y-62019614D01*
X122705045Y-62014219D01*
X123051376Y-61833930D01*
X123061150Y-61829372D01*
X123421895Y-61679947D01*
X123432016Y-61676263D01*
X123804423Y-61558844D01*
X123814823Y-61556057D01*
X124196040Y-61471544D01*
X124206656Y-61469672D01*
X124593781Y-61418705D01*
X124604512Y-61417766D01*
X124984473Y-61401177D01*
X124997298Y-61400618D01*
X125002706Y-61400500D01*
X125057583Y-61400500D01*
X184942417Y-61400500D01*
X184997294Y-61400500D01*
X185002702Y-61400618D01*
G37*
%TD.AperFunction*%
%TD*%
M02*
