%TF.GenerationSoftware,KiCad,Pcbnew,9.0.3*%
%TF.CreationDate,2025-10-29T20:31:10+11:00*%
%TF.ProjectId,Drivetrain_Pololu_G2_24v21_BLFR,44726976-6574-4726-9169-6e5f506f6c6f,rev?*%
%TF.SameCoordinates,Original*%
%TF.FileFunction,Plated,1,2,PTH,Mixed*%
%TF.FilePolarity,Positive*%
%FSLAX46Y46*%
G04 Gerber Fmt 4.6, Leading zero omitted, Abs format (unit mm)*
G04 Created by KiCad (PCBNEW 9.0.3) date 2025-10-29 20:31:10*
%MOMM*%
%LPD*%
G01*
G04 APERTURE LIST*
%TA.AperFunction,ViaDrill*%
%ADD10C,0.300000*%
%TD*%
G04 aperture for slot hole*
%TA.AperFunction,ComponentDrill*%
%ADD11C,0.600000*%
%TD*%
%TA.AperFunction,ComponentDrill*%
%ADD12C,0.800000*%
%TD*%
%TA.AperFunction,ComponentDrill*%
%ADD13C,0.950000*%
%TD*%
%TA.AperFunction,ComponentDrill*%
%ADD14C,1.000000*%
%TD*%
%TA.AperFunction,ComponentDrill*%
%ADD15C,2.700000*%
%TD*%
%TA.AperFunction,ComponentDrill*%
%ADD16C,3.200000*%
%TD*%
%TA.AperFunction,ComponentDrill*%
%ADD17C,4.500000*%
%TD*%
G04 APERTURE END LIST*
D10*
X122000000Y-73000000D03*
X122000000Y-77000000D03*
X122000000Y-81000000D03*
X122000000Y-86000000D03*
X122000000Y-92000000D03*
X127000000Y-73000000D03*
X127000000Y-77000000D03*
X127000000Y-81000000D03*
X127000000Y-86000000D03*
X132000000Y-63000000D03*
X132000000Y-68000000D03*
X132000000Y-73000000D03*
X132000000Y-77000000D03*
X132000000Y-81000000D03*
X132000000Y-86000000D03*
X143000000Y-65000000D03*
X164000000Y-63000000D03*
X169000000Y-63000000D03*
X169000000Y-67000000D03*
X170000000Y-96000000D03*
X170000000Y-103000000D03*
X178000000Y-96000000D03*
X178000000Y-103000000D03*
X183460000Y-72605000D03*
D11*
%TO.C,J1*%
X122700000Y-98250000D02*
X121600000Y-98250000D01*
X122700000Y-111750000D02*
X121600000Y-111750000D01*
%TO.C,J2*%
X187300000Y-98250000D02*
X188400000Y-98250000D01*
X187300000Y-111750000D02*
X188400000Y-111750000D01*
D12*
%TO.C,C1*%
X135500000Y-106000000D03*
%TO.C,C2*%
X135500000Y-117000000D03*
%TO.C,C1*%
X138000000Y-106000000D03*
%TO.C,C2*%
X138000000Y-117000000D03*
%TO.C,RV1*%
X160495000Y-74960000D03*
X160495000Y-77500000D03*
X160495000Y-80040000D03*
%TO.C,C3*%
X172000000Y-106000000D03*
%TO.C,C4*%
X172000000Y-117000000D03*
%TO.C,C3*%
X174500000Y-106000000D03*
%TO.C,C4*%
X174500000Y-117000000D03*
D13*
%TO.C,J4*%
X161000000Y-90250000D03*
X161000000Y-92750000D03*
X161000000Y-95250000D03*
X161000000Y-97750000D03*
D14*
%TO.C,U1*%
X137232500Y-68000000D03*
X137232500Y-95920000D03*
X139772500Y-68000000D03*
X139772500Y-95920000D03*
X142312500Y-68000000D03*
X142312500Y-95920000D03*
X144852500Y-68000000D03*
X144852500Y-95920000D03*
X147392500Y-68000000D03*
X147392500Y-95920000D03*
X149932500Y-68000000D03*
X149932500Y-95920000D03*
X152472500Y-68000000D03*
X152472500Y-95920000D03*
X155012500Y-68000000D03*
X155012500Y-70540000D03*
X155012500Y-73080000D03*
X155012500Y-95920000D03*
D15*
%TO.C,J1*%
X128150000Y-101400000D03*
X128150000Y-108600000D03*
%TO.C,J2*%
X181850000Y-101400000D03*
X181850000Y-108600000D03*
D16*
%TO.C,H1*%
X125000000Y-66000000D03*
%TO.C,H3*%
X125000000Y-118000000D03*
%TO.C,H2*%
X185000000Y-66000000D03*
%TO.C,H4*%
X185000000Y-118000000D03*
D17*
%TO.C,J3*%
X156400000Y-110000000D03*
X163600000Y-110000000D03*
M02*
